<?xml version="1.0" encoding="utf-8"?>
<svg xmlns="http://www.w3.org/2000/svg" xmlns:xlink="http://www.w3.org/1999/xlink" width="600" height="400" viewBox="0 0 2400 1600">
<defs>
  <clipPath id="clip780">
    <rect x="0" y="0" width="2400" height="1600"/>
  </clipPath>
</defs>
<path clip-path="url(#clip780)" d="M0 1600 L2400 1600 L2400 0 L0 0  Z" fill="#ffffff" fill-rule="evenodd" fill-opacity="1"/>
<defs>
  <clipPath id="clip781">
    <rect x="480" y="0" width="1681" height="1600"/>
  </clipPath>
</defs>
<path clip-path="url(#clip780)" d="M110.881 1486.45 L2352.76 1486.45 L2352.76 47.2441 L110.881 47.2441  Z" fill="#ffffff" fill-rule="evenodd" fill-opacity="1"/>
<defs>
  <clipPath id="clip782">
    <rect x="110" y="47" width="2243" height="1440"/>
  </clipPath>
</defs>
<polyline clip-path="url(#clip782)" style="stroke:#000000; stroke-linecap:round; stroke-linejoin:round; stroke-width:2; stroke-opacity:0.1; fill:none" points="174.33,1486.45 174.33,47.2441 "/>
<polyline clip-path="url(#clip782)" style="stroke:#000000; stroke-linecap:round; stroke-linejoin:round; stroke-width:2; stroke-opacity:0.1; fill:none" points="703.074,1486.45 703.074,47.2441 "/>
<polyline clip-path="url(#clip782)" style="stroke:#000000; stroke-linecap:round; stroke-linejoin:round; stroke-width:2; stroke-opacity:0.1; fill:none" points="1231.82,1486.45 1231.82,47.2441 "/>
<polyline clip-path="url(#clip782)" style="stroke:#000000; stroke-linecap:round; stroke-linejoin:round; stroke-width:2; stroke-opacity:0.1; fill:none" points="1760.56,1486.45 1760.56,47.2441 "/>
<polyline clip-path="url(#clip782)" style="stroke:#000000; stroke-linecap:round; stroke-linejoin:round; stroke-width:2; stroke-opacity:0.1; fill:none" points="2289.31,1486.45 2289.31,47.2441 "/>
<polyline clip-path="url(#clip780)" style="stroke:#000000; stroke-linecap:round; stroke-linejoin:round; stroke-width:4; stroke-opacity:1; fill:none" points="110.881,1486.45 2352.76,1486.45 "/>
<polyline clip-path="url(#clip780)" style="stroke:#000000; stroke-linecap:round; stroke-linejoin:round; stroke-width:4; stroke-opacity:1; fill:none" points="174.33,1486.45 174.33,1467.55 "/>
<polyline clip-path="url(#clip780)" style="stroke:#000000; stroke-linecap:round; stroke-linejoin:round; stroke-width:4; stroke-opacity:1; fill:none" points="703.074,1486.45 703.074,1467.55 "/>
<polyline clip-path="url(#clip780)" style="stroke:#000000; stroke-linecap:round; stroke-linejoin:round; stroke-width:4; stroke-opacity:1; fill:none" points="1231.82,1486.45 1231.82,1467.55 "/>
<polyline clip-path="url(#clip780)" style="stroke:#000000; stroke-linecap:round; stroke-linejoin:round; stroke-width:4; stroke-opacity:1; fill:none" points="1760.56,1486.45 1760.56,1467.55 "/>
<polyline clip-path="url(#clip780)" style="stroke:#000000; stroke-linecap:round; stroke-linejoin:round; stroke-width:4; stroke-opacity:1; fill:none" points="2289.31,1486.45 2289.31,1467.55 "/>
<path clip-path="url(#clip780)" d="M144.272 1532.02 L173.948 1532.02 L173.948 1535.95 L144.272 1535.95 L144.272 1532.02 Z" fill="#000000" fill-rule="nonzero" fill-opacity="1" /><path clip-path="url(#clip780)" d="M188.069 1544.91 L204.388 1544.91 L204.388 1548.85 L182.444 1548.85 L182.444 1544.91 Q185.106 1542.16 189.689 1537.53 Q194.295 1532.88 195.476 1531.53 Q197.721 1529.01 198.601 1527.27 Q199.504 1525.51 199.504 1523.82 Q199.504 1521.07 197.559 1519.33 Q195.638 1517.6 192.536 1517.6 Q190.337 1517.6 187.883 1518.36 Q185.453 1519.13 182.675 1520.68 L182.675 1515.95 Q185.499 1514.82 187.953 1514.24 Q190.406 1513.66 192.444 1513.66 Q197.814 1513.66 201.008 1516.35 Q204.203 1519.03 204.203 1523.52 Q204.203 1525.65 203.393 1527.57 Q202.605 1529.47 200.499 1532.07 Q199.92 1532.74 196.818 1535.95 Q193.717 1539.15 188.069 1544.91 Z" fill="#000000" fill-rule="nonzero" fill-opacity="1" /><path clip-path="url(#clip780)" d="M672.831 1532.02 L702.507 1532.02 L702.507 1535.95 L672.831 1535.95 L672.831 1532.02 Z" fill="#000000" fill-rule="nonzero" fill-opacity="1" /><path clip-path="url(#clip780)" d="M713.41 1544.91 L721.049 1544.91 L721.049 1518.55 L712.739 1520.21 L712.739 1515.95 L721.002 1514.29 L725.678 1514.29 L725.678 1544.91 L733.317 1544.91 L733.317 1548.85 L713.41 1548.85 L713.41 1544.91 Z" fill="#000000" fill-rule="nonzero" fill-opacity="1" /><path clip-path="url(#clip780)" d="M1231.82 1517.37 Q1228.21 1517.37 1226.38 1520.93 Q1224.57 1524.47 1224.57 1531.6 Q1224.57 1538.71 1226.38 1542.27 Q1228.21 1545.82 1231.82 1545.82 Q1235.45 1545.82 1237.26 1542.27 Q1239.09 1538.71 1239.09 1531.6 Q1239.09 1524.47 1237.26 1520.93 Q1235.45 1517.37 1231.82 1517.37 M1231.82 1513.66 Q1237.63 1513.66 1240.68 1518.27 Q1243.76 1522.85 1243.76 1531.6 Q1243.76 1540.33 1240.68 1544.94 Q1237.63 1549.52 1231.82 1549.52 Q1226.01 1549.52 1222.93 1544.94 Q1219.87 1540.33 1219.87 1531.6 Q1219.87 1522.85 1222.93 1518.27 Q1226.01 1513.66 1231.82 1513.66 Z" fill="#000000" fill-rule="nonzero" fill-opacity="1" /><path clip-path="url(#clip780)" d="M1750.94 1544.91 L1758.58 1544.91 L1758.58 1518.55 L1750.27 1520.21 L1750.27 1515.95 L1758.54 1514.29 L1763.21 1514.29 L1763.21 1544.91 L1770.85 1544.91 L1770.85 1548.85 L1750.94 1548.85 L1750.94 1544.91 Z" fill="#000000" fill-rule="nonzero" fill-opacity="1" /><path clip-path="url(#clip780)" d="M2283.96 1544.91 L2300.28 1544.91 L2300.28 1548.85 L2278.33 1548.85 L2278.33 1544.91 Q2281 1542.16 2285.58 1537.53 Q2290.19 1532.88 2291.37 1531.53 Q2293.61 1529.01 2294.49 1527.27 Q2295.39 1525.51 2295.39 1523.82 Q2295.39 1521.07 2293.45 1519.33 Q2291.53 1517.6 2288.43 1517.6 Q2286.23 1517.6 2283.77 1518.36 Q2281.34 1519.13 2278.57 1520.68 L2278.57 1515.95 Q2281.39 1514.82 2283.84 1514.24 Q2286.3 1513.66 2288.33 1513.66 Q2293.7 1513.66 2296.9 1516.35 Q2300.09 1519.03 2300.09 1523.52 Q2300.09 1525.65 2299.28 1527.57 Q2298.5 1529.47 2296.39 1532.07 Q2295.81 1532.74 2292.71 1535.95 Q2289.61 1539.15 2283.96 1544.91 Z" fill="#000000" fill-rule="nonzero" fill-opacity="1" /><polyline clip-path="url(#clip782)" style="stroke:#000000; stroke-linecap:round; stroke-linejoin:round; stroke-width:2; stroke-opacity:0.1; fill:none" points="110.881,1445.72 2352.76,1445.72 "/>
<polyline clip-path="url(#clip782)" style="stroke:#000000; stroke-linecap:round; stroke-linejoin:round; stroke-width:2; stroke-opacity:0.1; fill:none" points="110.881,1091.99 2352.76,1091.99 "/>
<polyline clip-path="url(#clip782)" style="stroke:#000000; stroke-linecap:round; stroke-linejoin:round; stroke-width:2; stroke-opacity:0.1; fill:none" points="110.881,738.265 2352.76,738.265 "/>
<polyline clip-path="url(#clip782)" style="stroke:#000000; stroke-linecap:round; stroke-linejoin:round; stroke-width:2; stroke-opacity:0.1; fill:none" points="110.881,384.54 2352.76,384.54 "/>
<polyline clip-path="url(#clip780)" style="stroke:#000000; stroke-linecap:round; stroke-linejoin:round; stroke-width:4; stroke-opacity:1; fill:none" points="110.881,1486.45 110.881,47.2441 "/>
<polyline clip-path="url(#clip780)" style="stroke:#000000; stroke-linecap:round; stroke-linejoin:round; stroke-width:4; stroke-opacity:1; fill:none" points="110.881,1445.72 129.779,1445.72 "/>
<polyline clip-path="url(#clip780)" style="stroke:#000000; stroke-linecap:round; stroke-linejoin:round; stroke-width:4; stroke-opacity:1; fill:none" points="110.881,1091.99 129.779,1091.99 "/>
<polyline clip-path="url(#clip780)" style="stroke:#000000; stroke-linecap:round; stroke-linejoin:round; stroke-width:4; stroke-opacity:1; fill:none" points="110.881,738.265 129.779,738.265 "/>
<polyline clip-path="url(#clip780)" style="stroke:#000000; stroke-linecap:round; stroke-linejoin:round; stroke-width:4; stroke-opacity:1; fill:none" points="110.881,384.54 129.779,384.54 "/>
<path clip-path="url(#clip780)" d="M62.9365 1431.51 Q59.3254 1431.51 57.4967 1435.08 Q55.6912 1438.62 55.6912 1445.75 Q55.6912 1452.86 57.4967 1456.42 Q59.3254 1459.96 62.9365 1459.96 Q66.5707 1459.96 68.3763 1456.42 Q70.205 1452.86 70.205 1445.75 Q70.205 1438.62 68.3763 1435.08 Q66.5707 1431.51 62.9365 1431.51 M62.9365 1427.81 Q68.7467 1427.81 71.8022 1432.42 Q74.8809 1437 74.8809 1445.75 Q74.8809 1454.48 71.8022 1459.08 Q68.7467 1463.67 62.9365 1463.67 Q57.1264 1463.67 54.0477 1459.08 Q50.9921 1454.48 50.9921 1445.75 Q50.9921 1437 54.0477 1432.42 Q57.1264 1427.81 62.9365 1427.81 Z" fill="#000000" fill-rule="nonzero" fill-opacity="1" /><path clip-path="url(#clip780)" d="M54.9736 1105.34 L62.6124 1105.34 L62.6124 1078.97 L54.3023 1080.64 L54.3023 1076.38 L62.5661 1074.71 L67.242 1074.71 L67.242 1105.34 L74.8809 1105.34 L74.8809 1109.27 L54.9736 1109.27 L54.9736 1105.34 Z" fill="#000000" fill-rule="nonzero" fill-opacity="1" /><path clip-path="url(#clip780)" d="M58.5615 751.61 L74.8809 751.61 L74.8809 755.545 L52.9366 755.545 L52.9366 751.61 Q55.5986 748.855 60.1819 744.226 Q64.7883 739.573 65.9689 738.23 Q68.2143 735.707 69.0939 733.971 Q69.9967 732.212 69.9967 730.522 Q69.9967 727.767 68.0522 726.031 Q66.1309 724.295 63.0291 724.295 Q60.83 724.295 58.3763 725.059 Q55.9458 725.823 53.168 727.374 L53.168 722.652 Q55.9921 721.518 58.4458 720.939 Q60.8995 720.36 62.9365 720.36 Q68.3068 720.36 71.5013 723.045 Q74.6957 725.73 74.6957 730.221 Q74.6957 732.351 73.8855 734.272 Q73.0985 736.17 70.992 738.763 Q70.4133 739.434 67.3115 742.652 Q64.2096 745.846 58.5615 751.61 Z" fill="#000000" fill-rule="nonzero" fill-opacity="1" /><path clip-path="url(#clip780)" d="M67.7513 383.186 Q71.1078 383.903 72.9827 386.172 Q74.8809 388.44 74.8809 391.774 Q74.8809 396.889 71.3624 399.69 Q67.8439 402.491 61.3624 402.491 Q59.1865 402.491 56.8717 402.051 Q54.5801 401.635 52.1264 400.778 L52.1264 396.264 Q54.0708 397.399 56.3856 397.977 Q58.7004 398.556 61.2236 398.556 Q65.6217 398.556 67.9133 396.82 Q70.2281 395.084 70.2281 391.774 Q70.2281 388.718 68.0754 387.005 Q65.9457 385.269 62.1263 385.269 L58.0986 385.269 L58.0986 381.426 L62.3115 381.426 Q65.7606 381.426 67.5893 380.061 Q69.418 378.672 69.418 376.079 Q69.418 373.417 67.5198 372.005 Q65.6448 370.57 62.1263 370.57 Q60.205 370.57 58.006 370.987 Q55.8069 371.403 53.168 372.283 L53.168 368.116 Q55.8301 367.376 58.1449 367.005 Q60.4828 366.635 62.543 366.635 Q67.867 366.635 70.9689 369.065 Q74.0707 371.473 74.0707 375.593 Q74.0707 378.463 72.4272 380.454 Q70.7837 382.422 67.7513 383.186 Z" fill="#000000" fill-rule="nonzero" fill-opacity="1" /><path clip-path="url(#clip782)" d="M1771.35 1445.72 L1771.35 1047.35 L1814.52 1047.35 L1814.52 1445.72 L1814.52 1445.72 L1814.52 1445.72 L1771.35 1445.72 L1771.35 1445.72  Z" fill="#191970" fill-rule="evenodd" fill-opacity="0.293403"/>
<polyline clip-path="url(#clip782)" style="stroke:#000000; stroke-linecap:round; stroke-linejoin:round; stroke-width:4; stroke-opacity:1; fill:none" points="1771.35,1445.72 1771.35,1047.35 1814.52,1047.35 1814.52,1445.72 "/>
<path clip-path="url(#clip782)" d="M2159.82 1445.72 L2159.82 304.837 L2202.98 304.837 L2202.98 1445.72 L2202.98 1445.72 L2202.98 1445.72 L2159.82 1445.72 L2159.82 1445.72  Z" fill="#191970" fill-rule="evenodd" fill-opacity="0.840278"/>
<polyline clip-path="url(#clip782)" style="stroke:#000000; stroke-linecap:round; stroke-linejoin:round; stroke-width:4; stroke-opacity:1; fill:none" points="2159.82,1445.72 2159.82,304.837 2202.98,304.837 2202.98,1445.72 "/>
<path clip-path="url(#clip782)" d="M390.144 1445.72 L390.144 594.771 L433.307 594.771 L433.307 1445.72 L433.307 1445.72 L433.307 1445.72 L390.144 1445.72 L390.144 1445.72  Z" fill="#191970" fill-rule="evenodd" fill-opacity="0.626736"/>
<polyline clip-path="url(#clip782)" style="stroke:#000000; stroke-linecap:round; stroke-linejoin:round; stroke-width:4; stroke-opacity:1; fill:none" points="390.144,1445.72 390.144,594.771 433.307,594.771 433.307,1445.72 "/>
<path clip-path="url(#clip782)" d="M1080.75 1445.72 L1080.75 1424.5 L1123.91 1424.5 L1123.91 1445.72 L1123.91 1445.72 L1123.91 1445.72 L1080.75 1445.72 L1080.75 1445.72  Z" fill="#191970" fill-rule="evenodd" fill-opacity="0.015625"/>
<polyline clip-path="url(#clip782)" style="stroke:#000000; stroke-linecap:round; stroke-linejoin:round; stroke-width:4; stroke-opacity:1; fill:none" points="1080.75,1445.72 1080.75,1424.5 1123.91,1424.5 1123.91,1445.72 "/>
<path clip-path="url(#clip782)" d="M303.819 1445.72 L303.819 406.196 L346.981 406.196 L346.981 1445.72 L346.981 1445.72 L346.981 1445.72 L303.819 1445.72 L303.819 1445.72  Z" fill="#191970" fill-rule="evenodd" fill-opacity="0.765625"/>
<polyline clip-path="url(#clip782)" style="stroke:#000000; stroke-linecap:round; stroke-linejoin:round; stroke-width:4; stroke-opacity:1; fill:none" points="303.819,1445.72 303.819,406.196 346.981,406.196 346.981,1445.72 "/>
<path clip-path="url(#clip782)" d="M1512.38 1445.72 L1512.38 1330.21 L1555.54 1330.21 L1555.54 1445.72 L1555.54 1445.72 L1555.54 1445.72 L1512.38 1445.72 L1512.38 1445.72  Z" fill="#191970" fill-rule="evenodd" fill-opacity="0.0850694"/>
<polyline clip-path="url(#clip782)" style="stroke:#000000; stroke-linecap:round; stroke-linejoin:round; stroke-width:4; stroke-opacity:1; fill:none" points="1512.38,1445.72 1512.38,1330.21 1555.54,1330.21 1555.54,1445.72 "/>
<path clip-path="url(#clip782)" d="M1728.19 1445.72 L1728.19 1106.28 L1771.35 1106.28 L1771.35 1445.72 L1771.35 1445.72 L1771.35 1445.72 L1728.19 1445.72 L1728.19 1445.72  Z" fill="#191970" fill-rule="evenodd" fill-opacity="0.25"/>
<polyline clip-path="url(#clip782)" style="stroke:#000000; stroke-linecap:round; stroke-linejoin:round; stroke-width:4; stroke-opacity:1; fill:none" points="1728.19,1445.72 1728.19,1106.28 1771.35,1106.28 1771.35,1445.72 "/>
<path clip-path="url(#clip782)" d="M1900.84 1445.72 L1900.84 842.276 L1944 842.276 L1944 1445.72 L1944 1445.72 L1944 1445.72 L1900.84 1445.72 L1900.84 1445.72  Z" fill="#191970" fill-rule="evenodd" fill-opacity="0.444444"/>
<polyline clip-path="url(#clip782)" style="stroke:#000000; stroke-linecap:round; stroke-linejoin:round; stroke-width:4; stroke-opacity:1; fill:none" points="1900.84,1445.72 1900.84,842.276 1944,842.276 1944,1445.72 "/>
<path clip-path="url(#clip782)" d="M476.47 1445.72 L476.47 764.489 L519.632 764.489 L519.632 1445.72 L519.632 1445.72 L519.632 1445.72 L476.47 1445.72 L476.47 1445.72  Z" fill="#191970" fill-rule="evenodd" fill-opacity="0.501736"/>
<polyline clip-path="url(#clip782)" style="stroke:#000000; stroke-linecap:round; stroke-linejoin:round; stroke-width:4; stroke-opacity:1; fill:none" points="476.47,1445.72 476.47,764.489 519.632,764.489 519.632,1445.72 "/>
<path clip-path="url(#clip782)" d="M778.609 1445.72 L778.609 1210 L821.772 1210 L821.772 1445.72 L821.772 1445.72 L821.772 1445.72 L778.609 1445.72 L778.609 1445.72  Z" fill="#191970" fill-rule="evenodd" fill-opacity="0.173611"/>
<polyline clip-path="url(#clip782)" style="stroke:#000000; stroke-linecap:round; stroke-linejoin:round; stroke-width:4; stroke-opacity:1; fill:none" points="778.609,1445.72 778.609,1210 821.772,1210 821.772,1445.72 "/>
<path clip-path="url(#clip782)" d="M1037.59 1445.72 L1037.59 1408 L1080.75 1408 L1080.75 1445.72 L1080.75 1445.72 L1080.75 1445.72 L1037.59 1445.72 L1037.59 1445.72  Z" fill="#191970" fill-rule="evenodd" fill-opacity="0.0277778"/>
<polyline clip-path="url(#clip782)" style="stroke:#000000; stroke-linecap:round; stroke-linejoin:round; stroke-width:4; stroke-opacity:1; fill:none" points="1037.59,1445.72 1037.59,1408 1080.75,1408 1080.75,1445.72 "/>
<path clip-path="url(#clip782)" d="M1944 1445.72 L1944 764.489 L1987.17 764.489 L1987.17 1445.72 L1987.17 1445.72 L1987.17 1445.72 L1944 1445.72 L1944 1445.72  Z" fill="#191970" fill-rule="evenodd" fill-opacity="0.501736"/>
<polyline clip-path="url(#clip782)" style="stroke:#000000; stroke-linecap:round; stroke-linejoin:round; stroke-width:4; stroke-opacity:1; fill:none" points="1944,1445.72 1944,764.489 1987.17,764.489 1987.17,1445.72 "/>
<path clip-path="url(#clip782)" d="M2030.33 1445.72 L2030.33 594.771 L2073.49 594.771 L2073.49 1445.72 L2073.49 1445.72 L2073.49 1445.72 L2030.33 1445.72 L2030.33 1445.72  Z" fill="#191970" fill-rule="evenodd" fill-opacity="0.626736"/>
<polyline clip-path="url(#clip782)" style="stroke:#000000; stroke-linecap:round; stroke-linejoin:round; stroke-width:4; stroke-opacity:1; fill:none" points="2030.33,1445.72 2030.33,594.771 2073.49,594.771 2073.49,1445.72 "/>
<path clip-path="url(#clip782)" d="M217.493 1445.72 L217.493 198.764 L260.656 198.764 L260.656 1445.72 L260.656 1445.72 L260.656 1445.72 L217.493 1445.72 L217.493 1445.72  Z" fill="#191970" fill-rule="evenodd" fill-opacity="0.918403"/>
<polyline clip-path="url(#clip782)" style="stroke:#000000; stroke-linecap:round; stroke-linejoin:round; stroke-width:4; stroke-opacity:1; fill:none" points="217.493,1445.72 217.493,198.764 260.656,198.764 260.656,1445.72 "/>
<path clip-path="url(#clip782)" d="M2202.98 1445.72 L2202.98 198.764 L2246.14 198.764 L2246.14 1445.72 L2246.14 1445.72 L2246.14 1445.72 L2202.98 1445.72 L2202.98 1445.72  Z" fill="#191970" fill-rule="evenodd" fill-opacity="0.918403"/>
<polyline clip-path="url(#clip782)" style="stroke:#000000; stroke-linecap:round; stroke-linejoin:round; stroke-width:4; stroke-opacity:1; fill:none" points="2202.98,1445.72 2202.98,198.764 2246.14,198.764 2246.14,1445.72 "/>
<path clip-path="url(#clip782)" d="M1641.86 1445.72 L1641.86 1210 L1685.03 1210 L1685.03 1445.72 L1685.03 1445.72 L1685.03 1445.72 L1641.86 1445.72 L1641.86 1445.72  Z" fill="#191970" fill-rule="evenodd" fill-opacity="0.173611"/>
<polyline clip-path="url(#clip782)" style="stroke:#000000; stroke-linecap:round; stroke-linejoin:round; stroke-width:4; stroke-opacity:1; fill:none" points="1641.86,1445.72 1641.86,1210 1685.03,1210 1685.03,1445.72 "/>
<path clip-path="url(#clip782)" d="M908.098 1445.72 L908.098 1330.21 L951.26 1330.21 L951.26 1445.72 L951.26 1445.72 L951.26 1445.72 L908.098 1445.72 L908.098 1445.72  Z" fill="#191970" fill-rule="evenodd" fill-opacity="0.0850694"/>
<polyline clip-path="url(#clip782)" style="stroke:#000000; stroke-linecap:round; stroke-linejoin:round; stroke-width:4; stroke-opacity:1; fill:none" points="908.098,1445.72 908.098,1330.21 951.26,1330.21 951.26,1445.72 "/>
<path clip-path="url(#clip782)" d="M433.307 1445.72 L433.307 681.987 L476.47 681.987 L476.47 1445.72 L476.47 1445.72 L476.47 1445.72 L433.307 1445.72 L433.307 1445.72  Z" fill="#191970" fill-rule="evenodd" fill-opacity="0.5625"/>
<polyline clip-path="url(#clip782)" style="stroke:#000000; stroke-linecap:round; stroke-linejoin:round; stroke-width:4; stroke-opacity:1; fill:none" points="433.307,1445.72 433.307,681.987 476.47,681.987 476.47,1445.72 "/>
<path clip-path="url(#clip782)" d="M1339.73 1445.72 L1339.73 1424.5 L1382.89 1424.5 L1382.89 1445.72 L1382.89 1445.72 L1382.89 1445.72 L1339.73 1445.72 L1339.73 1445.72  Z" fill="#191970" fill-rule="evenodd" fill-opacity="0.015625"/>
<polyline clip-path="url(#clip782)" style="stroke:#000000; stroke-linecap:round; stroke-linejoin:round; stroke-width:4; stroke-opacity:1; fill:none" points="1339.73,1445.72 1339.73,1424.5 1382.89,1424.5 1382.89,1445.72 "/>
<path clip-path="url(#clip782)" d="M1253.4 1445.72 L1253.4 1443.36 L1296.56 1443.36 L1296.56 1445.72 L1296.56 1445.72 L1296.56 1445.72 L1253.4 1445.72 L1253.4 1445.72  Z" fill="#191970" fill-rule="evenodd" fill-opacity="0.00173611"/>
<polyline clip-path="url(#clip782)" style="stroke:#000000; stroke-linecap:round; stroke-linejoin:round; stroke-width:4; stroke-opacity:1; fill:none" points="1253.4,1445.72 1253.4,1443.36 1296.56,1443.36 1296.56,1445.72 "/>
<path clip-path="url(#clip782)" d="M562.795 1445.72 L562.795 915.349 L605.958 915.349 L605.958 1445.72 L605.958 1445.72 L605.958 1445.72 L562.795 1445.72 L562.795 1445.72  Z" fill="#191970" fill-rule="evenodd" fill-opacity="0.390625"/>
<polyline clip-path="url(#clip782)" style="stroke:#000000; stroke-linecap:round; stroke-linejoin:round; stroke-width:4; stroke-opacity:1; fill:none" points="562.795,1445.72 562.795,915.349 605.958,915.349 605.958,1445.72 "/>
<path clip-path="url(#clip782)" d="M735.446 1445.72 L735.446 1160.5 L778.609 1160.5 L778.609 1445.72 L778.609 1445.72 L778.609 1445.72 L735.446 1445.72 L735.446 1445.72  Z" fill="#191970" fill-rule="evenodd" fill-opacity="0.210069"/>
<polyline clip-path="url(#clip782)" style="stroke:#000000; stroke-linecap:round; stroke-linejoin:round; stroke-width:4; stroke-opacity:1; fill:none" points="735.446,1445.72 735.446,1160.5 778.609,1160.5 778.609,1445.72 "/>
<path clip-path="url(#clip782)" d="M1382.89 1445.72 L1382.89 1408 L1426.05 1408 L1426.05 1445.72 L1426.05 1445.72 L1426.05 1445.72 L1382.89 1445.72 L1382.89 1445.72  Z" fill="#191970" fill-rule="evenodd" fill-opacity="0.0277778"/>
<polyline clip-path="url(#clip782)" style="stroke:#000000; stroke-linecap:round; stroke-linejoin:round; stroke-width:4; stroke-opacity:1; fill:none" points="1382.89,1445.72 1382.89,1408 1426.05,1408 1426.05,1445.72 "/>
<path clip-path="url(#clip782)" d="M1814.52 1445.72 L1814.52 983.707 L1857.68 983.707 L1857.68 1445.72 L1857.68 1445.72 L1857.68 1445.72 L1814.52 1445.72 L1814.52 1445.72  Z" fill="#191970" fill-rule="evenodd" fill-opacity="0.340278"/>
<polyline clip-path="url(#clip782)" style="stroke:#000000; stroke-linecap:round; stroke-linejoin:round; stroke-width:4; stroke-opacity:1; fill:none" points="1814.52,1445.72 1814.52,983.707 1857.68,983.707 1857.68,1445.72 "/>
<path clip-path="url(#clip782)" d="M1296.56 1445.72 L1296.56 1436.29 L1339.73 1436.29 L1339.73 1445.72 L1339.73 1445.72 L1339.73 1445.72 L1296.56 1445.72 L1296.56 1445.72  Z" fill="#191970" fill-rule="evenodd" fill-opacity="0.00694444"/>
<polyline clip-path="url(#clip782)" style="stroke:#000000; stroke-linecap:round; stroke-linejoin:round; stroke-width:4; stroke-opacity:1; fill:none" points="1296.56,1445.72 1296.56,1436.29 1339.73,1436.29 1339.73,1445.72 "/>
<path clip-path="url(#clip782)" d="M692.284 1445.72 L692.284 1106.28 L735.446 1106.28 L735.446 1445.72 L735.446 1445.72 L735.446 1445.72 L692.284 1445.72 L692.284 1445.72  Z" fill="#191970" fill-rule="evenodd" fill-opacity="0.25"/>
<polyline clip-path="url(#clip782)" style="stroke:#000000; stroke-linecap:round; stroke-linejoin:round; stroke-width:4; stroke-opacity:1; fill:none" points="692.284,1445.72 692.284,1106.28 735.446,1106.28 735.446,1445.72 "/>
<path clip-path="url(#clip782)" d="M1426.05 1445.72 L1426.05 1386.79 L1469.21 1386.79 L1469.21 1445.72 L1469.21 1445.72 L1469.21 1445.72 L1426.05 1445.72 L1426.05 1445.72  Z" fill="#191970" fill-rule="evenodd" fill-opacity="0.0434028"/>
<polyline clip-path="url(#clip782)" style="stroke:#000000; stroke-linecap:round; stroke-linejoin:round; stroke-width:4; stroke-opacity:1; fill:none" points="1426.05,1445.72 1426.05,1386.79 1469.21,1386.79 1469.21,1445.72 "/>
<path clip-path="url(#clip782)" d="M994.423 1445.72 L994.423 1386.79 L1037.59 1386.79 L1037.59 1445.72 L1037.59 1445.72 L1037.59 1445.72 L994.423 1445.72 L994.423 1445.72  Z" fill="#191970" fill-rule="evenodd" fill-opacity="0.0434028"/>
<polyline clip-path="url(#clip782)" style="stroke:#000000; stroke-linecap:round; stroke-linejoin:round; stroke-width:4; stroke-opacity:1; fill:none" points="994.423,1445.72 994.423,1386.79 1037.59,1386.79 1037.59,1445.72 "/>
<path clip-path="url(#clip782)" d="M1987.17 1445.72 L1987.17 681.987 L2030.33 681.987 L2030.33 1445.72 L2030.33 1445.72 L2030.33 1445.72 L1987.17 1445.72 L1987.17 1445.72  Z" fill="#191970" fill-rule="evenodd" fill-opacity="0.5625"/>
<polyline clip-path="url(#clip782)" style="stroke:#000000; stroke-linecap:round; stroke-linejoin:round; stroke-width:4; stroke-opacity:1; fill:none" points="1987.17,1445.72 1987.17,681.987 2030.33,681.987 2030.33,1445.72 "/>
<path clip-path="url(#clip782)" d="M1210.24 1445.72 L1210.24 1445.72 L1253.4 1445.72 L1253.4 1445.72 L1253.4 1445.72 L1253.4 1445.72 L1210.24 1445.72 L1210.24 1445.72  Z" fill="#191970" fill-rule="evenodd" fill-opacity="0"/>
<polyline clip-path="url(#clip782)" style="stroke:#000000; stroke-linecap:round; stroke-linejoin:round; stroke-width:4; stroke-opacity:1; fill:none" points="1210.24,1445.72 1210.24,1445.72 1253.4,1445.72 "/>
<path clip-path="url(#clip782)" d="M174.33 1445.72 L174.33 87.9763 L217.493 87.9763 L217.493 1445.72 L217.493 1445.72 L217.493 1445.72 L174.33 1445.72 L174.33 1445.72  Z" fill="#191970" fill-rule="evenodd" fill-opacity="1"/>
<polyline clip-path="url(#clip782)" style="stroke:#000000; stroke-linecap:round; stroke-linejoin:round; stroke-width:4; stroke-opacity:1; fill:none" points="174.33,1445.72 174.33,87.9763 217.493,87.9763 217.493,1445.72 "/>
<path clip-path="url(#clip782)" d="M1123.91 1445.72 L1123.91 1436.29 L1167.07 1436.29 L1167.07 1445.72 L1167.07 1445.72 L1167.07 1445.72 L1123.91 1445.72 L1123.91 1445.72  Z" fill="#191970" fill-rule="evenodd" fill-opacity="0.00694444"/>
<polyline clip-path="url(#clip782)" style="stroke:#000000; stroke-linecap:round; stroke-linejoin:round; stroke-width:4; stroke-opacity:1; fill:none" points="1123.91,1445.72 1123.91,1436.29 1167.07,1436.29 1167.07,1445.72 "/>
<path clip-path="url(#clip782)" d="M260.656 1445.72 L260.656 304.837 L303.819 304.837 L303.819 1445.72 L303.819 1445.72 L303.819 1445.72 L260.656 1445.72 L260.656 1445.72  Z" fill="#191970" fill-rule="evenodd" fill-opacity="0.840278"/>
<polyline clip-path="url(#clip782)" style="stroke:#000000; stroke-linecap:round; stroke-linejoin:round; stroke-width:4; stroke-opacity:1; fill:none" points="260.656,1445.72 260.656,304.837 303.819,304.837 303.819,1445.72 "/>
<path clip-path="url(#clip782)" d="M864.935 1445.72 L864.935 1294.86 L908.098 1294.86 L908.098 1445.72 L908.098 1445.72 L908.098 1445.72 L864.935 1445.72 L864.935 1445.72  Z" fill="#191970" fill-rule="evenodd" fill-opacity="0.111111"/>
<polyline clip-path="url(#clip782)" style="stroke:#000000; stroke-linecap:round; stroke-linejoin:round; stroke-width:4; stroke-opacity:1; fill:none" points="864.935,1445.72 864.935,1294.86 908.098,1294.86 908.098,1445.72 "/>
<path clip-path="url(#clip782)" d="M1857.68 1445.72 L1857.68 915.349 L1900.84 915.349 L1900.84 1445.72 L1900.84 1445.72 L1900.84 1445.72 L1857.68 1445.72 L1857.68 1445.72  Z" fill="#191970" fill-rule="evenodd" fill-opacity="0.390625"/>
<polyline clip-path="url(#clip782)" style="stroke:#000000; stroke-linecap:round; stroke-linejoin:round; stroke-width:4; stroke-opacity:1; fill:none" points="1857.68,1445.72 1857.68,915.349 1900.84,915.349 1900.84,1445.72 "/>
<path clip-path="url(#clip782)" d="M1167.07 1445.72 L1167.07 1443.36 L1210.24 1443.36 L1210.24 1445.72 L1210.24 1445.72 L1210.24 1445.72 L1167.07 1445.72 L1167.07 1445.72  Z" fill="#191970" fill-rule="evenodd" fill-opacity="0.00173611"/>
<polyline clip-path="url(#clip782)" style="stroke:#000000; stroke-linecap:round; stroke-linejoin:round; stroke-width:4; stroke-opacity:1; fill:none" points="1167.07,1445.72 1167.07,1443.36 1210.24,1443.36 1210.24,1445.72 "/>
<path clip-path="url(#clip782)" d="M1469.21 1445.72 L1469.21 1360.86 L1512.38 1360.86 L1512.38 1445.72 L1512.38 1445.72 L1512.38 1445.72 L1469.21 1445.72 L1469.21 1445.72  Z" fill="#191970" fill-rule="evenodd" fill-opacity="0.0625"/>
<polyline clip-path="url(#clip782)" style="stroke:#000000; stroke-linecap:round; stroke-linejoin:round; stroke-width:4; stroke-opacity:1; fill:none" points="1469.21,1445.72 1469.21,1360.86 1512.38,1360.86 1512.38,1445.72 "/>
<path clip-path="url(#clip782)" d="M519.632 1445.72 L519.632 842.276 L562.795 842.276 L562.795 1445.72 L562.795 1445.72 L562.795 1445.72 L519.632 1445.72 L519.632 1445.72  Z" fill="#191970" fill-rule="evenodd" fill-opacity="0.444444"/>
<polyline clip-path="url(#clip782)" style="stroke:#000000; stroke-linecap:round; stroke-linejoin:round; stroke-width:4; stroke-opacity:1; fill:none" points="519.632,1445.72 519.632,842.276 562.795,842.276 562.795,1445.72 "/>
<path clip-path="url(#clip782)" d="M2246.14 1445.72 L2246.14 87.9763 L2289.31 87.9763 L2289.31 1445.72 L2289.31 1445.72 L2289.31 1445.72 L2246.14 1445.72 L2246.14 1445.72  Z" fill="#191970" fill-rule="evenodd" fill-opacity="1"/>
<polyline clip-path="url(#clip782)" style="stroke:#000000; stroke-linecap:round; stroke-linejoin:round; stroke-width:4; stroke-opacity:1; fill:none" points="2246.14,1445.72 2246.14,87.9763 2289.31,87.9763 2289.31,1445.72 "/>
<path clip-path="url(#clip782)" d="M1598.7 1445.72 L1598.7 1254.78 L1641.86 1254.78 L1641.86 1445.72 L1641.86 1445.72 L1641.86 1445.72 L1598.7 1445.72 L1598.7 1445.72  Z" fill="#191970" fill-rule="evenodd" fill-opacity="0.140625"/>
<polyline clip-path="url(#clip782)" style="stroke:#000000; stroke-linecap:round; stroke-linejoin:round; stroke-width:4; stroke-opacity:1; fill:none" points="1598.7,1445.72 1598.7,1254.78 1641.86,1254.78 1641.86,1445.72 "/>
<path clip-path="url(#clip782)" d="M951.26 1445.72 L951.26 1360.86 L994.423 1360.86 L994.423 1445.72 L994.423 1445.72 L994.423 1445.72 L951.26 1445.72 L951.26 1445.72  Z" fill="#191970" fill-rule="evenodd" fill-opacity="0.0625"/>
<polyline clip-path="url(#clip782)" style="stroke:#000000; stroke-linecap:round; stroke-linejoin:round; stroke-width:4; stroke-opacity:1; fill:none" points="951.26,1445.72 951.26,1360.86 994.423,1360.86 994.423,1445.72 "/>
<path clip-path="url(#clip782)" d="M1685.03 1445.72 L1685.03 1160.5 L1728.19 1160.5 L1728.19 1445.72 L1728.19 1445.72 L1728.19 1445.72 L1685.03 1445.72 L1685.03 1445.72  Z" fill="#191970" fill-rule="evenodd" fill-opacity="0.210069"/>
<polyline clip-path="url(#clip782)" style="stroke:#000000; stroke-linecap:round; stroke-linejoin:round; stroke-width:4; stroke-opacity:1; fill:none" points="1685.03,1445.72 1685.03,1160.5 1728.19,1160.5 1728.19,1445.72 "/>
<path clip-path="url(#clip782)" d="M821.772 1445.72 L821.772 1254.78 L864.935 1254.78 L864.935 1445.72 L864.935 1445.72 L864.935 1445.72 L821.772 1445.72 L821.772 1445.72  Z" fill="#191970" fill-rule="evenodd" fill-opacity="0.140625"/>
<polyline clip-path="url(#clip782)" style="stroke:#000000; stroke-linecap:round; stroke-linejoin:round; stroke-width:4; stroke-opacity:1; fill:none" points="821.772,1445.72 821.772,1254.78 864.935,1254.78 864.935,1445.72 "/>
<path clip-path="url(#clip782)" d="M649.121 1445.72 L649.121 1047.35 L692.284 1047.35 L692.284 1445.72 L692.284 1445.72 L692.284 1445.72 L649.121 1445.72 L649.121 1445.72  Z" fill="#191970" fill-rule="evenodd" fill-opacity="0.293403"/>
<polyline clip-path="url(#clip782)" style="stroke:#000000; stroke-linecap:round; stroke-linejoin:round; stroke-width:4; stroke-opacity:1; fill:none" points="649.121,1445.72 649.121,1047.35 692.284,1047.35 692.284,1445.72 "/>
<path clip-path="url(#clip782)" d="M2073.49 1445.72 L2073.49 502.841 L2116.66 502.841 L2116.66 1445.72 L2116.66 1445.72 L2116.66 1445.72 L2073.49 1445.72 L2073.49 1445.72  Z" fill="#191970" fill-rule="evenodd" fill-opacity="0.694444"/>
<polyline clip-path="url(#clip782)" style="stroke:#000000; stroke-linecap:round; stroke-linejoin:round; stroke-width:4; stroke-opacity:1; fill:none" points="2073.49,1445.72 2073.49,502.841 2116.66,502.841 2116.66,1445.72 "/>
<path clip-path="url(#clip782)" d="M346.981 1445.72 L346.981 502.841 L390.144 502.841 L390.144 1445.72 L390.144 1445.72 L390.144 1445.72 L346.981 1445.72 L346.981 1445.72  Z" fill="#191970" fill-rule="evenodd" fill-opacity="0.694444"/>
<polyline clip-path="url(#clip782)" style="stroke:#000000; stroke-linecap:round; stroke-linejoin:round; stroke-width:4; stroke-opacity:1; fill:none" points="346.981,1445.72 346.981,502.841 390.144,502.841 390.144,1445.72 "/>
<path clip-path="url(#clip782)" d="M2116.66 1445.72 L2116.66 406.196 L2159.82 406.196 L2159.82 1445.72 L2159.82 1445.72 L2159.82 1445.72 L2116.66 1445.72 L2116.66 1445.72  Z" fill="#191970" fill-rule="evenodd" fill-opacity="0.765625"/>
<polyline clip-path="url(#clip782)" style="stroke:#000000; stroke-linecap:round; stroke-linejoin:round; stroke-width:4; stroke-opacity:1; fill:none" points="2116.66,1445.72 2116.66,406.196 2159.82,406.196 2159.82,1445.72 "/>
<path clip-path="url(#clip782)" d="M1555.54 1445.72 L1555.54 1294.86 L1598.7 1294.86 L1598.7 1445.72 L1598.7 1445.72 L1598.7 1445.72 L1555.54 1445.72 L1555.54 1445.72  Z" fill="#191970" fill-rule="evenodd" fill-opacity="0.111111"/>
<polyline clip-path="url(#clip782)" style="stroke:#000000; stroke-linecap:round; stroke-linejoin:round; stroke-width:4; stroke-opacity:1; fill:none" points="1555.54,1445.72 1555.54,1294.86 1598.7,1294.86 1598.7,1445.72 "/>
<path clip-path="url(#clip782)" d="M605.958 1445.72 L605.958 983.707 L649.121 983.707 L649.121 1445.72 L649.121 1445.72 L649.121 1445.72 L605.958 1445.72 L605.958 1445.72  Z" fill="#191970" fill-rule="evenodd" fill-opacity="0.340278"/>
<polyline clip-path="url(#clip782)" style="stroke:#000000; stroke-linecap:round; stroke-linejoin:round; stroke-width:4; stroke-opacity:1; fill:none" points="605.958,1445.72 605.958,983.707 649.121,983.707 649.121,1445.72 "/>
</svg>
