<?xml version="1.0" encoding="utf-8"?>
<svg xmlns="http://www.w3.org/2000/svg" xmlns:xlink="http://www.w3.org/1999/xlink" width="600" height="400" viewBox="0 0 2400 1600">
<defs>
  <clipPath id="clip500">
    <rect x="0" y="0" width="2400" height="1600"/>
  </clipPath>
</defs>
<path clip-path="url(#clip500)" d="M0 1600 L2400 1600 L2400 0 L0 0  Z" fill="#ffffff" fill-rule="evenodd" fill-opacity="1"/>
<defs>
  <clipPath id="clip501">
    <rect x="480" y="0" width="1681" height="1600"/>
  </clipPath>
</defs>
<path clip-path="url(#clip500)" d="M193.936 1486.45 L2352.76 1486.45 L2352.76 47.2441 L193.936 47.2441  Z" fill="#ffffff" fill-rule="evenodd" fill-opacity="1"/>
<defs>
  <clipPath id="clip502">
    <rect x="193" y="47" width="2160" height="1440"/>
  </clipPath>
</defs>
<polyline clip-path="url(#clip502)" style="stroke:#000000; stroke-linecap:round; stroke-linejoin:round; stroke-width:2; stroke-opacity:0.1; fill:none" points="255.035,1486.45 255.035,47.2441 "/>
<polyline clip-path="url(#clip502)" style="stroke:#000000; stroke-linecap:round; stroke-linejoin:round; stroke-width:2; stroke-opacity:0.1; fill:none" points="579.173,1486.45 579.173,47.2441 "/>
<polyline clip-path="url(#clip502)" style="stroke:#000000; stroke-linecap:round; stroke-linejoin:round; stroke-width:2; stroke-opacity:0.1; fill:none" points="903.312,1486.45 903.312,47.2441 "/>
<polyline clip-path="url(#clip502)" style="stroke:#000000; stroke-linecap:round; stroke-linejoin:round; stroke-width:2; stroke-opacity:0.1; fill:none" points="1227.45,1486.45 1227.45,47.2441 "/>
<polyline clip-path="url(#clip502)" style="stroke:#000000; stroke-linecap:round; stroke-linejoin:round; stroke-width:2; stroke-opacity:0.1; fill:none" points="1551.59,1486.45 1551.59,47.2441 "/>
<polyline clip-path="url(#clip502)" style="stroke:#000000; stroke-linecap:round; stroke-linejoin:round; stroke-width:2; stroke-opacity:0.1; fill:none" points="1875.73,1486.45 1875.73,47.2441 "/>
<polyline clip-path="url(#clip502)" style="stroke:#000000; stroke-linecap:round; stroke-linejoin:round; stroke-width:2; stroke-opacity:0.1; fill:none" points="2199.87,1486.45 2199.87,47.2441 "/>
<polyline clip-path="url(#clip500)" style="stroke:#000000; stroke-linecap:round; stroke-linejoin:round; stroke-width:4; stroke-opacity:1; fill:none" points="193.936,1486.45 2352.76,1486.45 "/>
<polyline clip-path="url(#clip500)" style="stroke:#000000; stroke-linecap:round; stroke-linejoin:round; stroke-width:4; stroke-opacity:1; fill:none" points="255.035,1486.45 255.035,1467.55 "/>
<polyline clip-path="url(#clip500)" style="stroke:#000000; stroke-linecap:round; stroke-linejoin:round; stroke-width:4; stroke-opacity:1; fill:none" points="579.173,1486.45 579.173,1467.55 "/>
<polyline clip-path="url(#clip500)" style="stroke:#000000; stroke-linecap:round; stroke-linejoin:round; stroke-width:4; stroke-opacity:1; fill:none" points="903.312,1486.45 903.312,1467.55 "/>
<polyline clip-path="url(#clip500)" style="stroke:#000000; stroke-linecap:round; stroke-linejoin:round; stroke-width:4; stroke-opacity:1; fill:none" points="1227.45,1486.45 1227.45,1467.55 "/>
<polyline clip-path="url(#clip500)" style="stroke:#000000; stroke-linecap:round; stroke-linejoin:round; stroke-width:4; stroke-opacity:1; fill:none" points="1551.59,1486.45 1551.59,1467.55 "/>
<polyline clip-path="url(#clip500)" style="stroke:#000000; stroke-linecap:round; stroke-linejoin:round; stroke-width:4; stroke-opacity:1; fill:none" points="1875.73,1486.45 1875.73,1467.55 "/>
<polyline clip-path="url(#clip500)" style="stroke:#000000; stroke-linecap:round; stroke-linejoin:round; stroke-width:4; stroke-opacity:1; fill:none" points="2199.87,1486.45 2199.87,1467.55 "/>
<path clip-path="url(#clip500)" d="M255.035 1517.37 Q251.424 1517.37 249.595 1520.93 Q247.789 1524.47 247.789 1531.6 Q247.789 1538.71 249.595 1542.27 Q251.424 1545.82 255.035 1545.82 Q258.669 1545.82 260.474 1542.27 Q262.303 1538.71 262.303 1531.6 Q262.303 1524.47 260.474 1520.93 Q258.669 1517.37 255.035 1517.37 M255.035 1513.66 Q260.845 1513.66 263.9 1518.27 Q266.979 1522.85 266.979 1531.6 Q266.979 1540.33 263.9 1544.94 Q260.845 1549.52 255.035 1549.52 Q249.225 1549.52 246.146 1544.94 Q243.09 1540.33 243.09 1531.6 Q243.09 1522.85 246.146 1518.27 Q249.225 1513.66 255.035 1513.66 Z" fill="#000000" fill-rule="nonzero" fill-opacity="1" /><path clip-path="url(#clip500)" d="M569.555 1544.91 L577.194 1544.91 L577.194 1518.55 L568.884 1520.21 L568.884 1515.95 L577.148 1514.29 L581.824 1514.29 L581.824 1544.91 L589.463 1544.91 L589.463 1548.85 L569.555 1548.85 L569.555 1544.91 Z" fill="#000000" fill-rule="nonzero" fill-opacity="1" /><path clip-path="url(#clip500)" d="M897.965 1544.91 L914.284 1544.91 L914.284 1548.85 L892.34 1548.85 L892.34 1544.91 Q895.002 1542.16 899.585 1537.53 Q904.191 1532.88 905.372 1531.53 Q907.617 1529.01 908.497 1527.27 Q909.4 1525.51 909.4 1523.82 Q909.4 1521.07 907.455 1519.33 Q905.534 1517.6 902.432 1517.6 Q900.233 1517.6 897.779 1518.36 Q895.349 1519.13 892.571 1520.68 L892.571 1515.95 Q895.395 1514.82 897.849 1514.24 Q900.303 1513.66 902.34 1513.66 Q907.71 1513.66 910.904 1516.35 Q914.099 1519.03 914.099 1523.52 Q914.099 1525.65 913.289 1527.57 Q912.502 1529.47 910.395 1532.07 Q909.816 1532.74 906.715 1535.95 Q903.613 1539.15 897.965 1544.91 Z" fill="#000000" fill-rule="nonzero" fill-opacity="1" /><path clip-path="url(#clip500)" d="M1231.7 1530.21 Q1235.05 1530.93 1236.93 1533.2 Q1238.83 1535.47 1238.83 1538.8 Q1238.83 1543.92 1235.31 1546.72 Q1231.79 1549.52 1225.31 1549.52 Q1223.13 1549.52 1220.82 1549.08 Q1218.53 1548.66 1216.07 1547.81 L1216.07 1543.29 Q1218.02 1544.43 1220.33 1545.01 Q1222.65 1545.58 1225.17 1545.58 Q1229.57 1545.58 1231.86 1543.85 Q1234.17 1542.11 1234.17 1538.8 Q1234.17 1535.75 1232.02 1534.03 Q1229.89 1532.3 1226.07 1532.3 L1222.05 1532.3 L1222.05 1528.45 L1226.26 1528.45 Q1229.71 1528.45 1231.54 1527.09 Q1233.36 1525.7 1233.36 1523.11 Q1233.36 1520.45 1231.47 1519.03 Q1229.59 1517.6 1226.07 1517.6 Q1224.15 1517.6 1221.95 1518.01 Q1219.75 1518.43 1217.11 1519.31 L1217.11 1515.14 Q1219.78 1514.4 1222.09 1514.03 Q1224.43 1513.66 1226.49 1513.66 Q1231.81 1513.66 1234.92 1516.09 Q1238.02 1518.5 1238.02 1522.62 Q1238.02 1525.49 1236.37 1527.48 Q1234.73 1529.45 1231.7 1530.21 Z" fill="#000000" fill-rule="nonzero" fill-opacity="1" /><path clip-path="url(#clip500)" d="M1554.6 1518.36 L1542.79 1536.81 L1554.6 1536.81 L1554.6 1518.36 M1553.37 1514.29 L1559.25 1514.29 L1559.25 1536.81 L1564.18 1536.81 L1564.18 1540.7 L1559.25 1540.7 L1559.25 1548.85 L1554.6 1548.85 L1554.6 1540.7 L1539 1540.7 L1539 1536.19 L1553.37 1514.29 Z" fill="#000000" fill-rule="nonzero" fill-opacity="1" /><path clip-path="url(#clip500)" d="M1866.01 1514.29 L1884.36 1514.29 L1884.36 1518.22 L1870.29 1518.22 L1870.29 1526.7 Q1871.31 1526.35 1872.32 1526.19 Q1873.34 1526 1874.36 1526 Q1880.15 1526 1883.53 1529.17 Q1886.91 1532.34 1886.91 1537.76 Q1886.91 1543.34 1883.44 1546.44 Q1879.96 1549.52 1873.64 1549.52 Q1871.47 1549.52 1869.2 1549.15 Q1866.95 1548.78 1864.55 1548.04 L1864.55 1543.34 Q1866.63 1544.47 1868.85 1545.03 Q1871.07 1545.58 1873.55 1545.58 Q1877.56 1545.58 1879.89 1543.48 Q1882.23 1541.37 1882.23 1537.76 Q1882.23 1534.15 1879.89 1532.04 Q1877.56 1529.94 1873.55 1529.94 Q1871.68 1529.94 1869.8 1530.35 Q1867.95 1530.77 1866.01 1531.65 L1866.01 1514.29 Z" fill="#000000" fill-rule="nonzero" fill-opacity="1" /><path clip-path="url(#clip500)" d="M2200.27 1529.7 Q2197.12 1529.7 2195.27 1531.86 Q2193.44 1534.01 2193.44 1537.76 Q2193.44 1541.49 2195.27 1543.66 Q2197.12 1545.82 2200.27 1545.82 Q2203.42 1545.82 2205.25 1543.66 Q2207.1 1541.49 2207.1 1537.76 Q2207.1 1534.01 2205.25 1531.86 Q2203.42 1529.7 2200.27 1529.7 M2209.55 1515.05 L2209.55 1519.31 Q2207.79 1518.48 2205.99 1518.04 Q2204.21 1517.6 2202.45 1517.6 Q2197.82 1517.6 2195.36 1520.72 Q2192.93 1523.85 2192.59 1530.17 Q2193.95 1528.15 2196.01 1527.09 Q2198.07 1526 2200.55 1526 Q2205.76 1526 2208.77 1529.17 Q2211.8 1532.32 2211.8 1537.76 Q2211.8 1543.08 2208.65 1546.3 Q2205.5 1549.52 2200.27 1549.52 Q2194.28 1549.52 2191.1 1544.94 Q2187.93 1540.33 2187.93 1531.6 Q2187.93 1523.41 2191.82 1518.55 Q2195.71 1513.66 2202.26 1513.66 Q2204.02 1513.66 2205.8 1514.01 Q2207.61 1514.36 2209.55 1515.05 Z" fill="#000000" fill-rule="nonzero" fill-opacity="1" /><polyline clip-path="url(#clip502)" style="stroke:#000000; stroke-linecap:round; stroke-linejoin:round; stroke-width:2; stroke-opacity:0.1; fill:none" points="193.936,1448.04 2352.76,1448.04 "/>
<polyline clip-path="url(#clip502)" style="stroke:#000000; stroke-linecap:round; stroke-linejoin:round; stroke-width:2; stroke-opacity:0.1; fill:none" points="193.936,1107.44 2352.76,1107.44 "/>
<polyline clip-path="url(#clip502)" style="stroke:#000000; stroke-linecap:round; stroke-linejoin:round; stroke-width:2; stroke-opacity:0.1; fill:none" points="193.936,766.846 2352.76,766.846 "/>
<polyline clip-path="url(#clip502)" style="stroke:#000000; stroke-linecap:round; stroke-linejoin:round; stroke-width:2; stroke-opacity:0.1; fill:none" points="193.936,426.248 2352.76,426.248 "/>
<polyline clip-path="url(#clip502)" style="stroke:#000000; stroke-linecap:round; stroke-linejoin:round; stroke-width:2; stroke-opacity:0.1; fill:none" points="193.936,85.6496 2352.76,85.6496 "/>
<polyline clip-path="url(#clip500)" style="stroke:#000000; stroke-linecap:round; stroke-linejoin:round; stroke-width:4; stroke-opacity:1; fill:none" points="193.936,1486.45 193.936,47.2441 "/>
<polyline clip-path="url(#clip500)" style="stroke:#000000; stroke-linecap:round; stroke-linejoin:round; stroke-width:4; stroke-opacity:1; fill:none" points="193.936,1448.04 212.834,1448.04 "/>
<polyline clip-path="url(#clip500)" style="stroke:#000000; stroke-linecap:round; stroke-linejoin:round; stroke-width:4; stroke-opacity:1; fill:none" points="193.936,1107.44 212.834,1107.44 "/>
<polyline clip-path="url(#clip500)" style="stroke:#000000; stroke-linecap:round; stroke-linejoin:round; stroke-width:4; stroke-opacity:1; fill:none" points="193.936,766.846 212.834,766.846 "/>
<polyline clip-path="url(#clip500)" style="stroke:#000000; stroke-linecap:round; stroke-linejoin:round; stroke-width:4; stroke-opacity:1; fill:none" points="193.936,426.248 212.834,426.248 "/>
<polyline clip-path="url(#clip500)" style="stroke:#000000; stroke-linecap:round; stroke-linejoin:round; stroke-width:4; stroke-opacity:1; fill:none" points="193.936,85.6496 212.834,85.6496 "/>
<path clip-path="url(#clip500)" d="M50.9921 1448.49 L80.6679 1448.49 L80.6679 1452.43 L50.9921 1452.43 L50.9921 1448.49 Z" fill="#000000" fill-rule="nonzero" fill-opacity="1" /><path clip-path="url(#clip500)" d="M91.5706 1461.39 L99.2095 1461.39 L99.2095 1435.02 L90.8993 1436.69 L90.8993 1432.43 L99.1632 1430.76 L103.839 1430.76 L103.839 1461.39 L111.478 1461.39 L111.478 1465.32 L91.5706 1465.32 L91.5706 1461.39 Z" fill="#000000" fill-rule="nonzero" fill-opacity="1" /><path clip-path="url(#clip500)" d="M120.922 1459.44 L125.807 1459.44 L125.807 1465.32 L120.922 1465.32 L120.922 1459.44 Z" fill="#000000" fill-rule="nonzero" fill-opacity="1" /><path clip-path="url(#clip500)" d="M145.992 1433.84 Q142.381 1433.84 140.552 1437.41 Q138.746 1440.95 138.746 1448.08 Q138.746 1455.18 140.552 1458.75 Q142.381 1462.29 145.992 1462.29 Q149.626 1462.29 151.431 1458.75 Q153.26 1455.18 153.26 1448.08 Q153.26 1440.95 151.431 1437.41 Q149.626 1433.84 145.992 1433.84 M145.992 1430.14 Q151.802 1430.14 154.857 1434.74 Q157.936 1439.33 157.936 1448.08 Q157.936 1456.8 154.857 1461.41 Q151.802 1465.99 145.992 1465.99 Q140.181 1465.99 137.103 1461.41 Q134.047 1456.8 134.047 1448.08 Q134.047 1439.33 137.103 1434.74 Q140.181 1430.14 145.992 1430.14 Z" fill="#000000" fill-rule="nonzero" fill-opacity="1" /><path clip-path="url(#clip500)" d="M51.9875 1107.9 L81.6633 1107.9 L81.6633 1111.83 L51.9875 1111.83 L51.9875 1107.9 Z" fill="#000000" fill-rule="nonzero" fill-opacity="1" /><path clip-path="url(#clip500)" d="M101.756 1093.24 Q98.1447 1093.24 96.316 1096.81 Q94.5104 1100.35 94.5104 1107.48 Q94.5104 1114.59 96.316 1118.15 Q98.1447 1121.69 101.756 1121.69 Q105.39 1121.69 107.196 1118.15 Q109.024 1114.59 109.024 1107.48 Q109.024 1100.35 107.196 1096.81 Q105.39 1093.24 101.756 1093.24 M101.756 1089.54 Q107.566 1089.54 110.621 1094.15 Q113.7 1098.73 113.7 1107.48 Q113.7 1116.21 110.621 1120.81 Q107.566 1125.4 101.756 1125.4 Q95.9456 1125.4 92.8669 1120.81 Q89.8114 1116.21 89.8114 1107.48 Q89.8114 1098.73 92.8669 1094.15 Q95.9456 1089.54 101.756 1089.54 Z" fill="#000000" fill-rule="nonzero" fill-opacity="1" /><path clip-path="url(#clip500)" d="M121.918 1118.84 L126.802 1118.84 L126.802 1124.72 L121.918 1124.72 L121.918 1118.84 Z" fill="#000000" fill-rule="nonzero" fill-opacity="1" /><path clip-path="url(#clip500)" d="M137.033 1090.16 L155.39 1090.16 L155.39 1094.1 L141.316 1094.1 L141.316 1102.57 Q142.334 1102.22 143.353 1102.06 Q144.371 1101.88 145.39 1101.88 Q151.177 1101.88 154.556 1105.05 Q157.936 1108.22 157.936 1113.64 Q157.936 1119.21 154.464 1122.32 Q150.992 1125.4 144.672 1125.4 Q142.496 1125.4 140.228 1125.03 Q137.982 1124.65 135.575 1123.91 L135.575 1119.21 Q137.658 1120.35 139.881 1120.9 Q142.103 1121.46 144.58 1121.46 Q148.584 1121.46 150.922 1119.35 Q153.26 1117.25 153.26 1113.64 Q153.26 1110.03 150.922 1107.92 Q148.584 1105.81 144.58 1105.81 Q142.705 1105.81 140.83 1106.23 Q138.978 1106.65 137.033 1107.53 L137.033 1090.16 Z" fill="#000000" fill-rule="nonzero" fill-opacity="1" /><path clip-path="url(#clip500)" d="M100.76 752.645 Q97.1493 752.645 95.3206 756.209 Q93.515 759.751 93.515 766.881 Q93.515 773.987 95.3206 777.552 Q97.1493 781.094 100.76 781.094 Q104.395 781.094 106.2 777.552 Q108.029 773.987 108.029 766.881 Q108.029 759.751 106.2 756.209 Q104.395 752.645 100.76 752.645 M100.76 748.941 Q106.571 748.941 109.626 753.547 Q112.705 758.131 112.705 766.881 Q112.705 775.608 109.626 780.214 Q106.571 784.797 100.76 784.797 Q94.9502 784.797 91.8715 780.214 Q88.816 775.608 88.816 766.881 Q88.816 758.131 91.8715 753.547 Q94.9502 748.941 100.76 748.941 Z" fill="#000000" fill-rule="nonzero" fill-opacity="1" /><path clip-path="url(#clip500)" d="M120.922 778.246 L125.807 778.246 L125.807 784.126 L120.922 784.126 L120.922 778.246 Z" fill="#000000" fill-rule="nonzero" fill-opacity="1" /><path clip-path="url(#clip500)" d="M145.992 752.645 Q142.381 752.645 140.552 756.209 Q138.746 759.751 138.746 766.881 Q138.746 773.987 140.552 777.552 Q142.381 781.094 145.992 781.094 Q149.626 781.094 151.431 777.552 Q153.26 773.987 153.26 766.881 Q153.26 759.751 151.431 756.209 Q149.626 752.645 145.992 752.645 M145.992 748.941 Q151.802 748.941 154.857 753.547 Q157.936 758.131 157.936 766.881 Q157.936 775.608 154.857 780.214 Q151.802 784.797 145.992 784.797 Q140.181 784.797 137.103 780.214 Q134.047 775.608 134.047 766.881 Q134.047 758.131 137.103 753.547 Q140.181 748.941 145.992 748.941 Z" fill="#000000" fill-rule="nonzero" fill-opacity="1" /><path clip-path="url(#clip500)" d="M101.756 412.047 Q98.1447 412.047 96.316 415.611 Q94.5104 419.153 94.5104 426.283 Q94.5104 433.389 96.316 436.954 Q98.1447 440.495 101.756 440.495 Q105.39 440.495 107.196 436.954 Q109.024 433.389 109.024 426.283 Q109.024 419.153 107.196 415.611 Q105.39 412.047 101.756 412.047 M101.756 408.343 Q107.566 408.343 110.621 412.949 Q113.7 417.533 113.7 426.283 Q113.7 435.009 110.621 439.616 Q107.566 444.199 101.756 444.199 Q95.9456 444.199 92.8669 439.616 Q89.8114 435.009 89.8114 426.283 Q89.8114 417.533 92.8669 412.949 Q95.9456 408.343 101.756 408.343 Z" fill="#000000" fill-rule="nonzero" fill-opacity="1" /><path clip-path="url(#clip500)" d="M121.918 437.648 L126.802 437.648 L126.802 443.528 L121.918 443.528 L121.918 437.648 Z" fill="#000000" fill-rule="nonzero" fill-opacity="1" /><path clip-path="url(#clip500)" d="M137.033 408.968 L155.39 408.968 L155.39 412.903 L141.316 412.903 L141.316 421.375 Q142.334 421.028 143.353 420.866 Q144.371 420.681 145.39 420.681 Q151.177 420.681 154.556 423.852 Q157.936 427.023 157.936 432.44 Q157.936 438.019 154.464 441.12 Q150.992 444.199 144.672 444.199 Q142.496 444.199 140.228 443.829 Q137.982 443.458 135.575 442.718 L135.575 438.019 Q137.658 439.153 139.881 439.708 Q142.103 440.264 144.58 440.264 Q148.584 440.264 150.922 438.157 Q153.26 436.051 153.26 432.44 Q153.26 428.829 150.922 426.722 Q148.584 424.616 144.58 424.616 Q142.705 424.616 140.83 425.033 Q138.978 425.449 137.033 426.329 L137.033 408.968 Z" fill="#000000" fill-rule="nonzero" fill-opacity="1" /><path clip-path="url(#clip500)" d="M91.5706 98.9945 L99.2095 98.9945 L99.2095 72.6289 L90.8993 74.2955 L90.8993 70.0363 L99.1632 68.3696 L103.839 68.3696 L103.839 98.9945 L111.478 98.9945 L111.478 102.93 L91.5706 102.93 L91.5706 98.9945 Z" fill="#000000" fill-rule="nonzero" fill-opacity="1" /><path clip-path="url(#clip500)" d="M120.922 97.05 L125.807 97.05 L125.807 102.93 L120.922 102.93 L120.922 97.05 Z" fill="#000000" fill-rule="nonzero" fill-opacity="1" /><path clip-path="url(#clip500)" d="M145.992 71.4483 Q142.381 71.4483 140.552 75.0131 Q138.746 78.5548 138.746 85.6844 Q138.746 92.7908 140.552 96.3556 Q142.381 99.8973 145.992 99.8973 Q149.626 99.8973 151.431 96.3556 Q153.26 92.7908 153.26 85.6844 Q153.26 78.5548 151.431 75.0131 Q149.626 71.4483 145.992 71.4483 M145.992 67.7446 Q151.802 67.7446 154.857 72.3511 Q157.936 76.9344 157.936 85.6844 Q157.936 94.4112 154.857 99.0176 Q151.802 103.601 145.992 103.601 Q140.181 103.601 137.103 99.0176 Q134.047 94.4112 134.047 85.6844 Q134.047 76.9344 137.103 72.3511 Q140.181 67.7446 145.992 67.7446 Z" fill="#000000" fill-rule="nonzero" fill-opacity="1" /><path clip-path="url(#clip502)" d="M1862.89 766.846 L1862.89 1390.67 L1970.09 1390.67 L1970.09 766.846 L1970.09 766.846 L1970.09 766.846 L1862.89 766.846 L1862.89 766.846  Z" fill="#062a47" fill-rule="evenodd" fill-opacity="1"/>
<polyline clip-path="url(#clip502)" style="stroke:#000000; stroke-linecap:round; stroke-linejoin:round; stroke-width:4; stroke-opacity:1; fill:none" points="1862.89,766.846 1862.89,1390.67 1970.09,1390.67 1970.09,766.846 "/>
<path clip-path="url(#clip502)" d="M469.416 766.846 L469.416 265.674 L576.607 265.674 L576.607 766.846 L576.607 766.846 L576.607 766.846 L469.416 766.846 L469.416 766.846  Z" fill="#f9c240" fill-rule="evenodd" fill-opacity="1"/>
<polyline clip-path="url(#clip502)" style="stroke:#000000; stroke-linecap:round; stroke-linejoin:round; stroke-width:4; stroke-opacity:1; fill:none" points="469.416,766.846 469.416,265.674 576.607,265.674 576.607,766.846 "/>
<path clip-path="url(#clip502)" d="M255.035 766.846 L255.035 654.725 L362.225 654.725 L362.225 766.846 L362.225 766.846 L362.225 766.846 L255.035 766.846 L255.035 766.846  Z" fill="#cf6970" fill-rule="evenodd" fill-opacity="1"/>
<polyline clip-path="url(#clip502)" style="stroke:#000000; stroke-linecap:round; stroke-linejoin:round; stroke-width:4; stroke-opacity:1; fill:none" points="255.035,766.846 255.035,654.725 362.225,654.725 362.225,766.846 "/>
<path clip-path="url(#clip502)" d="M1541.32 766.846 L1541.32 1337.12 L1648.51 1337.12 L1648.51 766.846 L1648.51 766.846 L1648.51 766.846 L1541.32 766.846 L1541.32 766.846  Z" fill="#0b2f5e" fill-rule="evenodd" fill-opacity="1"/>
<polyline clip-path="url(#clip502)" style="stroke:#000000; stroke-linecap:round; stroke-linejoin:round; stroke-width:4; stroke-opacity:1; fill:none" points="1541.32,766.846 1541.32,1337.12 1648.51,1337.12 1648.51,766.846 "/>
<path clip-path="url(#clip502)" d="M2077.28 766.846 L2077.28 1091.06 L2184.47 1091.06 L2184.47 766.846 L2184.47 766.846 L2184.47 766.846 L2077.28 766.846 L2077.28 766.846  Z" fill="#5a3d9a" fill-rule="evenodd" fill-opacity="1"/>
<polyline clip-path="url(#clip502)" style="stroke:#000000; stroke-linecap:round; stroke-linejoin:round; stroke-width:4; stroke-opacity:1; fill:none" points="2077.28,766.846 2077.28,1091.06 2184.47,1091.06 2184.47,766.846 "/>
<path clip-path="url(#clip502)" d="M790.988 766.846 L790.988 106.494 L898.179 106.494 L898.179 766.846 L898.179 766.846 L898.179 766.846 L790.988 766.846 L790.988 766.846  Z" fill="#eaf457" fill-rule="evenodd" fill-opacity="1"/>
<polyline clip-path="url(#clip502)" style="stroke:#000000; stroke-linecap:round; stroke-linejoin:round; stroke-width:4; stroke-opacity:1; fill:none" points="790.988,766.846 790.988,106.494 898.179,106.494 898.179,766.846 "/>
<path clip-path="url(#clip502)" d="M898.179 766.846 L898.179 196.571 L1005.37 196.571 L1005.37 766.846 L1005.37 766.846 L1005.37 766.846 L898.179 766.846 L898.179 766.846  Z" fill="#f5d748" fill-rule="evenodd" fill-opacity="1"/>
<polyline clip-path="url(#clip502)" style="stroke:#000000; stroke-linecap:round; stroke-linejoin:round; stroke-width:4; stroke-opacity:1; fill:none" points="898.179,766.846 898.179,196.571 1005.37,196.571 1005.37,766.846 "/>
<path clip-path="url(#clip502)" d="M1005.37 766.846 L1005.37 348.447 L1112.56 348.447 L1112.56 766.846 L1112.56 766.846 L1112.56 766.846 L1005.37 766.846 L1005.37 766.846  Z" fill="#fba83c" fill-rule="evenodd" fill-opacity="1"/>
<polyline clip-path="url(#clip502)" style="stroke:#000000; stroke-linecap:round; stroke-linejoin:round; stroke-width:4; stroke-opacity:1; fill:none" points="1005.37,766.846 1005.37,348.447 1112.56,348.447 1112.56,766.846 "/>
<path clip-path="url(#clip502)" d="M1112.56 766.846 L1112.56 545.662 L1219.75 545.662 L1219.75 766.846 L1219.75 766.846 L1219.75 766.846 L1112.56 766.846 L1112.56 766.846  Z" fill="#e97758" fill-rule="evenodd" fill-opacity="1"/>
<polyline clip-path="url(#clip502)" style="stroke:#000000; stroke-linecap:round; stroke-linejoin:round; stroke-width:4; stroke-opacity:1; fill:none" points="1112.56,766.846 1112.56,545.662 1219.75,545.662 1219.75,766.846 "/>
<path clip-path="url(#clip502)" d="M1219.75 766.846 L1219.75 766.846 L1326.94 766.846 L1326.94 766.846 L1326.94 766.846 L1326.94 766.846 L1219.75 766.846 L1219.75 766.846  Z" fill="#af5f81" fill-rule="evenodd" fill-opacity="1"/>
<polyline clip-path="url(#clip502)" style="stroke:#000000; stroke-linecap:round; stroke-linejoin:round; stroke-width:4; stroke-opacity:1; fill:none" points="1219.75,766.846 1219.75,766.846 1326.94,766.846 1326.94,766.846 "/>
<path clip-path="url(#clip502)" d="M1326.94 766.846 L1326.94 988.03 L1434.13 988.03 L1434.13 766.846 L1434.13 766.846 L1434.13 766.846 L1326.94 766.846 L1326.94 766.846  Z" fill="#744992" fill-rule="evenodd" fill-opacity="1"/>
<polyline clip-path="url(#clip502)" style="stroke:#000000; stroke-linecap:round; stroke-linejoin:round; stroke-width:4; stroke-opacity:1; fill:none" points="1326.94,766.846 1326.94,988.03 1434.13,988.03 1434.13,766.846 "/>
<path clip-path="url(#clip502)" d="M1434.13 766.846 L1434.13 1185.25 L1541.32 1185.25 L1541.32 766.846 L1541.32 766.846 L1541.32 766.846 L1434.13 766.846 L1434.13 766.846  Z" fill="#3b339e" fill-rule="evenodd" fill-opacity="1"/>
<polyline clip-path="url(#clip502)" style="stroke:#000000; stroke-linecap:round; stroke-linejoin:round; stroke-width:4; stroke-opacity:1; fill:none" points="1434.13,766.846 1434.13,1185.25 1541.32,1185.25 1541.32,766.846 "/>
<path clip-path="url(#clip502)" d="M1755.7 766.846 L1755.7 1445.72 L1862.89 1445.72 L1862.89 766.846 L1862.89 766.846 L1862.89 766.846 L1755.7 766.846 L1755.7 766.846  Z" fill="#032333" fill-rule="evenodd" fill-opacity="1"/>
<polyline clip-path="url(#clip502)" style="stroke:#000000; stroke-linecap:round; stroke-linejoin:round; stroke-width:4; stroke-opacity:1; fill:none" points="1755.7,766.846 1755.7,1445.72 1862.89,1445.72 1862.89,766.846 "/>
<path clip-path="url(#clip502)" d="M2184.47 766.846 L2184.47 878.967 L2291.66 878.967 L2291.66 766.846 L2291.66 766.846 L2291.66 766.846 L2184.47 766.846 L2184.47 766.846  Z" fill="#90558b" fill-rule="evenodd" fill-opacity="1"/>
<polyline clip-path="url(#clip502)" style="stroke:#000000; stroke-linecap:round; stroke-linejoin:round; stroke-width:4; stroke-opacity:1; fill:none" points="2184.47,766.846 2184.47,878.967 2291.66,878.967 2291.66,766.846 "/>
<path clip-path="url(#clip502)" d="M362.225 766.846 L362.225 442.632 L469.416 442.632 L469.416 766.846 L469.416 766.846 L469.416 766.846 L362.225 766.846 L362.225 766.846  Z" fill="#f88e43" fill-rule="evenodd" fill-opacity="1"/>
<polyline clip-path="url(#clip502)" style="stroke:#000000; stroke-linecap:round; stroke-linejoin:round; stroke-width:4; stroke-opacity:1; fill:none" points="362.225,766.846 362.225,442.632 469.416,442.632 469.416,766.846 "/>
<path clip-path="url(#clip502)" d="M683.797 766.846 L683.797 87.9763 L790.988 87.9763 L790.988 766.846 L790.988 766.846 L790.988 766.846 L683.797 766.846 L683.797 766.846  Z" fill="#e7fa5a" fill-rule="evenodd" fill-opacity="1"/>
<polyline clip-path="url(#clip502)" style="stroke:#000000; stroke-linecap:round; stroke-linejoin:round; stroke-width:4; stroke-opacity:1; fill:none" points="683.797,766.846 683.797,87.9763 790.988,87.9763 790.988,766.846 "/>
<path clip-path="url(#clip502)" d="M576.607 766.846 L576.607 143.025 L683.797 143.025 L683.797 766.846 L683.797 766.846 L683.797 766.846 L576.607 766.846 L576.607 766.846  Z" fill="#efe851" fill-rule="evenodd" fill-opacity="1"/>
<polyline clip-path="url(#clip502)" style="stroke:#000000; stroke-linecap:round; stroke-linejoin:round; stroke-width:4; stroke-opacity:1; fill:none" points="576.607,766.846 576.607,143.025 683.797,143.025 683.797,766.846 "/>
<path clip-path="url(#clip502)" d="M1648.51 766.846 L1648.51 1427.2 L1755.7 1427.2 L1755.7 766.846 L1755.7 766.846 L1755.7 766.846 L1648.51 766.846 L1648.51 766.846  Z" fill="#042539" fill-rule="evenodd" fill-opacity="1"/>
<polyline clip-path="url(#clip502)" style="stroke:#000000; stroke-linecap:round; stroke-linejoin:round; stroke-width:4; stroke-opacity:1; fill:none" points="1648.51,766.846 1648.51,1427.2 1755.7,1427.2 1755.7,766.846 "/>
<path clip-path="url(#clip502)" d="M1970.09 766.846 L1970.09 1268.02 L2077.28 1268.02 L2077.28 766.846 L2077.28 766.846 L2077.28 766.846 L1970.09 766.846 L1970.09 766.846  Z" fill="#1a337f" fill-rule="evenodd" fill-opacity="1"/>
<polyline clip-path="url(#clip502)" style="stroke:#000000; stroke-linecap:round; stroke-linejoin:round; stroke-width:4; stroke-opacity:1; fill:none" points="1970.09,766.846 1970.09,1268.02 2077.28,1268.02 2077.28,766.846 "/>
</svg>
