<?xml version="1.0" encoding="utf-8"?>
<svg xmlns="http://www.w3.org/2000/svg" xmlns:xlink="http://www.w3.org/1999/xlink" width="600" height="400" viewBox="0 0 2400 1600">
<defs>
  <clipPath id="clip400">
    <rect x="0" y="0" width="2400" height="1600"/>
  </clipPath>
</defs>
<path clip-path="url(#clip400)" d="M0 1600 L2400 1600 L2400 0 L0 0  Z" fill="#ffffff" fill-rule="evenodd" fill-opacity="1"/>
<defs>
  <clipPath id="clip401">
    <rect x="480" y="0" width="1681" height="1600"/>
  </clipPath>
</defs>
<path clip-path="url(#clip400)" d="M186.274 1486.45 L2352.76 1486.45 L2352.76 47.2441 L186.274 47.2441  Z" fill="#ffffff" fill-rule="evenodd" fill-opacity="1"/>
<defs>
  <clipPath id="clip402">
    <rect x="186" y="47" width="2167" height="1440"/>
  </clipPath>
</defs>
<polyline clip-path="url(#clip402)" style="stroke:#000000; stroke-linecap:round; stroke-linejoin:round; stroke-width:2; stroke-opacity:0.1; fill:none" points="240.573,1486.45 240.573,47.2441 "/>
<polyline clip-path="url(#clip402)" style="stroke:#000000; stroke-linecap:round; stroke-linejoin:round; stroke-width:2; stroke-opacity:0.1; fill:none" points="755.044,1486.45 755.044,47.2441 "/>
<polyline clip-path="url(#clip402)" style="stroke:#000000; stroke-linecap:round; stroke-linejoin:round; stroke-width:2; stroke-opacity:0.1; fill:none" points="1269.51,1486.45 1269.51,47.2441 "/>
<polyline clip-path="url(#clip402)" style="stroke:#000000; stroke-linecap:round; stroke-linejoin:round; stroke-width:2; stroke-opacity:0.1; fill:none" points="1783.99,1486.45 1783.99,47.2441 "/>
<polyline clip-path="url(#clip402)" style="stroke:#000000; stroke-linecap:round; stroke-linejoin:round; stroke-width:2; stroke-opacity:0.1; fill:none" points="2298.46,1486.45 2298.46,47.2441 "/>
<polyline clip-path="url(#clip400)" style="stroke:#000000; stroke-linecap:round; stroke-linejoin:round; stroke-width:4; stroke-opacity:1; fill:none" points="186.274,1486.45 2352.76,1486.45 "/>
<polyline clip-path="url(#clip400)" style="stroke:#000000; stroke-linecap:round; stroke-linejoin:round; stroke-width:4; stroke-opacity:1; fill:none" points="240.573,1486.45 240.573,1467.55 "/>
<polyline clip-path="url(#clip400)" style="stroke:#000000; stroke-linecap:round; stroke-linejoin:round; stroke-width:4; stroke-opacity:1; fill:none" points="755.044,1486.45 755.044,1467.55 "/>
<polyline clip-path="url(#clip400)" style="stroke:#000000; stroke-linecap:round; stroke-linejoin:round; stroke-width:4; stroke-opacity:1; fill:none" points="1269.51,1486.45 1269.51,1467.55 "/>
<polyline clip-path="url(#clip400)" style="stroke:#000000; stroke-linecap:round; stroke-linejoin:round; stroke-width:4; stroke-opacity:1; fill:none" points="1783.99,1486.45 1783.99,1467.55 "/>
<polyline clip-path="url(#clip400)" style="stroke:#000000; stroke-linecap:round; stroke-linejoin:round; stroke-width:4; stroke-opacity:1; fill:none" points="2298.46,1486.45 2298.46,1467.55 "/>
<path clip-path="url(#clip400)" d="M217.957 1517.37 Q214.346 1517.37 212.517 1520.93 Q210.712 1524.47 210.712 1531.6 Q210.712 1538.71 212.517 1542.27 Q214.346 1545.82 217.957 1545.82 Q221.591 1545.82 223.397 1542.27 Q225.226 1538.71 225.226 1531.6 Q225.226 1524.47 223.397 1520.93 Q221.591 1517.37 217.957 1517.37 M217.957 1513.66 Q223.767 1513.66 226.823 1518.27 Q229.902 1522.85 229.902 1531.6 Q229.902 1540.33 226.823 1544.94 Q223.767 1549.52 217.957 1549.52 Q212.147 1549.52 209.068 1544.94 Q206.013 1540.33 206.013 1531.6 Q206.013 1522.85 209.068 1518.27 Q212.147 1513.66 217.957 1513.66 Z" fill="#000000" fill-rule="nonzero" fill-opacity="1" /><path clip-path="url(#clip400)" d="M238.119 1542.97 L243.003 1542.97 L243.003 1548.85 L238.119 1548.85 L238.119 1542.97 Z" fill="#000000" fill-rule="nonzero" fill-opacity="1" /><path clip-path="url(#clip400)" d="M263.188 1517.37 Q259.577 1517.37 257.749 1520.93 Q255.943 1524.47 255.943 1531.6 Q255.943 1538.71 257.749 1542.27 Q259.577 1545.82 263.188 1545.82 Q266.823 1545.82 268.628 1542.27 Q270.457 1538.71 270.457 1531.6 Q270.457 1524.47 268.628 1520.93 Q266.823 1517.37 263.188 1517.37 M263.188 1513.66 Q268.999 1513.66 272.054 1518.27 Q275.133 1522.85 275.133 1531.6 Q275.133 1540.33 272.054 1544.94 Q268.999 1549.52 263.188 1549.52 Q257.378 1549.52 254.3 1544.94 Q251.244 1540.33 251.244 1531.6 Q251.244 1522.85 254.3 1518.27 Q257.378 1513.66 263.188 1513.66 Z" fill="#000000" fill-rule="nonzero" fill-opacity="1" /><path clip-path="url(#clip400)" d="M732.926 1517.37 Q729.315 1517.37 727.486 1520.93 Q725.681 1524.47 725.681 1531.6 Q725.681 1538.71 727.486 1542.27 Q729.315 1545.82 732.926 1545.82 Q736.56 1545.82 738.366 1542.27 Q740.194 1538.71 740.194 1531.6 Q740.194 1524.47 738.366 1520.93 Q736.56 1517.37 732.926 1517.37 M732.926 1513.66 Q738.736 1513.66 741.792 1518.27 Q744.87 1522.85 744.87 1531.6 Q744.87 1540.33 741.792 1544.94 Q738.736 1549.52 732.926 1549.52 Q727.116 1549.52 724.037 1544.94 Q720.982 1540.33 720.982 1531.6 Q720.982 1522.85 724.037 1518.27 Q727.116 1513.66 732.926 1513.66 Z" fill="#000000" fill-rule="nonzero" fill-opacity="1" /><path clip-path="url(#clip400)" d="M753.088 1542.97 L757.972 1542.97 L757.972 1548.85 L753.088 1548.85 L753.088 1542.97 Z" fill="#000000" fill-rule="nonzero" fill-opacity="1" /><path clip-path="url(#clip400)" d="M768.204 1514.29 L786.56 1514.29 L786.56 1518.22 L772.486 1518.22 L772.486 1526.7 Q773.504 1526.35 774.523 1526.19 Q775.541 1526 776.56 1526 Q782.347 1526 785.727 1529.17 Q789.106 1532.34 789.106 1537.76 Q789.106 1543.34 785.634 1546.44 Q782.162 1549.52 775.842 1549.52 Q773.666 1549.52 771.398 1549.15 Q769.153 1548.78 766.745 1548.04 L766.745 1543.34 Q768.829 1544.47 771.051 1545.03 Q773.273 1545.58 775.75 1545.58 Q779.754 1545.58 782.092 1543.48 Q784.43 1541.37 784.43 1537.76 Q784.43 1534.15 782.092 1532.04 Q779.754 1529.94 775.75 1529.94 Q773.875 1529.94 772 1530.35 Q770.148 1530.77 768.204 1531.65 L768.204 1514.29 Z" fill="#000000" fill-rule="nonzero" fill-opacity="1" /><path clip-path="url(#clip400)" d="M1236.67 1544.91 L1244.31 1544.91 L1244.31 1518.55 L1236 1520.21 L1236 1515.95 L1244.26 1514.29 L1248.94 1514.29 L1248.94 1544.91 L1256.58 1544.91 L1256.58 1548.85 L1236.67 1548.85 L1236.67 1544.91 Z" fill="#000000" fill-rule="nonzero" fill-opacity="1" /><path clip-path="url(#clip400)" d="M1266.02 1542.97 L1270.9 1542.97 L1270.9 1548.85 L1266.02 1548.85 L1266.02 1542.97 Z" fill="#000000" fill-rule="nonzero" fill-opacity="1" /><path clip-path="url(#clip400)" d="M1291.09 1517.37 Q1287.48 1517.37 1285.65 1520.93 Q1283.84 1524.47 1283.84 1531.6 Q1283.84 1538.71 1285.65 1542.27 Q1287.48 1545.82 1291.09 1545.82 Q1294.72 1545.82 1296.53 1542.27 Q1298.36 1538.71 1298.36 1531.6 Q1298.36 1524.47 1296.53 1520.93 Q1294.72 1517.37 1291.09 1517.37 M1291.09 1513.66 Q1296.9 1513.66 1299.95 1518.27 Q1303.03 1522.85 1303.03 1531.6 Q1303.03 1540.33 1299.95 1544.94 Q1296.9 1549.52 1291.09 1549.52 Q1285.28 1549.52 1282.2 1544.94 Q1279.14 1540.33 1279.14 1531.6 Q1279.14 1522.85 1282.2 1518.27 Q1285.28 1513.66 1291.09 1513.66 Z" fill="#000000" fill-rule="nonzero" fill-opacity="1" /><path clip-path="url(#clip400)" d="M1751.64 1544.91 L1759.28 1544.91 L1759.28 1518.55 L1750.97 1520.21 L1750.97 1515.95 L1759.23 1514.29 L1763.91 1514.29 L1763.91 1544.91 L1771.54 1544.91 L1771.54 1548.85 L1751.64 1548.85 L1751.64 1544.91 Z" fill="#000000" fill-rule="nonzero" fill-opacity="1" /><path clip-path="url(#clip400)" d="M1780.99 1542.97 L1785.87 1542.97 L1785.87 1548.85 L1780.99 1548.85 L1780.99 1542.97 Z" fill="#000000" fill-rule="nonzero" fill-opacity="1" /><path clip-path="url(#clip400)" d="M1796.1 1514.29 L1814.46 1514.29 L1814.46 1518.22 L1800.39 1518.22 L1800.39 1526.7 Q1801.4 1526.35 1802.42 1526.19 Q1803.44 1526 1804.46 1526 Q1810.25 1526 1813.63 1529.17 Q1817.01 1532.34 1817.01 1537.76 Q1817.01 1543.34 1813.53 1546.44 Q1810.06 1549.52 1803.74 1549.52 Q1801.57 1549.52 1799.3 1549.15 Q1797.05 1548.78 1794.65 1548.04 L1794.65 1543.34 Q1796.73 1544.47 1798.95 1545.03 Q1801.17 1545.58 1803.65 1545.58 Q1807.65 1545.58 1809.99 1543.48 Q1812.33 1541.37 1812.33 1537.76 Q1812.33 1534.15 1809.99 1532.04 Q1807.65 1529.94 1803.65 1529.94 Q1801.78 1529.94 1799.9 1530.35 Q1798.05 1530.77 1796.1 1531.65 L1796.1 1514.29 Z" fill="#000000" fill-rule="nonzero" fill-opacity="1" /><path clip-path="url(#clip400)" d="M2269.7 1544.91 L2286.02 1544.91 L2286.02 1548.85 L2264.07 1548.85 L2264.07 1544.91 Q2266.73 1542.16 2271.32 1537.53 Q2275.92 1532.88 2277.1 1531.53 Q2279.35 1529.01 2280.23 1527.27 Q2281.13 1525.51 2281.13 1523.82 Q2281.13 1521.07 2279.19 1519.33 Q2277.27 1517.6 2274.16 1517.6 Q2271.96 1517.6 2269.51 1518.36 Q2267.08 1519.13 2264.3 1520.68 L2264.3 1515.95 Q2267.13 1514.82 2269.58 1514.24 Q2272.03 1513.66 2274.07 1513.66 Q2279.44 1513.66 2282.64 1516.35 Q2285.83 1519.03 2285.83 1523.52 Q2285.83 1525.65 2285.02 1527.57 Q2284.23 1529.47 2282.13 1532.07 Q2281.55 1532.74 2278.45 1535.95 Q2275.34 1539.15 2269.7 1544.91 Z" fill="#000000" fill-rule="nonzero" fill-opacity="1" /><path clip-path="url(#clip400)" d="M2295.83 1542.97 L2300.71 1542.97 L2300.71 1548.85 L2295.83 1548.85 L2295.83 1542.97 Z" fill="#000000" fill-rule="nonzero" fill-opacity="1" /><path clip-path="url(#clip400)" d="M2320.9 1517.37 Q2317.29 1517.37 2315.46 1520.93 Q2313.65 1524.47 2313.65 1531.6 Q2313.65 1538.71 2315.46 1542.27 Q2317.29 1545.82 2320.9 1545.82 Q2324.53 1545.82 2326.34 1542.27 Q2328.17 1538.71 2328.17 1531.6 Q2328.17 1524.47 2326.34 1520.93 Q2324.53 1517.37 2320.9 1517.37 M2320.9 1513.66 Q2326.71 1513.66 2329.76 1518.27 Q2332.84 1522.85 2332.84 1531.6 Q2332.84 1540.33 2329.76 1544.94 Q2326.71 1549.52 2320.9 1549.52 Q2315.09 1549.52 2312.01 1544.94 Q2308.95 1540.33 2308.95 1531.6 Q2308.95 1522.85 2312.01 1518.27 Q2315.09 1513.66 2320.9 1513.66 Z" fill="#000000" fill-rule="nonzero" fill-opacity="1" /><polyline clip-path="url(#clip402)" style="stroke:#000000; stroke-linecap:round; stroke-linejoin:round; stroke-width:2; stroke-opacity:0.1; fill:none" points="186.274,1445.72 2352.76,1445.72 "/>
<polyline clip-path="url(#clip402)" style="stroke:#000000; stroke-linecap:round; stroke-linejoin:round; stroke-width:2; stroke-opacity:0.1; fill:none" points="186.274,1106.28 2352.76,1106.28 "/>
<polyline clip-path="url(#clip402)" style="stroke:#000000; stroke-linecap:round; stroke-linejoin:round; stroke-width:2; stroke-opacity:0.1; fill:none" points="186.274,766.846 2352.76,766.846 "/>
<polyline clip-path="url(#clip402)" style="stroke:#000000; stroke-linecap:round; stroke-linejoin:round; stroke-width:2; stroke-opacity:0.1; fill:none" points="186.274,427.411 2352.76,427.411 "/>
<polyline clip-path="url(#clip402)" style="stroke:#000000; stroke-linecap:round; stroke-linejoin:round; stroke-width:2; stroke-opacity:0.1; fill:none" points="186.274,87.9763 2352.76,87.9763 "/>
<path clip-path="url(#clip402)" d="M1371.71 1445.72 L1371.71 87.9763 L1392.15 87.9763 L1392.15 1445.72 L1392.15 1445.72 L1392.15 1445.72 L1371.71 1445.72 L1371.71 1445.72  Z" fill="#c56577" fill-rule="evenodd" fill-opacity="1"/>
<polyline clip-path="url(#clip402)" style="stroke:#c56577; stroke-linecap:round; stroke-linejoin:round; stroke-width:4; stroke-opacity:1; fill:none" points="1371.71,1445.72 1371.71,87.9763 1392.15,87.9763 1392.15,1445.72 "/>
<path clip-path="url(#clip402)" d="M1555.65 1445.72 L1555.65 87.9763 L1576.09 87.9763 L1576.09 1445.72 L1576.09 1445.72 L1576.09 1445.72 L1555.65 1445.72 L1555.65 1445.72  Z" fill="#e4735e" fill-rule="evenodd" fill-opacity="1"/>
<polyline clip-path="url(#clip402)" style="stroke:#e4735e; stroke-linecap:round; stroke-linejoin:round; stroke-width:4; stroke-opacity:1; fill:none" points="1555.65,1445.72 1555.65,87.9763 1576.09,87.9763 1576.09,1445.72 "/>
<path clip-path="url(#clip402)" d="M1596.53 1445.72 L1596.53 87.9763 L1616.97 87.9763 L1616.97 1445.72 L1616.97 1445.72 L1616.97 1445.72 L1596.53 1445.72 L1596.53 1445.72  Z" fill="#ea7857" fill-rule="evenodd" fill-opacity="1"/>
<polyline clip-path="url(#clip402)" style="stroke:#ea7857; stroke-linecap:round; stroke-linejoin:round; stroke-width:4; stroke-opacity:1; fill:none" points="1596.53,1445.72 1596.53,87.9763 1616.97,87.9763 1616.97,1445.72 "/>
<path clip-path="url(#clip402)" d="M1943.99 1445.72 L1943.99 87.9763 L1964.42 87.9763 L1964.42 1445.72 L1964.42 1445.72 L1964.42 1445.72 L1943.99 1445.72 L1943.99 1445.72  Z" fill="#fbb53d" fill-rule="evenodd" fill-opacity="1"/>
<polyline clip-path="url(#clip402)" style="stroke:#fbb53d; stroke-linecap:round; stroke-linejoin:round; stroke-width:4; stroke-opacity:1; fill:none" points="1943.99,1445.72 1943.99,87.9763 1964.42,87.9763 1964.42,1445.72 "/>
<path clip-path="url(#clip402)" d="M1678.29 1445.72 L1678.29 87.9763 L1698.72 87.9763 L1698.72 1445.72 L1698.72 1445.72 L1698.72 1445.72 L1678.29 1445.72 L1678.29 1445.72  Z" fill="#f3834b" fill-rule="evenodd" fill-opacity="1"/>
<polyline clip-path="url(#clip402)" style="stroke:#f3834b; stroke-linecap:round; stroke-linejoin:round; stroke-width:4; stroke-opacity:1; fill:none" points="1678.29,1445.72 1678.29,87.9763 1698.72,87.9763 1698.72,1445.72 "/>
<path clip-path="url(#clip402)" d="M247.59 1445.72 L247.59 87.9763 L268.028 87.9763 L268.028 1445.72 L268.028 1445.72 L268.028 1445.72 L247.59 1445.72 L247.59 1445.72  Z" fill="#032333" fill-rule="evenodd" fill-opacity="1"/>
<polyline clip-path="url(#clip402)" style="stroke:#032333; stroke-linecap:round; stroke-linejoin:round; stroke-width:4; stroke-opacity:1; fill:none" points="247.59,1445.72 247.59,87.9763 268.028,87.9763 268.028,1445.72 "/>
<path clip-path="url(#clip402)" d="M1903.11 1445.72 L1903.11 87.9763 L1923.55 87.9763 L1923.55 1445.72 L1923.55 1445.72 L1923.55 1445.72 L1903.11 1445.72 L1903.11 1445.72  Z" fill="#fbad3c" fill-rule="evenodd" fill-opacity="1"/>
<polyline clip-path="url(#clip402)" style="stroke:#fbad3c; stroke-linecap:round; stroke-linejoin:round; stroke-width:4; stroke-opacity:1; fill:none" points="1903.11,1445.72 1903.11,87.9763 1923.55,87.9763 1923.55,1445.72 "/>
<path clip-path="url(#clip402)" d="M2148.37 1445.72 L2148.37 87.9763 L2168.81 87.9763 L2168.81 1445.72 L2168.81 1445.72 L2168.81 1445.72 L2148.37 1445.72 L2148.37 1445.72  Z" fill="#f2e04c" fill-rule="evenodd" fill-opacity="1"/>
<polyline clip-path="url(#clip402)" style="stroke:#f2e04c; stroke-linecap:round; stroke-linejoin:round; stroke-width:4; stroke-opacity:1; fill:none" points="2148.37,1445.72 2148.37,87.9763 2168.81,87.9763 2168.81,1445.72 "/>
<path clip-path="url(#clip402)" d="M881.183 1445.72 L881.183 87.9763 L901.622 87.9763 L901.622 1445.72 L901.622 1445.72 L901.622 1445.72 L881.183 1445.72 L881.183 1445.72  Z" fill="#6c4594" fill-rule="evenodd" fill-opacity="1"/>
<polyline clip-path="url(#clip402)" style="stroke:#6c4594; stroke-linecap:round; stroke-linejoin:round; stroke-width:4; stroke-opacity:1; fill:none" points="881.183,1445.72 881.183,87.9763 901.622,87.9763 901.622,1445.72 "/>
<path clip-path="url(#clip402)" d="M901.622 1445.72 L901.622 87.9763 L922.06 87.9763 L922.06 1445.72 L922.06 1445.72 L922.06 1445.72 L901.622 1445.72 L901.622 1445.72  Z" fill="#704793" fill-rule="evenodd" fill-opacity="1"/>
<polyline clip-path="url(#clip402)" style="stroke:#704793; stroke-linecap:round; stroke-linejoin:round; stroke-width:4; stroke-opacity:1; fill:none" points="901.622,1445.72 901.622,87.9763 922.06,87.9763 922.06,1445.72 "/>
<path clip-path="url(#clip402)" d="M2087.06 1445.72 L2087.06 87.9763 L2107.49 87.9763 L2107.49 1445.72 L2107.49 1445.72 L2107.49 1445.72 L2087.06 1445.72 L2087.06 1445.72  Z" fill="#f6d346" fill-rule="evenodd" fill-opacity="1"/>
<polyline clip-path="url(#clip402)" style="stroke:#f6d346; stroke-linecap:round; stroke-linejoin:round; stroke-width:4; stroke-opacity:1; fill:none" points="2087.06,1445.72 2087.06,87.9763 2107.49,87.9763 2107.49,1445.72 "/>
<path clip-path="url(#clip402)" d="M860.745 1445.72 L860.745 87.9763 L881.183 87.9763 L881.183 1445.72 L881.183 1445.72 L881.183 1445.72 L860.745 1445.72 L860.745 1445.72  Z" fill="#694495" fill-rule="evenodd" fill-opacity="1"/>
<polyline clip-path="url(#clip402)" style="stroke:#694495; stroke-linecap:round; stroke-linejoin:round; stroke-width:4; stroke-opacity:1; fill:none" points="860.745,1445.72 860.745,87.9763 881.183,87.9763 881.183,1445.72 "/>
<path clip-path="url(#clip402)" d="M411.098 1445.72 L411.098 87.9763 L431.536 87.9763 L431.536 1445.72 L431.536 1445.72 L431.536 1445.72 L411.098 1445.72 L411.098 1445.72  Z" fill="#0b2f5e" fill-rule="evenodd" fill-opacity="1"/>
<polyline clip-path="url(#clip402)" style="stroke:#0b2f5e; stroke-linecap:round; stroke-linejoin:round; stroke-width:4; stroke-opacity:1; fill:none" points="411.098,1445.72 411.098,87.9763 431.536,87.9763 431.536,1445.72 "/>
<path clip-path="url(#clip402)" d="M1760.04 1445.72 L1760.04 87.9763 L1780.48 87.9763 L1780.48 1445.72 L1780.48 1445.72 L1780.48 1445.72 L1760.04 1445.72 L1760.04 1445.72  Z" fill="#f89142" fill-rule="evenodd" fill-opacity="1"/>
<polyline clip-path="url(#clip402)" style="stroke:#f89142; stroke-linecap:round; stroke-linejoin:round; stroke-width:4; stroke-opacity:1; fill:none" points="1760.04,1445.72 1760.04,87.9763 1780.48,87.9763 1780.48,1445.72 "/>
<path clip-path="url(#clip402)" d="M1330.83 1445.72 L1330.83 87.9763 L1351.27 87.9763 L1351.27 1445.72 L1351.27 1445.72 L1351.27 1445.72 L1330.83 1445.72 L1330.83 1445.72  Z" fill="#bd637b" fill-rule="evenodd" fill-opacity="1"/>
<polyline clip-path="url(#clip402)" style="stroke:#bd637b; stroke-linecap:round; stroke-linejoin:round; stroke-width:4; stroke-opacity:1; fill:none" points="1330.83,1445.72 1330.83,87.9763 1351.27,87.9763 1351.27,1445.72 "/>
<path clip-path="url(#clip402)" d="M329.344 1445.72 L329.344 87.9763 L349.782 87.9763 L349.782 1445.72 L349.782 1445.72 L349.782 1445.72 L329.344 1445.72 L329.344 1445.72  Z" fill="#062a47" fill-rule="evenodd" fill-opacity="1"/>
<polyline clip-path="url(#clip402)" style="stroke:#062a47; stroke-linecap:round; stroke-linejoin:round; stroke-width:4; stroke-opacity:1; fill:none" points="329.344,1445.72 329.344,87.9763 349.782,87.9763 349.782,1445.72 "/>
<path clip-path="url(#clip402)" d="M2025.74 1445.72 L2025.74 87.9763 L2046.18 87.9763 L2046.18 1445.72 L2046.18 1445.72 L2046.18 1445.72 L2025.74 1445.72 L2025.74 1445.72  Z" fill="#f9c641" fill-rule="evenodd" fill-opacity="1"/>
<polyline clip-path="url(#clip402)" style="stroke:#f9c641; stroke-linecap:round; stroke-linejoin:round; stroke-width:4; stroke-opacity:1; fill:none" points="2025.74,1445.72 2025.74,87.9763 2046.18,87.9763 2046.18,1445.72 "/>
<path clip-path="url(#clip402)" d="M1289.95 1445.72 L1289.95 87.9763 L1310.39 87.9763 L1310.39 1445.72 L1310.39 1445.72 L1310.39 1445.72 L1289.95 1445.72 L1289.95 1445.72  Z" fill="#b5607f" fill-rule="evenodd" fill-opacity="1"/>
<polyline clip-path="url(#clip402)" style="stroke:#b5607f; stroke-linecap:round; stroke-linejoin:round; stroke-width:4; stroke-opacity:1; fill:none" points="1289.95,1445.72 1289.95,87.9763 1310.39,87.9763 1310.39,1445.72 "/>
<path clip-path="url(#clip402)" d="M1739.6 1445.72 L1739.6 87.9763 L1760.04 87.9763 L1760.04 1445.72 L1760.04 1445.72 L1760.04 1445.72 L1739.6 1445.72 L1739.6 1445.72  Z" fill="#f78d44" fill-rule="evenodd" fill-opacity="1"/>
<polyline clip-path="url(#clip402)" style="stroke:#f78d44; stroke-linecap:round; stroke-linejoin:round; stroke-width:4; stroke-opacity:1; fill:none" points="1739.6,1445.72 1739.6,87.9763 1760.04,87.9763 1760.04,1445.72 "/>
<path clip-path="url(#clip402)" d="M738.114 1445.72 L738.114 87.9763 L758.552 87.9763 L758.552 1445.72 L758.552 1445.72 L758.552 1445.72 L738.114 1445.72 L738.114 1445.72  Z" fill="#52399d" fill-rule="evenodd" fill-opacity="1"/>
<polyline clip-path="url(#clip402)" style="stroke:#52399d; stroke-linecap:round; stroke-linejoin:round; stroke-width:4; stroke-opacity:1; fill:none" points="738.114,1445.72 738.114,87.9763 758.552,87.9763 758.552,1445.72 "/>
<path clip-path="url(#clip402)" d="M962.937 1445.72 L962.937 87.9763 L983.376 87.9763 L983.376 1445.72 L983.376 1445.72 L983.376 1445.72 L962.937 1445.72 L962.937 1445.72  Z" fill="#7a4c90" fill-rule="evenodd" fill-opacity="1"/>
<polyline clip-path="url(#clip402)" style="stroke:#7a4c90; stroke-linecap:round; stroke-linejoin:round; stroke-width:4; stroke-opacity:1; fill:none" points="962.937,1445.72 962.937,87.9763 983.376,87.9763 983.376,1445.72 "/>
<path clip-path="url(#clip402)" d="M1351.27 1445.72 L1351.27 87.9763 L1371.71 87.9763 L1371.71 1445.72 L1371.71 1445.72 L1371.71 1445.72 L1351.27 1445.72 L1351.27 1445.72  Z" fill="#c16479" fill-rule="evenodd" fill-opacity="1"/>
<polyline clip-path="url(#clip402)" style="stroke:#c16479; stroke-linecap:round; stroke-linejoin:round; stroke-width:4; stroke-opacity:1; fill:none" points="1351.27,1445.72 1351.27,87.9763 1371.71,87.9763 1371.71,1445.72 "/>
<path clip-path="url(#clip402)" d="M2168.81 1445.72 L2168.81 87.9763 L2189.25 87.9763 L2189.25 1445.72 L2189.25 1445.72 L2189.25 1445.72 L2168.81 1445.72 L2168.81 1445.72  Z" fill="#f1e44e" fill-rule="evenodd" fill-opacity="1"/>
<polyline clip-path="url(#clip402)" style="stroke:#f1e44e; stroke-linecap:round; stroke-linejoin:round; stroke-width:4; stroke-opacity:1; fill:none" points="2168.81,1445.72 2168.81,87.9763 2189.25,87.9763 2189.25,1445.72 "/>
<path clip-path="url(#clip402)" d="M1024.25 1445.72 L1024.25 87.9763 L1044.69 87.9763 L1044.69 1445.72 L1044.69 1445.72 L1044.69 1445.72 L1024.25 1445.72 L1024.25 1445.72  Z" fill="#85508e" fill-rule="evenodd" fill-opacity="1"/>
<polyline clip-path="url(#clip402)" style="stroke:#85508e; stroke-linecap:round; stroke-linejoin:round; stroke-width:4; stroke-opacity:1; fill:none" points="1024.25,1445.72 1024.25,87.9763 1044.69,87.9763 1044.69,1445.72 "/>
<path clip-path="url(#clip402)" d="M1637.41 1445.72 L1637.41 87.9763 L1657.85 87.9763 L1657.85 1445.72 L1657.85 1445.72 L1657.85 1445.72 L1637.41 1445.72 L1637.41 1445.72  Z" fill="#ef7d51" fill-rule="evenodd" fill-opacity="1"/>
<polyline clip-path="url(#clip402)" style="stroke:#ef7d51; stroke-linecap:round; stroke-linejoin:round; stroke-width:4; stroke-opacity:1; fill:none" points="1637.41,1445.72 1637.41,87.9763 1657.85,87.9763 1657.85,1445.72 "/>
<path clip-path="url(#clip402)" d="M676.798 1445.72 L676.798 87.9763 L697.237 87.9763 L697.237 1445.72 L697.237 1445.72 L697.237 1445.72 L676.798 1445.72 L676.798 1445.72  Z" fill="#45359f" fill-rule="evenodd" fill-opacity="1"/>
<polyline clip-path="url(#clip402)" style="stroke:#45359f; stroke-linecap:round; stroke-linejoin:round; stroke-width:4; stroke-opacity:1; fill:none" points="676.798,1445.72 676.798,87.9763 697.237,87.9763 697.237,1445.72 "/>
<path clip-path="url(#clip402)" d="M1126.45 1445.72 L1126.45 87.9763 L1146.88 87.9763 L1146.88 1445.72 L1146.88 1445.72 L1146.88 1445.72 L1126.45 1445.72 L1126.45 1445.72  Z" fill="#975789" fill-rule="evenodd" fill-opacity="1"/>
<polyline clip-path="url(#clip402)" style="stroke:#975789; stroke-linecap:round; stroke-linejoin:round; stroke-width:4; stroke-opacity:1; fill:none" points="1126.45,1445.72 1126.45,87.9763 1146.88,87.9763 1146.88,1445.72 "/>
<path clip-path="url(#clip402)" d="M1821.35 1445.72 L1821.35 87.9763 L1841.79 87.9763 L1841.79 1445.72 L1841.79 1445.72 L1841.79 1445.72 L1821.35 1445.72 L1821.35 1445.72  Z" fill="#fb9c3d" fill-rule="evenodd" fill-opacity="1"/>
<polyline clip-path="url(#clip402)" style="stroke:#fb9c3d; stroke-linecap:round; stroke-linejoin:round; stroke-width:4; stroke-opacity:1; fill:none" points="1821.35,1445.72 1821.35,87.9763 1841.79,87.9763 1841.79,1445.72 "/>
<path clip-path="url(#clip402)" d="M1535.22 1445.72 L1535.22 87.9763 L1555.65 87.9763 L1555.65 1445.72 L1555.65 1445.72 L1555.65 1445.72 L1535.22 1445.72 L1535.22 1445.72  Z" fill="#e17161" fill-rule="evenodd" fill-opacity="1"/>
<polyline clip-path="url(#clip402)" style="stroke:#e17161; stroke-linecap:round; stroke-linejoin:round; stroke-width:4; stroke-opacity:1; fill:none" points="1535.22,1445.72 1535.22,87.9763 1555.65,87.9763 1555.65,1445.72 "/>
<path clip-path="url(#clip402)" d="M2230.12 1445.72 L2230.12 87.9763 L2250.56 87.9763 L2250.56 1445.72 L2250.56 1445.72 L2250.56 1445.72 L2230.12 1445.72 L2230.12 1445.72  Z" fill="#ebf155" fill-rule="evenodd" fill-opacity="1"/>
<polyline clip-path="url(#clip402)" style="stroke:#ebf155; stroke-linecap:round; stroke-linejoin:round; stroke-width:4; stroke-opacity:1; fill:none" points="2230.12,1445.72 2230.12,87.9763 2250.56,87.9763 2250.56,1445.72 "/>
<path clip-path="url(#clip402)" d="M2127.93 1445.72 L2127.93 87.9763 L2148.37 87.9763 L2148.37 1445.72 L2148.37 1445.72 L2148.37 1445.72 L2127.93 1445.72 L2127.93 1445.72  Z" fill="#f3db4a" fill-rule="evenodd" fill-opacity="1"/>
<polyline clip-path="url(#clip402)" style="stroke:#f3db4a; stroke-linecap:round; stroke-linejoin:round; stroke-width:4; stroke-opacity:1; fill:none" points="2127.93,1445.72 2127.93,87.9763 2148.37,87.9763 2148.37,1445.72 "/>
<path clip-path="url(#clip402)" d="M1719.16 1445.72 L1719.16 87.9763 L1739.6 87.9763 L1739.6 1445.72 L1739.6 1445.72 L1739.6 1445.72 L1719.16 1445.72 L1719.16 1445.72  Z" fill="#f68a46" fill-rule="evenodd" fill-opacity="1"/>
<polyline clip-path="url(#clip402)" style="stroke:#f68a46; stroke-linecap:round; stroke-linejoin:round; stroke-width:4; stroke-opacity:1; fill:none" points="1719.16,1445.72 1719.16,87.9763 1739.6,87.9763 1739.6,1445.72 "/>
<path clip-path="url(#clip402)" d="M1146.88 1445.72 L1146.88 87.9763 L1167.32 87.9763 L1167.32 1445.72 L1167.32 1445.72 L1167.32 1445.72 L1146.88 1445.72 L1146.88 1445.72  Z" fill="#9a5888" fill-rule="evenodd" fill-opacity="1"/>
<polyline clip-path="url(#clip402)" style="stroke:#9a5888; stroke-linecap:round; stroke-linejoin:round; stroke-width:4; stroke-opacity:1; fill:none" points="1146.88,1445.72 1146.88,87.9763 1167.32,87.9763 1167.32,1445.72 "/>
<path clip-path="url(#clip402)" d="M370.221 1445.72 L370.221 87.9763 L390.659 87.9763 L390.659 1445.72 L390.659 1445.72 L390.659 1445.72 L370.221 1445.72 L370.221 1445.72  Z" fill="#072d52" fill-rule="evenodd" fill-opacity="1"/>
<polyline clip-path="url(#clip402)" style="stroke:#072d52; stroke-linecap:round; stroke-linejoin:round; stroke-width:4; stroke-opacity:1; fill:none" points="370.221,1445.72 370.221,87.9763 390.659,87.9763 390.659,1445.72 "/>
<path clip-path="url(#clip402)" d="M1882.67 1445.72 L1882.67 87.9763 L1903.11 87.9763 L1903.11 1445.72 L1903.11 1445.72 L1903.11 1445.72 L1882.67 1445.72 L1882.67 1445.72  Z" fill="#fba83c" fill-rule="evenodd" fill-opacity="1"/>
<polyline clip-path="url(#clip402)" style="stroke:#fba83c; stroke-linecap:round; stroke-linejoin:round; stroke-width:4; stroke-opacity:1; fill:none" points="1882.67,1445.72 1882.67,87.9763 1903.11,87.9763 1903.11,1445.72 "/>
<path clip-path="url(#clip402)" d="M2107.49 1445.72 L2107.49 87.9763 L2127.93 87.9763 L2127.93 1445.72 L2127.93 1445.72 L2127.93 1445.72 L2107.49 1445.72 L2107.49 1445.72  Z" fill="#f5d748" fill-rule="evenodd" fill-opacity="1"/>
<polyline clip-path="url(#clip402)" style="stroke:#f5d748; stroke-linecap:round; stroke-linejoin:round; stroke-width:4; stroke-opacity:1; fill:none" points="2107.49,1445.72 2107.49,87.9763 2127.93,87.9763 2127.93,1445.72 "/>
<path clip-path="url(#clip402)" d="M758.552 1445.72 L758.552 87.9763 L778.991 87.9763 L778.991 1445.72 L778.991 1445.72 L778.991 1445.72 L758.552 1445.72 L758.552 1445.72  Z" fill="#563b9b" fill-rule="evenodd" fill-opacity="1"/>
<polyline clip-path="url(#clip402)" style="stroke:#563b9b; stroke-linecap:round; stroke-linejoin:round; stroke-width:4; stroke-opacity:1; fill:none" points="758.552,1445.72 758.552,87.9763 778.991,87.9763 778.991,1445.72 "/>
<path clip-path="url(#clip402)" d="M1698.72 1445.72 L1698.72 87.9763 L1719.16 87.9763 L1719.16 1445.72 L1719.16 1445.72 L1719.16 1445.72 L1698.72 1445.72 L1698.72 1445.72  Z" fill="#f58648" fill-rule="evenodd" fill-opacity="1"/>
<polyline clip-path="url(#clip402)" style="stroke:#f58648; stroke-linecap:round; stroke-linejoin:round; stroke-width:4; stroke-opacity:1; fill:none" points="1698.72,1445.72 1698.72,87.9763 1719.16,87.9763 1719.16,1445.72 "/>
<path clip-path="url(#clip402)" d="M1576.09 1445.72 L1576.09 87.9763 L1596.53 87.9763 L1596.53 1445.72 L1596.53 1445.72 L1596.53 1445.72 L1576.09 1445.72 L1576.09 1445.72  Z" fill="#e7765a" fill-rule="evenodd" fill-opacity="1"/>
<polyline clip-path="url(#clip402)" style="stroke:#e7765a; stroke-linecap:round; stroke-linejoin:round; stroke-width:4; stroke-opacity:1; fill:none" points="1576.09,1445.72 1576.09,87.9763 1596.53,87.9763 1596.53,1445.72 "/>
<path clip-path="url(#clip402)" d="M1657.85 1445.72 L1657.85 87.9763 L1678.29 87.9763 L1678.29 1445.72 L1678.29 1445.72 L1678.29 1445.72 L1657.85 1445.72 L1657.85 1445.72  Z" fill="#f1804e" fill-rule="evenodd" fill-opacity="1"/>
<polyline clip-path="url(#clip402)" style="stroke:#f1804e; stroke-linecap:round; stroke-linejoin:round; stroke-width:4; stroke-opacity:1; fill:none" points="1657.85,1445.72 1657.85,87.9763 1678.29,87.9763 1678.29,1445.72 "/>
<path clip-path="url(#clip402)" d="M1085.57 1445.72 L1085.57 87.9763 L1106.01 87.9763 L1106.01 1445.72 L1106.01 1445.72 L1106.01 1445.72 L1085.57 1445.72 L1085.57 1445.72  Z" fill="#8f548b" fill-rule="evenodd" fill-opacity="1"/>
<polyline clip-path="url(#clip402)" style="stroke:#8f548b; stroke-linecap:round; stroke-linejoin:round; stroke-width:4; stroke-opacity:1; fill:none" points="1085.57,1445.72 1085.57,87.9763 1106.01,87.9763 1106.01,1445.72 "/>
<path clip-path="url(#clip402)" d="M1249.08 1445.72 L1249.08 87.9763 L1269.51 87.9763 L1269.51 1445.72 L1269.51 1445.72 L1269.51 1445.72 L1249.08 1445.72 L1249.08 1445.72  Z" fill="#ad5e82" fill-rule="evenodd" fill-opacity="1"/>
<polyline clip-path="url(#clip402)" style="stroke:#ad5e82; stroke-linecap:round; stroke-linejoin:round; stroke-width:4; stroke-opacity:1; fill:none" points="1249.08,1445.72 1249.08,87.9763 1269.51,87.9763 1269.51,1445.72 "/>
<path clip-path="url(#clip402)" d="M1106.01 1445.72 L1106.01 87.9763 L1126.45 87.9763 L1126.45 1445.72 L1126.45 1445.72 L1126.45 1445.72 L1106.01 1445.72 L1106.01 1445.72  Z" fill="#93558a" fill-rule="evenodd" fill-opacity="1"/>
<polyline clip-path="url(#clip402)" style="stroke:#93558a; stroke-linecap:round; stroke-linejoin:round; stroke-width:4; stroke-opacity:1; fill:none" points="1106.01,1445.72 1106.01,87.9763 1126.45,87.9763 1126.45,1445.72 "/>
<path clip-path="url(#clip402)" d="M2271 1445.72 L2271 87.9763 L2291.44 87.9763 L2291.44 1445.72 L2291.44 1445.72 L2291.44 1445.72 L2271 1445.72 L2271 1445.72  Z" fill="#e7fa5a" fill-rule="evenodd" fill-opacity="1"/>
<polyline clip-path="url(#clip402)" style="stroke:#e7fa5a; stroke-linecap:round; stroke-linejoin:round; stroke-width:4; stroke-opacity:1; fill:none" points="2271,1445.72 2271,87.9763 2291.44,87.9763 2291.44,1445.72 "/>
<path clip-path="url(#clip402)" d="M1044.69 1445.72 L1044.69 87.9763 L1065.13 87.9763 L1065.13 1445.72 L1065.13 1445.72 L1065.13 1445.72 L1044.69 1445.72 L1044.69 1445.72  Z" fill="#88518d" fill-rule="evenodd" fill-opacity="1"/>
<polyline clip-path="url(#clip402)" style="stroke:#88518d; stroke-linecap:round; stroke-linejoin:round; stroke-width:4; stroke-opacity:1; fill:none" points="1044.69,1445.72 1044.69,87.9763 1065.13,87.9763 1065.13,1445.72 "/>
<path clip-path="url(#clip402)" d="M1862.23 1445.72 L1862.23 87.9763 L1882.67 87.9763 L1882.67 1445.72 L1882.67 1445.72 L1882.67 1445.72 L1862.23 1445.72 L1862.23 1445.72  Z" fill="#fba43c" fill-rule="evenodd" fill-opacity="1"/>
<polyline clip-path="url(#clip402)" style="stroke:#fba43c; stroke-linecap:round; stroke-linejoin:round; stroke-width:4; stroke-opacity:1; fill:none" points="1862.23,1445.72 1862.23,87.9763 1882.67,87.9763 1882.67,1445.72 "/>
<path clip-path="url(#clip402)" d="M1514.78 1445.72 L1514.78 87.9763 L1535.22 87.9763 L1535.22 1445.72 L1535.22 1445.72 L1535.22 1445.72 L1514.78 1445.72 L1514.78 1445.72  Z" fill="#de7064" fill-rule="evenodd" fill-opacity="1"/>
<polyline clip-path="url(#clip402)" style="stroke:#de7064; stroke-linecap:round; stroke-linejoin:round; stroke-width:4; stroke-opacity:1; fill:none" points="1514.78,1445.72 1514.78,87.9763 1535.22,87.9763 1535.22,1445.72 "/>
<path clip-path="url(#clip402)" d="M2046.18 1445.72 L2046.18 87.9763 L2066.62 87.9763 L2066.62 1445.72 L2066.62 1445.72 L2066.62 1445.72 L2046.18 1445.72 L2046.18 1445.72  Z" fill="#f8ca42" fill-rule="evenodd" fill-opacity="1"/>
<polyline clip-path="url(#clip402)" style="stroke:#f8ca42; stroke-linecap:round; stroke-linejoin:round; stroke-width:4; stroke-opacity:1; fill:none" points="2046.18,1445.72 2046.18,87.9763 2066.62,87.9763 2066.62,1445.72 "/>
<path clip-path="url(#clip402)" d="M1310.39 1445.72 L1310.39 87.9763 L1330.83 87.9763 L1330.83 1445.72 L1330.83 1445.72 L1330.83 1445.72 L1310.39 1445.72 L1310.39 1445.72  Z" fill="#b9617d" fill-rule="evenodd" fill-opacity="1"/>
<polyline clip-path="url(#clip402)" style="stroke:#b9617d; stroke-linecap:round; stroke-linejoin:round; stroke-width:4; stroke-opacity:1; fill:none" points="1310.39,1445.72 1310.39,87.9763 1330.83,87.9763 1330.83,1445.72 "/>
<path clip-path="url(#clip402)" d="M1473.9 1445.72 L1473.9 87.9763 L1494.34 87.9763 L1494.34 1445.72 L1494.34 1445.72 L1494.34 1445.72 L1473.9 1445.72 L1473.9 1445.72  Z" fill="#d76c6a" fill-rule="evenodd" fill-opacity="1"/>
<polyline clip-path="url(#clip402)" style="stroke:#d76c6a; stroke-linecap:round; stroke-linejoin:round; stroke-width:4; stroke-opacity:1; fill:none" points="1473.9,1445.72 1473.9,87.9763 1494.34,87.9763 1494.34,1445.72 "/>
<path clip-path="url(#clip402)" d="M390.659 1445.72 L390.659 87.9763 L411.098 87.9763 L411.098 1445.72 L411.098 1445.72 L411.098 1445.72 L390.659 1445.72 L390.659 1445.72  Z" fill="#092e58" fill-rule="evenodd" fill-opacity="1"/>
<polyline clip-path="url(#clip402)" style="stroke:#092e58; stroke-linecap:round; stroke-linejoin:round; stroke-width:4; stroke-opacity:1; fill:none" points="390.659,1445.72 390.659,87.9763 411.098,87.9763 411.098,1445.72 "/>
<path clip-path="url(#clip402)" d="M1616.97 1445.72 L1616.97 87.9763 L1637.41 87.9763 L1637.41 1445.72 L1637.41 1445.72 L1637.41 1445.72 L1616.97 1445.72 L1616.97 1445.72  Z" fill="#ed7b54" fill-rule="evenodd" fill-opacity="1"/>
<polyline clip-path="url(#clip402)" style="stroke:#ed7b54; stroke-linecap:round; stroke-linejoin:round; stroke-width:4; stroke-opacity:1; fill:none" points="1616.97,1445.72 1616.97,87.9763 1637.41,87.9763 1637.41,1445.72 "/>
<path clip-path="url(#clip402)" d="M1800.92 1445.72 L1800.92 87.9763 L1821.35 87.9763 L1821.35 1445.72 L1821.35 1445.72 L1821.35 1445.72 L1800.92 1445.72 L1800.92 1445.72  Z" fill="#fa993f" fill-rule="evenodd" fill-opacity="1"/>
<polyline clip-path="url(#clip402)" style="stroke:#fa993f; stroke-linecap:round; stroke-linejoin:round; stroke-width:4; stroke-opacity:1; fill:none" points="1800.92,1445.72 1800.92,87.9763 1821.35,87.9763 1821.35,1445.72 "/>
<path clip-path="url(#clip402)" d="M2250.56 1445.72 L2250.56 87.9763 L2271 87.9763 L2271 1445.72 L2271 1445.72 L2271 1445.72 L2250.56 1445.72 L2250.56 1445.72  Z" fill="#e9f558" fill-rule="evenodd" fill-opacity="1"/>
<polyline clip-path="url(#clip402)" style="stroke:#e9f558; stroke-linecap:round; stroke-linejoin:round; stroke-width:4; stroke-opacity:1; fill:none" points="2250.56,1445.72 2250.56,87.9763 2271,87.9763 2271,1445.72 "/>
<path clip-path="url(#clip402)" d="M615.483 1445.72 L615.483 87.9763 L635.921 87.9763 L635.921 1445.72 L635.921 1445.72 L635.921 1445.72 L615.483 1445.72 L615.483 1445.72  Z" fill="#35329c" fill-rule="evenodd" fill-opacity="1"/>
<polyline clip-path="url(#clip402)" style="stroke:#35329c; stroke-linecap:round; stroke-linejoin:round; stroke-width:4; stroke-opacity:1; fill:none" points="615.483,1445.72 615.483,87.9763 635.921,87.9763 635.921,1445.72 "/>
<path clip-path="url(#clip402)" d="M1453.46 1445.72 L1453.46 87.9763 L1473.9 87.9763 L1473.9 1445.72 L1473.9 1445.72 L1473.9 1445.72 L1453.46 1445.72 L1453.46 1445.72  Z" fill="#d46b6d" fill-rule="evenodd" fill-opacity="1"/>
<polyline clip-path="url(#clip402)" style="stroke:#d46b6d; stroke-linecap:round; stroke-linejoin:round; stroke-width:4; stroke-opacity:1; fill:none" points="1453.46,1445.72 1453.46,87.9763 1473.9,87.9763 1473.9,1445.72 "/>
<path clip-path="url(#clip402)" d="M431.536 1445.72 L431.536 87.9763 L451.975 87.9763 L451.975 1445.72 L451.975 1445.72 L451.975 1445.72 L431.536 1445.72 L431.536 1445.72  Z" fill="#0d3065" fill-rule="evenodd" fill-opacity="1"/>
<polyline clip-path="url(#clip402)" style="stroke:#0d3065; stroke-linecap:round; stroke-linejoin:round; stroke-width:4; stroke-opacity:1; fill:none" points="431.536,1445.72 431.536,87.9763 451.975,87.9763 451.975,1445.72 "/>
<path clip-path="url(#clip402)" d="M451.975 1445.72 L451.975 87.9763 L472.413 87.9763 L472.413 1445.72 L472.413 1445.72 L472.413 1445.72 L451.975 1445.72 L451.975 1445.72  Z" fill="#10316b" fill-rule="evenodd" fill-opacity="1"/>
<polyline clip-path="url(#clip402)" style="stroke:#10316b; stroke-linecap:round; stroke-linejoin:round; stroke-width:4; stroke-opacity:1; fill:none" points="451.975,1445.72 451.975,87.9763 472.413,87.9763 472.413,1445.72 "/>
<path clip-path="url(#clip402)" d="M513.29 1445.72 L513.29 87.9763 L533.729 87.9763 L533.729 1445.72 L533.729 1445.72 L533.729 1445.72 L513.29 1445.72 L513.29 1445.72  Z" fill="#1a3380" fill-rule="evenodd" fill-opacity="1"/>
<polyline clip-path="url(#clip402)" style="stroke:#1a3380; stroke-linecap:round; stroke-linejoin:round; stroke-width:4; stroke-opacity:1; fill:none" points="513.29,1445.72 513.29,87.9763 533.729,87.9763 533.729,1445.72 "/>
<path clip-path="url(#clip402)" d="M1228.64 1445.72 L1228.64 87.9763 L1249.08 87.9763 L1249.08 1445.72 L1249.08 1445.72 L1249.08 1445.72 L1228.64 1445.72 L1228.64 1445.72  Z" fill="#a95d84" fill-rule="evenodd" fill-opacity="1"/>
<polyline clip-path="url(#clip402)" style="stroke:#a95d84; stroke-linecap:round; stroke-linejoin:round; stroke-width:4; stroke-opacity:1; fill:none" points="1228.64,1445.72 1228.64,87.9763 1249.08,87.9763 1249.08,1445.72 "/>
<path clip-path="url(#clip402)" d="M697.237 1445.72 L697.237 87.9763 L717.675 87.9763 L717.675 1445.72 L717.675 1445.72 L717.675 1445.72 L697.237 1445.72 L697.237 1445.72  Z" fill="#4a369f" fill-rule="evenodd" fill-opacity="1"/>
<polyline clip-path="url(#clip402)" style="stroke:#4a369f; stroke-linecap:round; stroke-linejoin:round; stroke-width:4; stroke-opacity:1; fill:none" points="697.237,1445.72 697.237,87.9763 717.675,87.9763 717.675,1445.72 "/>
<path clip-path="url(#clip402)" d="M1923.55 1445.72 L1923.55 87.9763 L1943.99 87.9763 L1943.99 1445.72 L1943.99 1445.72 L1943.99 1445.72 L1923.55 1445.72 L1923.55 1445.72  Z" fill="#fbb13c" fill-rule="evenodd" fill-opacity="1"/>
<polyline clip-path="url(#clip402)" style="stroke:#fbb13c; stroke-linecap:round; stroke-linejoin:round; stroke-width:4; stroke-opacity:1; fill:none" points="1923.55,1445.72 1923.55,87.9763 1943.99,87.9763 1943.99,1445.72 "/>
<path clip-path="url(#clip402)" d="M2189.25 1445.72 L2189.25 87.9763 L2209.69 87.9763 L2209.69 1445.72 L2209.69 1445.72 L2209.69 1445.72 L2189.25 1445.72 L2189.25 1445.72  Z" fill="#efe851" fill-rule="evenodd" fill-opacity="1"/>
<polyline clip-path="url(#clip402)" style="stroke:#efe851; stroke-linecap:round; stroke-linejoin:round; stroke-width:4; stroke-opacity:1; fill:none" points="2189.25,1445.72 2189.25,87.9763 2209.69,87.9763 2209.69,1445.72 "/>
<path clip-path="url(#clip402)" d="M349.782 1445.72 L349.782 87.9763 L370.221 87.9763 L370.221 1445.72 L370.221 1445.72 L370.221 1445.72 L349.782 1445.72 L349.782 1445.72  Z" fill="#062b4d" fill-rule="evenodd" fill-opacity="1"/>
<polyline clip-path="url(#clip402)" style="stroke:#062b4d; stroke-linecap:round; stroke-linejoin:round; stroke-width:4; stroke-opacity:1; fill:none" points="349.782,1445.72 349.782,87.9763 370.221,87.9763 370.221,1445.72 "/>
<path clip-path="url(#clip402)" d="M1187.76 1445.72 L1187.76 87.9763 L1208.2 87.9763 L1208.2 1445.72 L1208.2 1445.72 L1208.2 1445.72 L1187.76 1445.72 L1187.76 1445.72  Z" fill="#a25a86" fill-rule="evenodd" fill-opacity="1"/>
<polyline clip-path="url(#clip402)" style="stroke:#a25a86; stroke-linecap:round; stroke-linejoin:round; stroke-width:4; stroke-opacity:1; fill:none" points="1187.76,1445.72 1187.76,87.9763 1208.2,87.9763 1208.2,1445.72 "/>
<path clip-path="url(#clip402)" d="M1964.42 1445.72 L1964.42 87.9763 L1984.86 87.9763 L1984.86 1445.72 L1984.86 1445.72 L1984.86 1445.72 L1964.42 1445.72 L1964.42 1445.72  Z" fill="#fab93d" fill-rule="evenodd" fill-opacity="1"/>
<polyline clip-path="url(#clip402)" style="stroke:#fab93d; stroke-linecap:round; stroke-linejoin:round; stroke-width:4; stroke-opacity:1; fill:none" points="1964.42,1445.72 1964.42,87.9763 1984.86,87.9763 1984.86,1445.72 "/>
<path clip-path="url(#clip402)" d="M1208.2 1445.72 L1208.2 87.9763 L1228.64 87.9763 L1228.64 1445.72 L1228.64 1445.72 L1228.64 1445.72 L1208.2 1445.72 L1208.2 1445.72  Z" fill="#a65c85" fill-rule="evenodd" fill-opacity="1"/>
<polyline clip-path="url(#clip402)" style="stroke:#a65c85; stroke-linecap:round; stroke-linejoin:round; stroke-width:4; stroke-opacity:1; fill:none" points="1208.2,1445.72 1208.2,87.9763 1228.64,87.9763 1228.64,1445.72 "/>
<path clip-path="url(#clip402)" d="M1065.13 1445.72 L1065.13 87.9763 L1085.57 87.9763 L1085.57 1445.72 L1085.57 1445.72 L1085.57 1445.72 L1065.13 1445.72 L1065.13 1445.72  Z" fill="#8c538c" fill-rule="evenodd" fill-opacity="1"/>
<polyline clip-path="url(#clip402)" style="stroke:#8c538c; stroke-linecap:round; stroke-linejoin:round; stroke-width:4; stroke-opacity:1; fill:none" points="1065.13,1445.72 1065.13,87.9763 1085.57,87.9763 1085.57,1445.72 "/>
<path clip-path="url(#clip402)" d="M1167.32 1445.72 L1167.32 87.9763 L1187.76 87.9763 L1187.76 1445.72 L1187.76 1445.72 L1187.76 1445.72 L1167.32 1445.72 L1167.32 1445.72  Z" fill="#9e5987" fill-rule="evenodd" fill-opacity="1"/>
<polyline clip-path="url(#clip402)" style="stroke:#9e5987; stroke-linecap:round; stroke-linejoin:round; stroke-width:4; stroke-opacity:1; fill:none" points="1167.32,1445.72 1167.32,87.9763 1187.76,87.9763 1187.76,1445.72 "/>
<path clip-path="url(#clip402)" d="M1433.02 1445.72 L1433.02 87.9763 L1453.46 87.9763 L1453.46 1445.72 L1453.46 1445.72 L1453.46 1445.72 L1433.02 1445.72 L1433.02 1445.72  Z" fill="#d06970" fill-rule="evenodd" fill-opacity="1"/>
<polyline clip-path="url(#clip402)" style="stroke:#d06970; stroke-linecap:round; stroke-linejoin:round; stroke-width:4; stroke-opacity:1; fill:none" points="1433.02,1445.72 1433.02,87.9763 1453.46,87.9763 1453.46,1445.72 "/>
<path clip-path="url(#clip402)" d="M819.868 1445.72 L819.868 87.9763 L840.306 87.9763 L840.306 1445.72 L840.306 1445.72 L840.306 1445.72 L819.868 1445.72 L819.868 1445.72  Z" fill="#624097" fill-rule="evenodd" fill-opacity="1"/>
<polyline clip-path="url(#clip402)" style="stroke:#624097; stroke-linecap:round; stroke-linejoin:round; stroke-width:4; stroke-opacity:1; fill:none" points="819.868,1445.72 819.868,87.9763 840.306,87.9763 840.306,1445.72 "/>
<path clip-path="url(#clip402)" d="M554.167 1445.72 L554.167 87.9763 L574.606 87.9763 L574.606 1445.72 L574.606 1445.72 L574.606 1445.72 L554.167 1445.72 L554.167 1445.72  Z" fill="#24338d" fill-rule="evenodd" fill-opacity="1"/>
<polyline clip-path="url(#clip402)" style="stroke:#24338d; stroke-linecap:round; stroke-linejoin:round; stroke-width:4; stroke-opacity:1; fill:none" points="554.167,1445.72 554.167,87.9763 574.606,87.9763 574.606,1445.72 "/>
<path clip-path="url(#clip402)" d="M1269.51 1445.72 L1269.51 87.9763 L1289.95 87.9763 L1289.95 1445.72 L1289.95 1445.72 L1289.95 1445.72 L1269.51 1445.72 L1269.51 1445.72  Z" fill="#b15f81" fill-rule="evenodd" fill-opacity="1"/>
<polyline clip-path="url(#clip402)" style="stroke:#b15f81; stroke-linecap:round; stroke-linejoin:round; stroke-width:4; stroke-opacity:1; fill:none" points="1269.51,1445.72 1269.51,87.9763 1289.95,87.9763 1289.95,1445.72 "/>
<path clip-path="url(#clip402)" d="M1780.48 1445.72 L1780.48 87.9763 L1800.92 87.9763 L1800.92 1445.72 L1800.92 1445.72 L1800.92 1445.72 L1780.48 1445.72 L1780.48 1445.72  Z" fill="#f99540" fill-rule="evenodd" fill-opacity="1"/>
<polyline clip-path="url(#clip402)" style="stroke:#f99540; stroke-linecap:round; stroke-linejoin:round; stroke-width:4; stroke-opacity:1; fill:none" points="1780.48,1445.72 1780.48,87.9763 1800.92,87.9763 1800.92,1445.72 "/>
<path clip-path="url(#clip402)" d="M1494.34 1445.72 L1494.34 87.9763 L1514.78 87.9763 L1514.78 1445.72 L1514.78 1445.72 L1514.78 1445.72 L1494.34 1445.72 L1494.34 1445.72  Z" fill="#db6e67" fill-rule="evenodd" fill-opacity="1"/>
<polyline clip-path="url(#clip402)" style="stroke:#db6e67; stroke-linecap:round; stroke-linejoin:round; stroke-width:4; stroke-opacity:1; fill:none" points="1494.34,1445.72 1494.34,87.9763 1514.78,87.9763 1514.78,1445.72 "/>
<path clip-path="url(#clip402)" d="M983.376 1445.72 L983.376 87.9763 L1003.81 87.9763 L1003.81 1445.72 L1003.81 1445.72 L1003.81 1445.72 L983.376 1445.72 L983.376 1445.72  Z" fill="#7e4d8f" fill-rule="evenodd" fill-opacity="1"/>
<polyline clip-path="url(#clip402)" style="stroke:#7e4d8f; stroke-linecap:round; stroke-linejoin:round; stroke-width:4; stroke-opacity:1; fill:none" points="983.376,1445.72 983.376,87.9763 1003.81,87.9763 1003.81,1445.72 "/>
<path clip-path="url(#clip402)" d="M472.413 1445.72 L472.413 87.9763 L492.852 87.9763 L492.852 1445.72 L492.852 1445.72 L492.852 1445.72 L472.413 1445.72 L472.413 1445.72  Z" fill="#133272" fill-rule="evenodd" fill-opacity="1"/>
<polyline clip-path="url(#clip402)" style="stroke:#133272; stroke-linecap:round; stroke-linejoin:round; stroke-width:4; stroke-opacity:1; fill:none" points="472.413,1445.72 472.413,87.9763 492.852,87.9763 492.852,1445.72 "/>
<path clip-path="url(#clip402)" d="M799.429 1445.72 L799.429 87.9763 L819.868 87.9763 L819.868 1445.72 L819.868 1445.72 L819.868 1445.72 L799.429 1445.72 L799.429 1445.72  Z" fill="#5e3f99" fill-rule="evenodd" fill-opacity="1"/>
<polyline clip-path="url(#clip402)" style="stroke:#5e3f99; stroke-linecap:round; stroke-linejoin:round; stroke-width:4; stroke-opacity:1; fill:none" points="799.429,1445.72 799.429,87.9763 819.868,87.9763 819.868,1445.72 "/>
<path clip-path="url(#clip402)" d="M492.852 1445.72 L492.852 87.9763 L513.29 87.9763 L513.29 1445.72 L513.29 1445.72 L513.29 1445.72 L492.852 1445.72 L492.852 1445.72  Z" fill="#163379" fill-rule="evenodd" fill-opacity="1"/>
<polyline clip-path="url(#clip402)" style="stroke:#163379; stroke-linecap:round; stroke-linejoin:round; stroke-width:4; stroke-opacity:1; fill:none" points="492.852,1445.72 492.852,87.9763 513.29,87.9763 513.29,1445.72 "/>
<path clip-path="url(#clip402)" d="M2005.3 1445.72 L2005.3 87.9763 L2025.74 87.9763 L2025.74 1445.72 L2025.74 1445.72 L2025.74 1445.72 L2005.3 1445.72 L2005.3 1445.72  Z" fill="#f9c140" fill-rule="evenodd" fill-opacity="1"/>
<polyline clip-path="url(#clip402)" style="stroke:#f9c140; stroke-linecap:round; stroke-linejoin:round; stroke-width:4; stroke-opacity:1; fill:none" points="2005.3,1445.72 2005.3,87.9763 2025.74,87.9763 2025.74,1445.72 "/>
<path clip-path="url(#clip402)" d="M1392.15 1445.72 L1392.15 87.9763 L1412.58 87.9763 L1412.58 1445.72 L1412.58 1445.72 L1412.58 1445.72 L1392.15 1445.72 L1392.15 1445.72  Z" fill="#c86675" fill-rule="evenodd" fill-opacity="1"/>
<polyline clip-path="url(#clip402)" style="stroke:#c86675; stroke-linecap:round; stroke-linejoin:round; stroke-width:4; stroke-opacity:1; fill:none" points="1392.15,1445.72 1392.15,87.9763 1412.58,87.9763 1412.58,1445.72 "/>
<path clip-path="url(#clip402)" d="M595.044 1445.72 L595.044 87.9763 L615.483 87.9763 L615.483 1445.72 L615.483 1445.72 L615.483 1445.72 L595.044 1445.72 L595.044 1445.72  Z" fill="#2f3398" fill-rule="evenodd" fill-opacity="1"/>
<polyline clip-path="url(#clip402)" style="stroke:#2f3398; stroke-linecap:round; stroke-linejoin:round; stroke-width:4; stroke-opacity:1; fill:none" points="595.044,1445.72 595.044,87.9763 615.483,87.9763 615.483,1445.72 "/>
<path clip-path="url(#clip402)" d="M922.06 1445.72 L922.06 87.9763 L942.499 87.9763 L942.499 1445.72 L942.499 1445.72 L942.499 1445.72 L922.06 1445.72 L922.06 1445.72  Z" fill="#734992" fill-rule="evenodd" fill-opacity="1"/>
<polyline clip-path="url(#clip402)" style="stroke:#734992; stroke-linecap:round; stroke-linejoin:round; stroke-width:4; stroke-opacity:1; fill:none" points="922.06,1445.72 922.06,87.9763 942.499,87.9763 942.499,1445.72 "/>
<path clip-path="url(#clip402)" d="M656.36 1445.72 L656.36 87.9763 L676.798 87.9763 L676.798 1445.72 L676.798 1445.72 L676.798 1445.72 L656.36 1445.72 L656.36 1445.72  Z" fill="#40349f" fill-rule="evenodd" fill-opacity="1"/>
<polyline clip-path="url(#clip402)" style="stroke:#40349f; stroke-linecap:round; stroke-linejoin:round; stroke-width:4; stroke-opacity:1; fill:none" points="656.36,1445.72 656.36,87.9763 676.798,87.9763 676.798,1445.72 "/>
<path clip-path="url(#clip402)" d="M942.499 1445.72 L942.499 87.9763 L962.937 87.9763 L962.937 1445.72 L962.937 1445.72 L962.937 1445.72 L942.499 1445.72 L942.499 1445.72  Z" fill="#774a91" fill-rule="evenodd" fill-opacity="1"/>
<polyline clip-path="url(#clip402)" style="stroke:#774a91; stroke-linecap:round; stroke-linejoin:round; stroke-width:4; stroke-opacity:1; fill:none" points="942.499,1445.72 942.499,87.9763 962.937,87.9763 962.937,1445.72 "/>
<path clip-path="url(#clip402)" d="M574.606 1445.72 L574.606 87.9763 L595.044 87.9763 L595.044 1445.72 L595.044 1445.72 L595.044 1445.72 L574.606 1445.72 L574.606 1445.72  Z" fill="#2a3393" fill-rule="evenodd" fill-opacity="1"/>
<polyline clip-path="url(#clip402)" style="stroke:#2a3393; stroke-linecap:round; stroke-linejoin:round; stroke-width:4; stroke-opacity:1; fill:none" points="574.606,1445.72 574.606,87.9763 595.044,87.9763 595.044,1445.72 "/>
<path clip-path="url(#clip402)" d="M308.905 1445.72 L308.905 87.9763 L329.344 87.9763 L329.344 1445.72 L329.344 1445.72 L329.344 1445.72 L308.905 1445.72 L308.905 1445.72  Z" fill="#052842" fill-rule="evenodd" fill-opacity="1"/>
<polyline clip-path="url(#clip402)" style="stroke:#052842; stroke-linecap:round; stroke-linejoin:round; stroke-width:4; stroke-opacity:1; fill:none" points="308.905,1445.72 308.905,87.9763 329.344,87.9763 329.344,1445.72 "/>
<path clip-path="url(#clip402)" d="M533.729 1445.72 L533.729 87.9763 L554.167 87.9763 L554.167 1445.72 L554.167 1445.72 L554.167 1445.72 L533.729 1445.72 L533.729 1445.72  Z" fill="#1f3387" fill-rule="evenodd" fill-opacity="1"/>
<polyline clip-path="url(#clip402)" style="stroke:#1f3387; stroke-linecap:round; stroke-linejoin:round; stroke-width:4; stroke-opacity:1; fill:none" points="533.729,1445.72 533.729,87.9763 554.167,87.9763 554.167,1445.72 "/>
<path clip-path="url(#clip402)" d="M717.675 1445.72 L717.675 87.9763 L738.114 87.9763 L738.114 1445.72 L738.114 1445.72 L738.114 1445.72 L717.675 1445.72 L717.675 1445.72  Z" fill="#4e389e" fill-rule="evenodd" fill-opacity="1"/>
<polyline clip-path="url(#clip402)" style="stroke:#4e389e; stroke-linecap:round; stroke-linejoin:round; stroke-width:4; stroke-opacity:1; fill:none" points="717.675,1445.72 717.675,87.9763 738.114,87.9763 738.114,1445.72 "/>
<path clip-path="url(#clip402)" d="M1412.58 1445.72 L1412.58 87.9763 L1433.02 87.9763 L1433.02 1445.72 L1433.02 1445.72 L1433.02 1445.72 L1412.58 1445.72 L1412.58 1445.72  Z" fill="#cc6872" fill-rule="evenodd" fill-opacity="1"/>
<polyline clip-path="url(#clip402)" style="stroke:#cc6872; stroke-linecap:round; stroke-linejoin:round; stroke-width:4; stroke-opacity:1; fill:none" points="1412.58,1445.72 1412.58,87.9763 1433.02,87.9763 1433.02,1445.72 "/>
<path clip-path="url(#clip402)" d="M778.991 1445.72 L778.991 87.9763 L799.429 87.9763 L799.429 1445.72 L799.429 1445.72 L799.429 1445.72 L778.991 1445.72 L778.991 1445.72  Z" fill="#5a3d9a" fill-rule="evenodd" fill-opacity="1"/>
<polyline clip-path="url(#clip402)" style="stroke:#5a3d9a; stroke-linecap:round; stroke-linejoin:round; stroke-width:4; stroke-opacity:1; fill:none" points="778.991,1445.72 778.991,87.9763 799.429,87.9763 799.429,1445.72 "/>
<path clip-path="url(#clip402)" d="M840.306 1445.72 L840.306 87.9763 L860.745 87.9763 L860.745 1445.72 L860.745 1445.72 L860.745 1445.72 L840.306 1445.72 L840.306 1445.72  Z" fill="#654296" fill-rule="evenodd" fill-opacity="1"/>
<polyline clip-path="url(#clip402)" style="stroke:#654296; stroke-linecap:round; stroke-linejoin:round; stroke-width:4; stroke-opacity:1; fill:none" points="840.306,1445.72 840.306,87.9763 860.745,87.9763 860.745,1445.72 "/>
<path clip-path="url(#clip402)" d="M288.467 1445.72 L288.467 87.9763 L308.905 87.9763 L308.905 1445.72 L308.905 1445.72 L308.905 1445.72 L288.467 1445.72 L288.467 1445.72  Z" fill="#04263d" fill-rule="evenodd" fill-opacity="1"/>
<polyline clip-path="url(#clip402)" style="stroke:#04263d; stroke-linecap:round; stroke-linejoin:round; stroke-width:4; stroke-opacity:1; fill:none" points="288.467,1445.72 288.467,87.9763 308.905,87.9763 308.905,1445.72 "/>
<path clip-path="url(#clip402)" d="M268.028 1445.72 L268.028 87.9763 L288.467 87.9763 L288.467 1445.72 L288.467 1445.72 L288.467 1445.72 L268.028 1445.72 L268.028 1445.72  Z" fill="#042538" fill-rule="evenodd" fill-opacity="1"/>
<polyline clip-path="url(#clip402)" style="stroke:#042538; stroke-linecap:round; stroke-linejoin:round; stroke-width:4; stroke-opacity:1; fill:none" points="268.028,1445.72 268.028,87.9763 288.467,87.9763 288.467,1445.72 "/>
<path clip-path="url(#clip402)" d="M1003.81 1445.72 L1003.81 87.9763 L1024.25 87.9763 L1024.25 1445.72 L1024.25 1445.72 L1024.25 1445.72 L1003.81 1445.72 L1003.81 1445.72  Z" fill="#814f8e" fill-rule="evenodd" fill-opacity="1"/>
<polyline clip-path="url(#clip402)" style="stroke:#814f8e; stroke-linecap:round; stroke-linejoin:round; stroke-width:4; stroke-opacity:1; fill:none" points="1003.81,1445.72 1003.81,87.9763 1024.25,87.9763 1024.25,1445.72 "/>
<path clip-path="url(#clip402)" d="M2209.69 1445.72 L2209.69 87.9763 L2230.12 87.9763 L2230.12 1445.72 L2230.12 1445.72 L2230.12 1445.72 L2209.69 1445.72 L2209.69 1445.72  Z" fill="#eded53" fill-rule="evenodd" fill-opacity="1"/>
<polyline clip-path="url(#clip402)" style="stroke:#eded53; stroke-linecap:round; stroke-linejoin:round; stroke-width:4; stroke-opacity:1; fill:none" points="2209.69,1445.72 2209.69,87.9763 2230.12,87.9763 2230.12,1445.72 "/>
<path clip-path="url(#clip402)" d="M1841.79 1445.72 L1841.79 87.9763 L1862.23 87.9763 L1862.23 1445.72 L1862.23 1445.72 L1862.23 1445.72 L1841.79 1445.72 L1841.79 1445.72  Z" fill="#fba03d" fill-rule="evenodd" fill-opacity="1"/>
<polyline clip-path="url(#clip402)" style="stroke:#fba03d; stroke-linecap:round; stroke-linejoin:round; stroke-width:4; stroke-opacity:1; fill:none" points="1841.79,1445.72 1841.79,87.9763 1862.23,87.9763 1862.23,1445.72 "/>
<path clip-path="url(#clip402)" d="M2066.62 1445.72 L2066.62 87.9763 L2087.06 87.9763 L2087.06 1445.72 L2087.06 1445.72 L2087.06 1445.72 L2066.62 1445.72 L2066.62 1445.72  Z" fill="#f7ce44" fill-rule="evenodd" fill-opacity="1"/>
<polyline clip-path="url(#clip402)" style="stroke:#f7ce44; stroke-linecap:round; stroke-linejoin:round; stroke-width:4; stroke-opacity:1; fill:none" points="2066.62,1445.72 2066.62,87.9763 2087.06,87.9763 2087.06,1445.72 "/>
<path clip-path="url(#clip402)" d="M1984.86 1445.72 L1984.86 87.9763 L2005.3 87.9763 L2005.3 1445.72 L2005.3 1445.72 L2005.3 1445.72 L1984.86 1445.72 L1984.86 1445.72  Z" fill="#fabd3e" fill-rule="evenodd" fill-opacity="1"/>
<polyline clip-path="url(#clip402)" style="stroke:#fabd3e; stroke-linecap:round; stroke-linejoin:round; stroke-width:4; stroke-opacity:1; fill:none" points="1984.86,1445.72 1984.86,87.9763 2005.3,87.9763 2005.3,1445.72 "/>
<path clip-path="url(#clip402)" d="M635.921 1445.72 L635.921 87.9763 L656.36 87.9763 L656.36 1445.72 L656.36 1445.72 L656.36 1445.72 L635.921 1445.72 L635.921 1445.72  Z" fill="#3b339e" fill-rule="evenodd" fill-opacity="1"/>
<polyline clip-path="url(#clip402)" style="stroke:#3b339e; stroke-linecap:round; stroke-linejoin:round; stroke-width:4; stroke-opacity:1; fill:none" points="635.921,1445.72 635.921,87.9763 656.36,87.9763 656.36,1445.72 "/>
</svg>
