<?xml version="1.0" encoding="utf-8"?>
<svg xmlns="http://www.w3.org/2000/svg" xmlns:xlink="http://www.w3.org/1999/xlink" width="600" height="400" viewBox="0 0 2400 1600">
<defs>
  <clipPath id="clip080">
    <rect x="0" y="0" width="2400" height="1600"/>
  </clipPath>
</defs>
<path clip-path="url(#clip080)" d="M0 1600 L2400 1600 L2400 0 L0 0  Z" fill="#ffffff" fill-rule="evenodd" fill-opacity="1"/>
<defs>
  <clipPath id="clip081">
    <rect x="480" y="0" width="1681" height="1600"/>
  </clipPath>
</defs>
<path clip-path="url(#clip080)" d="M112.177 1486.45 L2352.76 1486.45 L2352.76 47.2441 L112.177 47.2441  Z" fill="#ffffff" fill-rule="evenodd" fill-opacity="1"/>
<defs>
  <clipPath id="clip082">
    <rect x="112" y="47" width="2242" height="1440"/>
  </clipPath>
</defs>
<polyline clip-path="url(#clip082)" style="stroke:#000000; stroke-linecap:round; stroke-linejoin:round; stroke-width:2; stroke-opacity:0.1; fill:none" points="171.968,1486.45 171.968,47.2441 "/>
<polyline clip-path="url(#clip082)" style="stroke:#000000; stroke-linecap:round; stroke-linejoin:round; stroke-width:2; stroke-opacity:0.1; fill:none" points="702.217,1486.45 702.217,47.2441 "/>
<polyline clip-path="url(#clip082)" style="stroke:#000000; stroke-linecap:round; stroke-linejoin:round; stroke-width:2; stroke-opacity:0.1; fill:none" points="1232.47,1486.45 1232.47,47.2441 "/>
<polyline clip-path="url(#clip082)" style="stroke:#000000; stroke-linecap:round; stroke-linejoin:round; stroke-width:2; stroke-opacity:0.1; fill:none" points="1762.72,1486.45 1762.72,47.2441 "/>
<polyline clip-path="url(#clip082)" style="stroke:#000000; stroke-linecap:round; stroke-linejoin:round; stroke-width:2; stroke-opacity:0.1; fill:none" points="2292.97,1486.45 2292.97,47.2441 "/>
<polyline clip-path="url(#clip082)" style="stroke:#000000; stroke-linecap:round; stroke-linejoin:round; stroke-width:2; stroke-opacity:0.1; fill:none" points="112.177,1445.72 2352.76,1445.72 "/>
<polyline clip-path="url(#clip082)" style="stroke:#000000; stroke-linecap:round; stroke-linejoin:round; stroke-width:2; stroke-opacity:0.1; fill:none" points="112.177,1229.62 2352.76,1229.62 "/>
<polyline clip-path="url(#clip082)" style="stroke:#000000; stroke-linecap:round; stroke-linejoin:round; stroke-width:2; stroke-opacity:0.1; fill:none" points="112.177,1013.53 2352.76,1013.53 "/>
<polyline clip-path="url(#clip082)" style="stroke:#000000; stroke-linecap:round; stroke-linejoin:round; stroke-width:2; stroke-opacity:0.1; fill:none" points="112.177,797.443 2352.76,797.443 "/>
<polyline clip-path="url(#clip082)" style="stroke:#000000; stroke-linecap:round; stroke-linejoin:round; stroke-width:2; stroke-opacity:0.1; fill:none" points="112.177,581.352 2352.76,581.352 "/>
<polyline clip-path="url(#clip082)" style="stroke:#000000; stroke-linecap:round; stroke-linejoin:round; stroke-width:2; stroke-opacity:0.1; fill:none" points="112.177,365.261 2352.76,365.261 "/>
<polyline clip-path="url(#clip082)" style="stroke:#000000; stroke-linecap:round; stroke-linejoin:round; stroke-width:2; stroke-opacity:0.1; fill:none" points="112.177,149.17 2352.76,149.17 "/>
<polyline clip-path="url(#clip080)" style="stroke:#000000; stroke-linecap:round; stroke-linejoin:round; stroke-width:4; stroke-opacity:1; fill:none" points="112.177,1486.45 2352.76,1486.45 "/>
<polyline clip-path="url(#clip080)" style="stroke:#000000; stroke-linecap:round; stroke-linejoin:round; stroke-width:4; stroke-opacity:1; fill:none" points="171.968,1486.45 171.968,1467.55 "/>
<polyline clip-path="url(#clip080)" style="stroke:#000000; stroke-linecap:round; stroke-linejoin:round; stroke-width:4; stroke-opacity:1; fill:none" points="702.217,1486.45 702.217,1467.55 "/>
<polyline clip-path="url(#clip080)" style="stroke:#000000; stroke-linecap:round; stroke-linejoin:round; stroke-width:4; stroke-opacity:1; fill:none" points="1232.47,1486.45 1232.47,1467.55 "/>
<polyline clip-path="url(#clip080)" style="stroke:#000000; stroke-linecap:round; stroke-linejoin:round; stroke-width:4; stroke-opacity:1; fill:none" points="1762.72,1486.45 1762.72,1467.55 "/>
<polyline clip-path="url(#clip080)" style="stroke:#000000; stroke-linecap:round; stroke-linejoin:round; stroke-width:4; stroke-opacity:1; fill:none" points="2292.97,1486.45 2292.97,1467.55 "/>
<path clip-path="url(#clip080)" d="M118.496 1532.02 L148.171 1532.02 L148.171 1535.95 L118.496 1535.95 L118.496 1532.02 Z" fill="#000000" fill-rule="nonzero" fill-opacity="1" /><path clip-path="url(#clip080)" d="M159.074 1544.91 L166.713 1544.91 L166.713 1518.55 L158.403 1520.21 L158.403 1515.95 L166.667 1514.29 L171.343 1514.29 L171.343 1544.91 L178.981 1544.91 L178.981 1548.85 L159.074 1548.85 L159.074 1544.91 Z" fill="#000000" fill-rule="nonzero" fill-opacity="1" /><path clip-path="url(#clip080)" d="M188.426 1542.97 L193.31 1542.97 L193.31 1548.85 L188.426 1548.85 L188.426 1542.97 Z" fill="#000000" fill-rule="nonzero" fill-opacity="1" /><path clip-path="url(#clip080)" d="M213.495 1517.37 Q209.884 1517.37 208.055 1520.93 Q206.25 1524.47 206.25 1531.6 Q206.25 1538.71 208.055 1542.27 Q209.884 1545.82 213.495 1545.82 Q217.129 1545.82 218.935 1542.27 Q220.764 1538.71 220.764 1531.6 Q220.764 1524.47 218.935 1520.93 Q217.129 1517.37 213.495 1517.37 M213.495 1513.66 Q219.305 1513.66 222.361 1518.27 Q225.44 1522.85 225.44 1531.6 Q225.44 1540.33 222.361 1544.94 Q219.305 1549.52 213.495 1549.52 Q207.685 1549.52 204.606 1544.94 Q201.551 1540.33 201.551 1531.6 Q201.551 1522.85 204.606 1518.27 Q207.685 1513.66 213.495 1513.66 Z" fill="#000000" fill-rule="nonzero" fill-opacity="1" /><path clip-path="url(#clip080)" d="M649.243 1532.02 L678.919 1532.02 L678.919 1535.95 L649.243 1535.95 L649.243 1532.02 Z" fill="#000000" fill-rule="nonzero" fill-opacity="1" /><path clip-path="url(#clip080)" d="M699.011 1517.37 Q695.4 1517.37 693.571 1520.93 Q691.766 1524.47 691.766 1531.6 Q691.766 1538.71 693.571 1542.27 Q695.4 1545.82 699.011 1545.82 Q702.645 1545.82 704.451 1542.27 Q706.28 1538.71 706.28 1531.6 Q706.28 1524.47 704.451 1520.93 Q702.645 1517.37 699.011 1517.37 M699.011 1513.66 Q704.821 1513.66 707.877 1518.27 Q710.955 1522.85 710.955 1531.6 Q710.955 1540.33 707.877 1544.94 Q704.821 1549.52 699.011 1549.52 Q693.201 1549.52 690.122 1544.94 Q687.067 1540.33 687.067 1531.6 Q687.067 1522.85 690.122 1518.27 Q693.201 1513.66 699.011 1513.66 Z" fill="#000000" fill-rule="nonzero" fill-opacity="1" /><path clip-path="url(#clip080)" d="M719.173 1542.97 L724.057 1542.97 L724.057 1548.85 L719.173 1548.85 L719.173 1542.97 Z" fill="#000000" fill-rule="nonzero" fill-opacity="1" /><path clip-path="url(#clip080)" d="M734.289 1514.29 L752.645 1514.29 L752.645 1518.22 L738.571 1518.22 L738.571 1526.7 Q739.59 1526.35 740.608 1526.19 Q741.627 1526 742.645 1526 Q748.432 1526 751.812 1529.17 Q755.191 1532.34 755.191 1537.76 Q755.191 1543.34 751.719 1546.44 Q748.247 1549.52 741.928 1549.52 Q739.752 1549.52 737.483 1549.15 Q735.238 1548.78 732.83 1548.04 L732.83 1543.34 Q734.914 1544.47 737.136 1545.03 Q739.358 1545.58 741.835 1545.58 Q745.84 1545.58 748.177 1543.48 Q750.515 1541.37 750.515 1537.76 Q750.515 1534.15 748.177 1532.04 Q745.84 1529.94 741.835 1529.94 Q739.96 1529.94 738.085 1530.35 Q736.233 1530.77 734.289 1531.65 L734.289 1514.29 Z" fill="#000000" fill-rule="nonzero" fill-opacity="1" /><path clip-path="url(#clip080)" d="M1209.85 1517.37 Q1206.24 1517.37 1204.41 1520.93 Q1202.61 1524.47 1202.61 1531.6 Q1202.61 1538.71 1204.41 1542.27 Q1206.24 1545.82 1209.85 1545.82 Q1213.49 1545.82 1215.29 1542.27 Q1217.12 1538.71 1217.12 1531.6 Q1217.12 1524.47 1215.29 1520.93 Q1213.49 1517.37 1209.85 1517.37 M1209.85 1513.66 Q1215.66 1513.66 1218.72 1518.27 Q1221.8 1522.85 1221.8 1531.6 Q1221.8 1540.33 1218.72 1544.94 Q1215.66 1549.52 1209.85 1549.52 Q1204.04 1549.52 1200.96 1544.94 Q1197.91 1540.33 1197.91 1531.6 Q1197.91 1522.85 1200.96 1518.27 Q1204.04 1513.66 1209.85 1513.66 Z" fill="#000000" fill-rule="nonzero" fill-opacity="1" /><path clip-path="url(#clip080)" d="M1230.01 1542.97 L1234.9 1542.97 L1234.9 1548.85 L1230.01 1548.85 L1230.01 1542.97 Z" fill="#000000" fill-rule="nonzero" fill-opacity="1" /><path clip-path="url(#clip080)" d="M1255.08 1517.37 Q1251.47 1517.37 1249.64 1520.93 Q1247.84 1524.47 1247.84 1531.6 Q1247.84 1538.71 1249.64 1542.27 Q1251.47 1545.82 1255.08 1545.82 Q1258.72 1545.82 1260.52 1542.27 Q1262.35 1538.71 1262.35 1531.6 Q1262.35 1524.47 1260.52 1520.93 Q1258.72 1517.37 1255.08 1517.37 M1255.08 1513.66 Q1260.89 1513.66 1263.95 1518.27 Q1267.03 1522.85 1267.03 1531.6 Q1267.03 1540.33 1263.95 1544.94 Q1260.89 1549.52 1255.08 1549.52 Q1249.27 1549.52 1246.19 1544.94 Q1243.14 1540.33 1243.14 1531.6 Q1243.14 1522.85 1246.19 1518.27 Q1249.27 1513.66 1255.08 1513.66 Z" fill="#000000" fill-rule="nonzero" fill-opacity="1" /><path clip-path="url(#clip080)" d="M1740.6 1517.37 Q1736.99 1517.37 1735.16 1520.93 Q1733.35 1524.47 1733.35 1531.6 Q1733.35 1538.71 1735.16 1542.27 Q1736.99 1545.82 1740.6 1545.82 Q1744.23 1545.82 1746.04 1542.27 Q1747.87 1538.71 1747.87 1531.6 Q1747.87 1524.47 1746.04 1520.93 Q1744.23 1517.37 1740.6 1517.37 M1740.6 1513.66 Q1746.41 1513.66 1749.46 1518.27 Q1752.54 1522.85 1752.54 1531.6 Q1752.54 1540.33 1749.46 1544.94 Q1746.41 1549.52 1740.6 1549.52 Q1734.79 1549.52 1731.71 1544.94 Q1728.65 1540.33 1728.65 1531.6 Q1728.65 1522.85 1731.71 1518.27 Q1734.79 1513.66 1740.6 1513.66 Z" fill="#000000" fill-rule="nonzero" fill-opacity="1" /><path clip-path="url(#clip080)" d="M1760.76 1542.97 L1765.64 1542.97 L1765.64 1548.85 L1760.76 1548.85 L1760.76 1542.97 Z" fill="#000000" fill-rule="nonzero" fill-opacity="1" /><path clip-path="url(#clip080)" d="M1775.88 1514.29 L1794.23 1514.29 L1794.23 1518.22 L1780.16 1518.22 L1780.16 1526.7 Q1781.18 1526.35 1782.2 1526.19 Q1783.21 1526 1784.23 1526 Q1790.02 1526 1793.4 1529.17 Q1796.78 1532.34 1796.78 1537.76 Q1796.78 1543.34 1793.31 1546.44 Q1789.83 1549.52 1783.51 1549.52 Q1781.34 1549.52 1779.07 1549.15 Q1776.82 1548.78 1774.42 1548.04 L1774.42 1543.34 Q1776.5 1544.47 1778.72 1545.03 Q1780.95 1545.58 1783.42 1545.58 Q1787.43 1545.58 1789.76 1543.48 Q1792.1 1541.37 1792.1 1537.76 Q1792.1 1534.15 1789.76 1532.04 Q1787.43 1529.94 1783.42 1529.94 Q1781.55 1529.94 1779.67 1530.35 Q1777.82 1530.77 1775.88 1531.65 L1775.88 1514.29 Z" fill="#000000" fill-rule="nonzero" fill-opacity="1" /><path clip-path="url(#clip080)" d="M2260.12 1544.91 L2267.76 1544.91 L2267.76 1518.55 L2259.45 1520.21 L2259.45 1515.95 L2267.71 1514.29 L2272.39 1514.29 L2272.39 1544.91 L2280.03 1544.91 L2280.03 1548.85 L2260.12 1548.85 L2260.12 1544.91 Z" fill="#000000" fill-rule="nonzero" fill-opacity="1" /><path clip-path="url(#clip080)" d="M2289.47 1542.97 L2294.35 1542.97 L2294.35 1548.85 L2289.47 1548.85 L2289.47 1542.97 Z" fill="#000000" fill-rule="nonzero" fill-opacity="1" /><path clip-path="url(#clip080)" d="M2314.54 1517.37 Q2310.93 1517.37 2309.1 1520.93 Q2307.29 1524.47 2307.29 1531.6 Q2307.29 1538.71 2309.1 1542.27 Q2310.93 1545.82 2314.54 1545.82 Q2318.17 1545.82 2319.98 1542.27 Q2321.81 1538.71 2321.81 1531.6 Q2321.81 1524.47 2319.98 1520.93 Q2318.17 1517.37 2314.54 1517.37 M2314.54 1513.66 Q2320.35 1513.66 2323.41 1518.27 Q2326.48 1522.85 2326.48 1531.6 Q2326.48 1540.33 2323.41 1544.94 Q2320.35 1549.52 2314.54 1549.52 Q2308.73 1549.52 2305.65 1544.94 Q2302.6 1540.33 2302.6 1531.6 Q2302.6 1522.85 2305.65 1518.27 Q2308.73 1513.66 2314.54 1513.66 Z" fill="#000000" fill-rule="nonzero" fill-opacity="1" /><polyline clip-path="url(#clip080)" style="stroke:#000000; stroke-linecap:round; stroke-linejoin:round; stroke-width:4; stroke-opacity:1; fill:none" points="112.177,1486.45 112.177,47.2441 "/>
<polyline clip-path="url(#clip080)" style="stroke:#000000; stroke-linecap:round; stroke-linejoin:round; stroke-width:4; stroke-opacity:1; fill:none" points="112.177,1445.72 131.075,1445.72 "/>
<polyline clip-path="url(#clip080)" style="stroke:#000000; stroke-linecap:round; stroke-linejoin:round; stroke-width:4; stroke-opacity:1; fill:none" points="112.177,1229.62 131.075,1229.62 "/>
<polyline clip-path="url(#clip080)" style="stroke:#000000; stroke-linecap:round; stroke-linejoin:round; stroke-width:4; stroke-opacity:1; fill:none" points="112.177,1013.53 131.075,1013.53 "/>
<polyline clip-path="url(#clip080)" style="stroke:#000000; stroke-linecap:round; stroke-linejoin:round; stroke-width:4; stroke-opacity:1; fill:none" points="112.177,797.443 131.075,797.443 "/>
<polyline clip-path="url(#clip080)" style="stroke:#000000; stroke-linecap:round; stroke-linejoin:round; stroke-width:4; stroke-opacity:1; fill:none" points="112.177,581.352 131.075,581.352 "/>
<polyline clip-path="url(#clip080)" style="stroke:#000000; stroke-linecap:round; stroke-linejoin:round; stroke-width:4; stroke-opacity:1; fill:none" points="112.177,365.261 131.075,365.261 "/>
<polyline clip-path="url(#clip080)" style="stroke:#000000; stroke-linecap:round; stroke-linejoin:round; stroke-width:4; stroke-opacity:1; fill:none" points="112.177,149.17 131.075,149.17 "/>
<path clip-path="url(#clip080)" d="M64.2328 1431.51 Q60.6217 1431.51 58.793 1435.08 Q56.9875 1438.62 56.9875 1445.75 Q56.9875 1452.86 58.793 1456.42 Q60.6217 1459.96 64.2328 1459.96 Q67.867 1459.96 69.6726 1456.42 Q71.5013 1452.86 71.5013 1445.75 Q71.5013 1438.62 69.6726 1435.08 Q67.867 1431.51 64.2328 1431.51 M64.2328 1427.81 Q70.0429 1427.81 73.0985 1432.42 Q76.1772 1437 76.1772 1445.75 Q76.1772 1454.48 73.0985 1459.08 Q70.0429 1463.67 64.2328 1463.67 Q58.4226 1463.67 55.344 1459.08 Q52.2884 1454.48 52.2884 1445.75 Q52.2884 1437 55.344 1432.42 Q58.4226 1427.81 64.2328 1427.81 Z" fill="#000000" fill-rule="nonzero" fill-opacity="1" /><path clip-path="url(#clip080)" d="M56.2699 1242.97 L63.9087 1242.97 L63.9087 1216.6 L55.5986 1218.27 L55.5986 1214.01 L63.8624 1212.34 L68.5383 1212.34 L68.5383 1242.97 L76.1772 1242.97 L76.1772 1246.9 L56.2699 1246.9 L56.2699 1242.97 Z" fill="#000000" fill-rule="nonzero" fill-opacity="1" /><path clip-path="url(#clip080)" d="M59.8578 1026.88 L76.1772 1026.88 L76.1772 1030.81 L54.2328 1030.81 L54.2328 1026.88 Q56.8949 1024.12 61.4782 1019.49 Q66.0846 1014.84 67.2652 1013.5 Q69.5105 1010.98 70.3902 1009.24 Q71.2929 1007.48 71.2929 1005.79 Q71.2929 1003.04 69.3485 1001.3 Q67.4272 999.564 64.3254 999.564 Q62.1263 999.564 59.6726 1000.33 Q57.2421 1001.09 54.4643 1002.64 L54.4643 997.92 Q57.2884 996.786 59.7421 996.208 Q62.1958 995.629 64.2328 995.629 Q69.6031 995.629 72.7976 998.314 Q75.992 1001 75.992 1005.49 Q75.992 1007.62 75.1818 1009.54 Q74.3948 1011.44 72.2883 1014.03 Q71.7096 1014.7 68.6078 1017.92 Q65.5059 1021.11 59.8578 1026.88 Z" fill="#000000" fill-rule="nonzero" fill-opacity="1" /><path clip-path="url(#clip080)" d="M69.0476 796.089 Q72.404 796.806 74.279 799.075 Q76.1772 801.343 76.1772 804.677 Q76.1772 809.792 72.6587 812.593 Q69.1402 815.394 62.6587 815.394 Q60.4828 815.394 58.168 814.954 Q55.8764 814.538 53.4227 813.681 L53.4227 809.167 Q55.3671 810.302 57.6819 810.88 Q59.9967 811.459 62.5198 811.459 Q66.918 811.459 69.2096 809.723 Q71.5244 807.987 71.5244 804.677 Q71.5244 801.621 69.3717 799.908 Q67.242 798.172 63.4226 798.172 L59.3949 798.172 L59.3949 794.329 L63.6078 794.329 Q67.0569 794.329 68.8855 792.964 Q70.7142 791.575 70.7142 788.982 Q70.7142 786.32 68.8161 784.908 Q66.9411 783.473 63.4226 783.473 Q61.5013 783.473 59.3023 783.89 Q57.1032 784.306 54.4643 785.186 L54.4643 781.019 Q57.1264 780.279 59.4412 779.908 Q61.7791 779.538 63.8393 779.538 Q69.1633 779.538 72.2652 781.968 Q75.367 784.376 75.367 788.496 Q75.367 791.367 73.7235 793.357 Q72.08 795.325 69.0476 796.089 Z" fill="#000000" fill-rule="nonzero" fill-opacity="1" /><path clip-path="url(#clip080)" d="M66.5939 568.146 L54.7884 586.595 L66.5939 586.595 L66.5939 568.146 M65.367 564.072 L71.2466 564.072 L71.2466 586.595 L76.1772 586.595 L76.1772 590.484 L71.2466 590.484 L71.2466 598.632 L66.5939 598.632 L66.5939 590.484 L50.9921 590.484 L50.9921 585.97 L65.367 564.072 Z" fill="#000000" fill-rule="nonzero" fill-opacity="1" /><path clip-path="url(#clip080)" d="M55.2745 347.981 L73.6309 347.981 L73.6309 351.916 L59.5569 351.916 L59.5569 360.388 Q60.5754 360.041 61.5939 359.879 Q62.6124 359.694 63.6309 359.694 Q69.418 359.694 72.7976 362.865 Q76.1772 366.036 76.1772 371.453 Q76.1772 377.032 72.705 380.134 Q69.2328 383.212 62.9134 383.212 Q60.7374 383.212 58.4689 382.842 Q56.2236 382.472 53.8162 381.731 L53.8162 377.032 Q55.8995 378.166 58.1217 378.722 Q60.3439 379.277 62.8208 379.277 Q66.8254 379.277 69.1633 377.171 Q71.5013 375.064 71.5013 371.453 Q71.5013 367.842 69.1633 365.736 Q66.8254 363.629 62.8208 363.629 Q60.9458 363.629 59.0708 364.046 Q57.2189 364.462 55.2745 365.342 L55.2745 347.981 Z" fill="#000000" fill-rule="nonzero" fill-opacity="1" /><path clip-path="url(#clip080)" d="M64.6495 147.307 Q61.5013 147.307 59.6495 149.459 Q57.8208 151.612 57.8208 155.362 Q57.8208 159.089 59.6495 161.265 Q61.5013 163.418 64.6495 163.418 Q67.7976 163.418 69.6263 161.265 Q71.4781 159.089 71.4781 155.362 Q71.4781 151.612 69.6263 149.459 Q67.7976 147.307 64.6495 147.307 M73.9318 132.654 L73.9318 136.913 Q72.1726 136.08 70.367 135.64 Q68.5846 135.2 66.8254 135.2 Q62.1958 135.2 59.7421 138.325 Q57.3115 141.45 56.9643 147.77 Q58.33 145.756 60.3902 144.691 Q62.4504 143.603 64.9272 143.603 Q70.1355 143.603 73.1448 146.774 Q76.1772 149.922 76.1772 155.362 Q76.1772 160.686 73.029 163.904 Q69.8809 167.121 64.6495 167.121 Q58.6541 167.121 55.4828 162.538 Q52.3116 157.932 52.3116 149.205 Q52.3116 141.01 56.2004 136.149 Q60.0893 131.265 66.6402 131.265 Q68.3994 131.265 70.1818 131.612 Q71.9874 131.96 73.9318 132.654 Z" fill="#000000" fill-rule="nonzero" fill-opacity="1" /><path clip-path="url(#clip082)" d="M1232.47 802.576 L1232.47 802.576 L1232.47 731.116 L1232.47 731.116 L1232.47 802.576 L1232.47 802.576 L1232.47 802.576 L1232.47 802.576  Z" fill="#191970" fill-rule="evenodd" fill-opacity="0.5"/>
<polyline clip-path="url(#clip082)" style="stroke:#000000; stroke-linecap:round; stroke-linejoin:round; stroke-width:4; stroke-opacity:1; fill:none" points="1232.47,802.576 1232.47,802.576 1232.47,731.116 "/>
<path clip-path="url(#clip082)" d="M1232.47 588.196 L344.652 588.196 L344.652 516.736 L1232.47 516.736 L1232.47 588.196 L344.652 588.196 L344.652 588.196 L1232.47 588.196  Z" fill="#191970" fill-rule="evenodd" fill-opacity="0.0799822"/>
<polyline clip-path="url(#clip082)" style="stroke:#000000; stroke-linecap:round; stroke-linejoin:round; stroke-width:4; stroke-opacity:1; fill:none" points="1232.47,588.196 344.652,588.196 344.652,516.736 1232.47,516.736 "/>
<path clip-path="url(#clip082)" d="M1232.47 373.816 L261.29 373.816 L261.29 302.356 L1232.47 302.356 L1232.47 373.816 L261.29 373.816 L261.29 373.816 L1232.47 373.816  Z" fill="#191970" fill-rule="evenodd" fill-opacity="0.0405441"/>
<polyline clip-path="url(#clip082)" style="stroke:#000000; stroke-linecap:round; stroke-linejoin:round; stroke-width:4; stroke-opacity:1; fill:none" points="1232.47,373.816 261.29,373.816 261.29,302.356 1232.47,302.356 "/>
<path clip-path="url(#clip082)" d="M1232.47 659.656 L581.095 659.656 L581.095 588.196 L1232.47 588.196 L1232.47 659.656 L581.095 659.656 L581.095 659.656 L1232.47 659.656  Z" fill="#191970" fill-rule="evenodd" fill-opacity="0.191841"/>
<polyline clip-path="url(#clip082)" style="stroke:#000000; stroke-linecap:round; stroke-linejoin:round; stroke-width:4; stroke-opacity:1; fill:none" points="1232.47,659.656 581.095,659.656 581.095,588.196 1232.47,588.196 "/>
<path clip-path="url(#clip082)" d="M1232.47 1374.26 L1737.21 1374.26 L1737.21 1302.8 L1232.47 1302.8 L1232.47 1374.26 L1737.21 1374.26 L1737.21 1374.26 L1232.47 1374.26  Z" fill="#191970" fill-rule="evenodd" fill-opacity="0.738789"/>
<polyline clip-path="url(#clip082)" style="stroke:#000000; stroke-linecap:round; stroke-linejoin:round; stroke-width:4; stroke-opacity:1; fill:none" points="1232.47,1374.26 1737.21,1374.26 1737.21,1302.8 1232.47,1302.8 "/>
<path clip-path="url(#clip082)" d="M1232.47 302.356 L452.232 302.356 L452.232 230.896 L1232.47 230.896 L1232.47 302.356 L452.232 302.356 L452.232 302.356 L1232.47 302.356  Z" fill="#191970" fill-rule="evenodd" fill-opacity="0.130877"/>
<polyline clip-path="url(#clip082)" style="stroke:#000000; stroke-linecap:round; stroke-linejoin:round; stroke-width:4; stroke-opacity:1; fill:none" points="1232.47,302.356 452.232,302.356 452.232,230.896 1232.47,230.896 "/>
<path clip-path="url(#clip082)" d="M1232.47 874.036 L1576.81 874.036 L1576.81 802.576 L1232.47 802.576 L1232.47 874.036 L1576.81 874.036 L1576.81 874.036 L1232.47 874.036  Z" fill="#191970" fill-rule="evenodd" fill-opacity="0.662906"/>
<polyline clip-path="url(#clip082)" style="stroke:#000000; stroke-linecap:round; stroke-linejoin:round; stroke-width:4; stroke-opacity:1; fill:none" points="1232.47,874.036 1576.81,874.036 1576.81,802.576 1232.47,802.576 "/>
<path clip-path="url(#clip082)" d="M1232.47 516.736 L204.419 516.736 L204.419 445.276 L1232.47 445.276 L1232.47 516.736 L204.419 516.736 L204.419 516.736 L1232.47 516.736  Z" fill="#191970" fill-rule="evenodd" fill-opacity="0.0136387"/>
<polyline clip-path="url(#clip082)" style="stroke:#000000; stroke-linecap:round; stroke-linejoin:round; stroke-width:4; stroke-opacity:1; fill:none" points="1232.47,516.736 204.419,516.736 204.419,445.276 1232.47,445.276 "/>
<path clip-path="url(#clip082)" d="M1232.47 945.496 L1883.84 945.496 L1883.84 874.036 L1232.47 874.036 L1232.47 945.496 L1883.84 945.496 L1883.84 945.496 L1232.47 945.496  Z" fill="#191970" fill-rule="evenodd" fill-opacity="0.808159"/>
<polyline clip-path="url(#clip082)" style="stroke:#000000; stroke-linecap:round; stroke-linejoin:round; stroke-width:4; stroke-opacity:1; fill:none" points="1232.47,945.496 1883.84,945.496 1883.84,874.036 1232.47,874.036 "/>
<path clip-path="url(#clip082)" d="M1232.47 159.436 L1057.91 159.436 L1057.91 87.9763 L1232.47 87.9763 L1232.47 159.436 L1057.91 159.436 L1057.91 159.436 L1232.47 159.436  Z" fill="#191970" fill-rule="evenodd" fill-opacity="0.417421"/>
<polyline clip-path="url(#clip082)" style="stroke:#000000; stroke-linecap:round; stroke-linejoin:round; stroke-width:4; stroke-opacity:1; fill:none" points="1232.47,159.436 1057.91,159.436 1057.91,87.9763 1232.47,87.9763 "/>
<path clip-path="url(#clip082)" d="M1232.47 1231.34 L2203.64 1231.34 L2203.64 1159.88 L1232.47 1159.88 L1232.47 1231.34 L2203.64 1231.34 L2203.64 1231.34 L1232.47 1231.34  Z" fill="#191970" fill-rule="evenodd" fill-opacity="0.959456"/>
<polyline clip-path="url(#clip082)" style="stroke:#000000; stroke-linecap:round; stroke-linejoin:round; stroke-width:4; stroke-opacity:1; fill:none" points="1232.47,1231.34 2203.64,1231.34 2203.64,1159.88 1232.47,1159.88 "/>
<path clip-path="url(#clip082)" d="M1232.47 445.276 L175.59 445.276 L175.59 373.816 L1232.47 373.816 L1232.47 445.276 L175.59 445.276 L175.59 445.276 L1232.47 445.276  Z" fill="#191970" fill-rule="evenodd" fill-opacity="0"/>
<polyline clip-path="url(#clip082)" style="stroke:#000000; stroke-linecap:round; stroke-linejoin:round; stroke-width:4; stroke-opacity:1; fill:none" points="1232.47,445.276 175.59,445.276 175.59,373.816 1232.47,373.816 "/>
<path clip-path="url(#clip082)" d="M1232.47 230.896 L727.725 230.896 L727.725 159.436 L1232.47 159.436 L1232.47 230.896 L727.725 230.896 L727.725 230.896 L1232.47 230.896  Z" fill="#191970" fill-rule="evenodd" fill-opacity="0.261211"/>
<polyline clip-path="url(#clip082)" style="stroke:#000000; stroke-linecap:round; stroke-linejoin:round; stroke-width:4; stroke-opacity:1; fill:none" points="1232.47,230.896 727.725,230.896 727.725,159.436 1232.47,159.436 "/>
<path clip-path="url(#clip082)" d="M1232.47 1445.72 L1407.02 1445.72 L1407.02 1374.26 L1232.47 1374.26 L1232.47 1445.72 L1407.02 1445.72 L1407.02 1445.72 L1232.47 1445.72  Z" fill="#191970" fill-rule="evenodd" fill-opacity="0.582579"/>
<polyline clip-path="url(#clip082)" style="stroke:#000000; stroke-linecap:round; stroke-linejoin:round; stroke-width:4; stroke-opacity:1; fill:none" points="1232.47,1445.72 1407.02,1445.72 1407.02,1374.26 1232.47,1374.26 "/>
<path clip-path="url(#clip082)" d="M1232.47 1159.88 L2289.34 1159.88 L2289.34 1088.42 L1232.47 1088.42 L1232.47 1159.88 L2289.34 1159.88 L2289.34 1159.88 L1232.47 1159.88  Z" fill="#191970" fill-rule="evenodd" fill-opacity="1"/>
<polyline clip-path="url(#clip082)" style="stroke:#000000; stroke-linecap:round; stroke-linejoin:round; stroke-width:4; stroke-opacity:1; fill:none" points="1232.47,1159.88 2289.34,1159.88 2289.34,1088.42 1232.47,1088.42 "/>
<path clip-path="url(#clip082)" d="M1232.47 1302.8 L2012.7 1302.8 L2012.7 1231.34 L1232.47 1231.34 L1232.47 1302.8 L2012.7 1302.8 L2012.7 1302.8 L1232.47 1302.8  Z" fill="#191970" fill-rule="evenodd" fill-opacity="0.869123"/>
<polyline clip-path="url(#clip082)" style="stroke:#000000; stroke-linecap:round; stroke-linejoin:round; stroke-width:4; stroke-opacity:1; fill:none" points="1232.47,1302.8 2012.7,1302.8 2012.7,1231.34 1232.47,1231.34 "/>
<path clip-path="url(#clip082)" d="M1232.47 1088.42 L2260.51 1088.42 L2260.51 1016.96 L1232.47 1016.96 L1232.47 1088.42 L2260.51 1088.42 L2260.51 1088.42 L1232.47 1088.42  Z" fill="#191970" fill-rule="evenodd" fill-opacity="0.986361"/>
<polyline clip-path="url(#clip082)" style="stroke:#000000; stroke-linecap:round; stroke-linejoin:round; stroke-width:4; stroke-opacity:1; fill:none" points="1232.47,1088.42 2260.51,1088.42 2260.51,1016.96 1232.47,1016.96 "/>
<path clip-path="url(#clip082)" d="M1232.47 1016.96 L2120.28 1016.96 L2120.28 945.496 L1232.47 945.496 L1232.47 1016.96 L2120.28 1016.96 L2120.28 1016.96 L1232.47 1016.96  Z" fill="#191970" fill-rule="evenodd" fill-opacity="0.920018"/>
<polyline clip-path="url(#clip082)" style="stroke:#000000; stroke-linecap:round; stroke-linejoin:round; stroke-width:4; stroke-opacity:1; fill:none" points="1232.47,1016.96 2120.28,1016.96 2120.28,945.496 1232.47,945.496 "/>
<path clip-path="url(#clip082)" d="M1232.47 731.116 L888.123 731.116 L888.123 659.656 L1232.47 659.656 L1232.47 731.116 L888.123 731.116 L888.123 731.116 L1232.47 731.116  Z" fill="#191970" fill-rule="evenodd" fill-opacity="0.337094"/>
<polyline clip-path="url(#clip082)" style="stroke:#000000; stroke-linecap:round; stroke-linejoin:round; stroke-width:4; stroke-opacity:1; fill:none" points="1232.47,731.116 888.123,731.116 888.123,659.656 1232.47,659.656 "/>
</svg>
