<?xml version="1.0" encoding="utf-8"?>
<svg xmlns="http://www.w3.org/2000/svg" xmlns:xlink="http://www.w3.org/1999/xlink" width="600" height="400" viewBox="0 0 2400 1600">
<defs>
  <clipPath id="clip220">
    <rect x="0" y="0" width="2400" height="1600"/>
  </clipPath>
</defs>
<path clip-path="url(#clip220)" d="M0 1600 L2400 1600 L2400 0 L0 0  Z" fill="#ffffff" fill-rule="evenodd" fill-opacity="1"/>
<defs>
  <clipPath id="clip221">
    <rect x="480" y="0" width="1681" height="1600"/>
  </clipPath>
</defs>
<path clip-path="url(#clip220)" d="M186.274 1486.45 L2352.76 1486.45 L2352.76 47.2441 L186.274 47.2441  Z" fill="#ffffff" fill-rule="evenodd" fill-opacity="1"/>
<defs>
  <clipPath id="clip222">
    <rect x="186" y="47" width="2167" height="1440"/>
  </clipPath>
</defs>
<polyline clip-path="url(#clip222)" style="stroke:#000000; stroke-linecap:round; stroke-linejoin:round; stroke-width:2; stroke-opacity:0.1; fill:none" points="247.59,1486.45 247.59,47.2441 "/>
<polyline clip-path="url(#clip222)" style="stroke:#000000; stroke-linecap:round; stroke-linejoin:round; stroke-width:2; stroke-opacity:0.1; fill:none" points="572.878,1486.45 572.878,47.2441 "/>
<polyline clip-path="url(#clip222)" style="stroke:#000000; stroke-linecap:round; stroke-linejoin:round; stroke-width:2; stroke-opacity:0.1; fill:none" points="898.167,1486.45 898.167,47.2441 "/>
<polyline clip-path="url(#clip222)" style="stroke:#000000; stroke-linecap:round; stroke-linejoin:round; stroke-width:2; stroke-opacity:0.1; fill:none" points="1223.46,1486.45 1223.46,47.2441 "/>
<polyline clip-path="url(#clip222)" style="stroke:#000000; stroke-linecap:round; stroke-linejoin:round; stroke-width:2; stroke-opacity:0.1; fill:none" points="1548.75,1486.45 1548.75,47.2441 "/>
<polyline clip-path="url(#clip222)" style="stroke:#000000; stroke-linecap:round; stroke-linejoin:round; stroke-width:2; stroke-opacity:0.1; fill:none" points="1874.03,1486.45 1874.03,47.2441 "/>
<polyline clip-path="url(#clip222)" style="stroke:#000000; stroke-linecap:round; stroke-linejoin:round; stroke-width:2; stroke-opacity:0.1; fill:none" points="2199.32,1486.45 2199.32,47.2441 "/>
<polyline clip-path="url(#clip220)" style="stroke:#000000; stroke-linecap:round; stroke-linejoin:round; stroke-width:4; stroke-opacity:1; fill:none" points="186.274,1486.45 2352.76,1486.45 "/>
<polyline clip-path="url(#clip220)" style="stroke:#000000; stroke-linecap:round; stroke-linejoin:round; stroke-width:4; stroke-opacity:1; fill:none" points="247.59,1486.45 247.59,1467.55 "/>
<polyline clip-path="url(#clip220)" style="stroke:#000000; stroke-linecap:round; stroke-linejoin:round; stroke-width:4; stroke-opacity:1; fill:none" points="572.878,1486.45 572.878,1467.55 "/>
<polyline clip-path="url(#clip220)" style="stroke:#000000; stroke-linecap:round; stroke-linejoin:round; stroke-width:4; stroke-opacity:1; fill:none" points="898.167,1486.45 898.167,1467.55 "/>
<polyline clip-path="url(#clip220)" style="stroke:#000000; stroke-linecap:round; stroke-linejoin:round; stroke-width:4; stroke-opacity:1; fill:none" points="1223.46,1486.45 1223.46,1467.55 "/>
<polyline clip-path="url(#clip220)" style="stroke:#000000; stroke-linecap:round; stroke-linejoin:round; stroke-width:4; stroke-opacity:1; fill:none" points="1548.75,1486.45 1548.75,1467.55 "/>
<polyline clip-path="url(#clip220)" style="stroke:#000000; stroke-linecap:round; stroke-linejoin:round; stroke-width:4; stroke-opacity:1; fill:none" points="1874.03,1486.45 1874.03,1467.55 "/>
<polyline clip-path="url(#clip220)" style="stroke:#000000; stroke-linecap:round; stroke-linejoin:round; stroke-width:4; stroke-opacity:1; fill:none" points="2199.32,1486.45 2199.32,1467.55 "/>
<path clip-path="url(#clip220)" d="M247.59 1517.37 Q243.978 1517.37 242.15 1520.93 Q240.344 1524.47 240.344 1531.6 Q240.344 1538.71 242.15 1542.27 Q243.978 1545.82 247.59 1545.82 Q251.224 1545.82 253.029 1542.27 Q254.858 1538.71 254.858 1531.6 Q254.858 1524.47 253.029 1520.93 Q251.224 1517.37 247.59 1517.37 M247.59 1513.66 Q253.4 1513.66 256.455 1518.27 Q259.534 1522.85 259.534 1531.6 Q259.534 1540.33 256.455 1544.94 Q253.4 1549.52 247.59 1549.52 Q241.779 1549.52 238.701 1544.94 Q235.645 1540.33 235.645 1531.6 Q235.645 1522.85 238.701 1518.27 Q241.779 1513.66 247.59 1513.66 Z" fill="#000000" fill-rule="nonzero" fill-opacity="1" /><path clip-path="url(#clip220)" d="M563.26 1544.91 L570.899 1544.91 L570.899 1518.55 L562.589 1520.21 L562.589 1515.95 L570.853 1514.29 L575.529 1514.29 L575.529 1544.91 L583.168 1544.91 L583.168 1548.85 L563.26 1548.85 L563.26 1544.91 Z" fill="#000000" fill-rule="nonzero" fill-opacity="1" /><path clip-path="url(#clip220)" d="M892.82 1544.91 L909.14 1544.91 L909.14 1548.85 L887.195 1548.85 L887.195 1544.91 Q889.857 1542.16 894.441 1537.53 Q899.047 1532.88 900.228 1531.53 Q902.473 1529.01 903.353 1527.27 Q904.255 1525.51 904.255 1523.82 Q904.255 1521.07 902.311 1519.33 Q900.39 1517.6 897.288 1517.6 Q895.089 1517.6 892.635 1518.36 Q890.205 1519.13 887.427 1520.68 L887.427 1515.95 Q890.251 1514.82 892.705 1514.24 Q895.158 1513.66 897.195 1513.66 Q902.566 1513.66 905.76 1516.35 Q908.954 1519.03 908.954 1523.52 Q908.954 1525.65 908.144 1527.57 Q907.357 1529.47 905.251 1532.07 Q904.672 1532.74 901.57 1535.95 Q898.468 1539.15 892.82 1544.91 Z" fill="#000000" fill-rule="nonzero" fill-opacity="1" /><path clip-path="url(#clip220)" d="M1227.7 1530.21 Q1231.06 1530.93 1232.94 1533.2 Q1234.83 1535.47 1234.83 1538.8 Q1234.83 1543.92 1231.32 1546.72 Q1227.8 1549.52 1221.32 1549.52 Q1219.14 1549.52 1216.82 1549.08 Q1214.53 1548.66 1212.08 1547.81 L1212.08 1543.29 Q1214.02 1544.43 1216.34 1545.01 Q1218.65 1545.58 1221.18 1545.58 Q1225.57 1545.58 1227.87 1543.85 Q1230.18 1542.11 1230.18 1538.8 Q1230.18 1535.75 1228.03 1534.03 Q1225.9 1532.3 1222.08 1532.3 L1218.05 1532.3 L1218.05 1528.45 L1222.26 1528.45 Q1225.71 1528.45 1227.54 1527.09 Q1229.37 1525.7 1229.37 1523.11 Q1229.37 1520.45 1227.47 1519.03 Q1225.6 1517.6 1222.08 1517.6 Q1220.16 1517.6 1217.96 1518.01 Q1215.76 1518.43 1213.12 1519.31 L1213.12 1515.14 Q1215.78 1514.4 1218.1 1514.03 Q1220.44 1513.66 1222.5 1513.66 Q1227.82 1513.66 1230.92 1516.09 Q1234.02 1518.5 1234.02 1522.62 Q1234.02 1525.49 1232.38 1527.48 Q1230.74 1529.45 1227.7 1530.21 Z" fill="#000000" fill-rule="nonzero" fill-opacity="1" /><path clip-path="url(#clip220)" d="M1551.75 1518.36 L1539.95 1536.81 L1551.75 1536.81 L1551.75 1518.36 M1550.53 1514.29 L1556.41 1514.29 L1556.41 1536.81 L1561.34 1536.81 L1561.34 1540.7 L1556.41 1540.7 L1556.41 1548.85 L1551.75 1548.85 L1551.75 1540.7 L1536.15 1540.7 L1536.15 1536.19 L1550.53 1514.29 Z" fill="#000000" fill-rule="nonzero" fill-opacity="1" /><path clip-path="url(#clip220)" d="M1864.31 1514.29 L1882.67 1514.29 L1882.67 1518.22 L1868.59 1518.22 L1868.59 1526.7 Q1869.61 1526.35 1870.63 1526.19 Q1871.65 1526 1872.67 1526 Q1878.46 1526 1881.84 1529.17 Q1885.21 1532.34 1885.21 1537.76 Q1885.21 1543.34 1881.74 1546.44 Q1878.27 1549.52 1871.95 1549.52 Q1869.78 1549.52 1867.51 1549.15 Q1865.26 1548.78 1862.85 1548.04 L1862.85 1543.34 Q1864.94 1544.47 1867.16 1545.03 Q1869.38 1545.58 1871.86 1545.58 Q1875.86 1545.58 1878.2 1543.48 Q1880.54 1541.37 1880.54 1537.76 Q1880.54 1534.15 1878.2 1532.04 Q1875.86 1529.94 1871.86 1529.94 Q1869.98 1529.94 1868.11 1530.35 Q1866.26 1530.77 1864.31 1531.65 L1864.31 1514.29 Z" fill="#000000" fill-rule="nonzero" fill-opacity="1" /><path clip-path="url(#clip220)" d="M2199.73 1529.7 Q2196.58 1529.7 2194.73 1531.86 Q2192.9 1534.01 2192.9 1537.76 Q2192.9 1541.49 2194.73 1543.66 Q2196.58 1545.82 2199.73 1545.82 Q2202.88 1545.82 2204.71 1543.66 Q2206.56 1541.49 2206.56 1537.76 Q2206.56 1534.01 2204.71 1531.86 Q2202.88 1529.7 2199.73 1529.7 M2209.01 1515.05 L2209.01 1519.31 Q2207.25 1518.48 2205.45 1518.04 Q2203.66 1517.6 2201.9 1517.6 Q2197.27 1517.6 2194.82 1520.72 Q2192.39 1523.85 2192.04 1530.17 Q2193.41 1528.15 2195.47 1527.09 Q2197.53 1526 2200.01 1526 Q2205.21 1526 2208.22 1529.17 Q2211.26 1532.32 2211.26 1537.76 Q2211.26 1543.08 2208.11 1546.3 Q2204.96 1549.52 2199.73 1549.52 Q2193.73 1549.52 2190.56 1544.94 Q2187.39 1540.33 2187.39 1531.6 Q2187.39 1523.41 2191.28 1518.55 Q2195.17 1513.66 2201.72 1513.66 Q2203.48 1513.66 2205.26 1514.01 Q2207.07 1514.36 2209.01 1515.05 Z" fill="#000000" fill-rule="nonzero" fill-opacity="1" /><polyline clip-path="url(#clip222)" style="stroke:#000000; stroke-linecap:round; stroke-linejoin:round; stroke-width:2; stroke-opacity:0.1; fill:none" points="186.274,1445.72 2352.76,1445.72 "/>
<polyline clip-path="url(#clip222)" style="stroke:#000000; stroke-linecap:round; stroke-linejoin:round; stroke-width:2; stroke-opacity:0.1; fill:none" points="186.274,1105.12 2352.76,1105.12 "/>
<polyline clip-path="url(#clip222)" style="stroke:#000000; stroke-linecap:round; stroke-linejoin:round; stroke-width:2; stroke-opacity:0.1; fill:none" points="186.274,764.519 2352.76,764.519 "/>
<polyline clip-path="url(#clip222)" style="stroke:#000000; stroke-linecap:round; stroke-linejoin:round; stroke-width:2; stroke-opacity:0.1; fill:none" points="186.274,423.921 2352.76,423.921 "/>
<polyline clip-path="url(#clip222)" style="stroke:#000000; stroke-linecap:round; stroke-linejoin:round; stroke-width:2; stroke-opacity:0.1; fill:none" points="186.274,83.323 2352.76,83.323 "/>
<polyline clip-path="url(#clip220)" style="stroke:#000000; stroke-linecap:round; stroke-linejoin:round; stroke-width:4; stroke-opacity:1; fill:none" points="186.274,1486.45 186.274,47.2441 "/>
<polyline clip-path="url(#clip220)" style="stroke:#000000; stroke-linecap:round; stroke-linejoin:round; stroke-width:4; stroke-opacity:1; fill:none" points="186.274,1445.72 205.172,1445.72 "/>
<polyline clip-path="url(#clip220)" style="stroke:#000000; stroke-linecap:round; stroke-linejoin:round; stroke-width:4; stroke-opacity:1; fill:none" points="186.274,1105.12 205.172,1105.12 "/>
<polyline clip-path="url(#clip220)" style="stroke:#000000; stroke-linecap:round; stroke-linejoin:round; stroke-width:4; stroke-opacity:1; fill:none" points="186.274,764.519 205.172,764.519 "/>
<polyline clip-path="url(#clip220)" style="stroke:#000000; stroke-linecap:round; stroke-linejoin:round; stroke-width:4; stroke-opacity:1; fill:none" points="186.274,423.921 205.172,423.921 "/>
<polyline clip-path="url(#clip220)" style="stroke:#000000; stroke-linecap:round; stroke-linejoin:round; stroke-width:4; stroke-opacity:1; fill:none" points="186.274,83.323 205.172,83.323 "/>
<path clip-path="url(#clip220)" d="M62.9365 1431.51 Q59.3254 1431.51 57.4967 1435.08 Q55.6912 1438.62 55.6912 1445.75 Q55.6912 1452.86 57.4967 1456.42 Q59.3254 1459.96 62.9365 1459.96 Q66.5707 1459.96 68.3763 1456.42 Q70.205 1452.86 70.205 1445.75 Q70.205 1438.62 68.3763 1435.08 Q66.5707 1431.51 62.9365 1431.51 M62.9365 1427.81 Q68.7467 1427.81 71.8022 1432.42 Q74.8809 1437 74.8809 1445.75 Q74.8809 1454.48 71.8022 1459.08 Q68.7467 1463.67 62.9365 1463.67 Q57.1264 1463.67 54.0477 1459.08 Q50.9921 1454.48 50.9921 1445.75 Q50.9921 1437 54.0477 1432.42 Q57.1264 1427.81 62.9365 1427.81 Z" fill="#000000" fill-rule="nonzero" fill-opacity="1" /><path clip-path="url(#clip220)" d="M83.0984 1457.12 L87.9827 1457.12 L87.9827 1463 L83.0984 1463 L83.0984 1457.12 Z" fill="#000000" fill-rule="nonzero" fill-opacity="1" /><path clip-path="url(#clip220)" d="M108.168 1431.51 Q104.557 1431.51 102.728 1435.08 Q100.922 1438.62 100.922 1445.75 Q100.922 1452.86 102.728 1456.42 Q104.557 1459.96 108.168 1459.96 Q111.802 1459.96 113.608 1456.42 Q115.436 1452.86 115.436 1445.75 Q115.436 1438.62 113.608 1435.08 Q111.802 1431.51 108.168 1431.51 M108.168 1427.81 Q113.978 1427.81 117.033 1432.42 Q120.112 1437 120.112 1445.75 Q120.112 1454.48 117.033 1459.08 Q113.978 1463.67 108.168 1463.67 Q102.358 1463.67 99.2789 1459.08 Q96.2234 1454.48 96.2234 1445.75 Q96.2234 1437 99.2789 1432.42 Q102.358 1427.81 108.168 1427.81 Z" fill="#000000" fill-rule="nonzero" fill-opacity="1" /><path clip-path="url(#clip220)" d="M138.33 1431.51 Q134.719 1431.51 132.89 1435.08 Q131.084 1438.62 131.084 1445.75 Q131.084 1452.86 132.89 1456.42 Q134.719 1459.96 138.33 1459.96 Q141.964 1459.96 143.769 1456.42 Q145.598 1452.86 145.598 1445.75 Q145.598 1438.62 143.769 1435.08 Q141.964 1431.51 138.33 1431.51 M138.33 1427.81 Q144.14 1427.81 147.195 1432.42 Q150.274 1437 150.274 1445.75 Q150.274 1454.48 147.195 1459.08 Q144.14 1463.67 138.33 1463.67 Q132.519 1463.67 129.441 1459.08 Q126.385 1454.48 126.385 1445.75 Q126.385 1437 129.441 1432.42 Q132.519 1427.81 138.33 1427.81 Z" fill="#000000" fill-rule="nonzero" fill-opacity="1" /><path clip-path="url(#clip220)" d="M63.9319 1090.92 Q60.3208 1090.92 58.4921 1094.48 Q56.6865 1098.02 56.6865 1105.15 Q56.6865 1112.26 58.4921 1115.82 Q60.3208 1119.37 63.9319 1119.37 Q67.5661 1119.37 69.3717 1115.82 Q71.2004 1112.26 71.2004 1105.15 Q71.2004 1098.02 69.3717 1094.48 Q67.5661 1090.92 63.9319 1090.92 M63.9319 1087.21 Q69.742 1087.21 72.7976 1091.82 Q75.8763 1096.4 75.8763 1105.15 Q75.8763 1113.88 72.7976 1118.49 Q69.742 1123.07 63.9319 1123.07 Q58.1217 1123.07 55.043 1118.49 Q51.9875 1113.88 51.9875 1105.15 Q51.9875 1096.4 55.043 1091.82 Q58.1217 1087.21 63.9319 1087.21 Z" fill="#000000" fill-rule="nonzero" fill-opacity="1" /><path clip-path="url(#clip220)" d="M84.0938 1116.52 L88.978 1116.52 L88.978 1122.4 L84.0938 1122.4 L84.0938 1116.52 Z" fill="#000000" fill-rule="nonzero" fill-opacity="1" /><path clip-path="url(#clip220)" d="M103.191 1118.46 L119.51 1118.46 L119.51 1122.4 L97.566 1122.4 L97.566 1118.46 Q100.228 1115.71 104.811 1111.08 Q109.418 1106.43 110.598 1105.08 Q112.844 1102.56 113.723 1100.82 Q114.626 1099.06 114.626 1097.37 Q114.626 1094.62 112.682 1092.88 Q110.76 1091.15 107.658 1091.15 Q105.459 1091.15 103.006 1091.91 Q100.575 1092.68 97.7974 1094.23 L97.7974 1089.5 Q100.621 1088.37 103.075 1087.79 Q105.529 1087.21 107.566 1087.21 Q112.936 1087.21 116.131 1089.9 Q119.325 1092.58 119.325 1097.07 Q119.325 1099.2 118.515 1101.12 Q117.728 1103.02 115.621 1105.62 Q115.043 1106.29 111.941 1109.5 Q108.839 1112.7 103.191 1118.46 Z" fill="#000000" fill-rule="nonzero" fill-opacity="1" /><path clip-path="url(#clip220)" d="M129.371 1087.84 L147.728 1087.84 L147.728 1091.77 L133.654 1091.77 L133.654 1100.24 Q134.672 1099.9 135.691 1099.74 Q136.709 1099.55 137.728 1099.55 Q143.515 1099.55 146.894 1102.72 Q150.274 1105.89 150.274 1111.31 Q150.274 1116.89 146.802 1119.99 Q143.33 1123.07 137.01 1123.07 Q134.834 1123.07 132.566 1122.7 Q130.32 1122.33 127.913 1121.59 L127.913 1116.89 Q129.996 1118.02 132.219 1118.58 Q134.441 1119.13 136.918 1119.13 Q140.922 1119.13 143.26 1117.03 Q145.598 1114.92 145.598 1111.31 Q145.598 1107.7 143.26 1105.59 Q140.922 1103.49 136.918 1103.49 Q135.043 1103.49 133.168 1103.9 Q131.316 1104.32 129.371 1105.2 L129.371 1087.84 Z" fill="#000000" fill-rule="nonzero" fill-opacity="1" /><path clip-path="url(#clip220)" d="M62.9365 750.318 Q59.3254 750.318 57.4967 753.883 Q55.6912 757.424 55.6912 764.554 Q55.6912 771.661 57.4967 775.225 Q59.3254 778.767 62.9365 778.767 Q66.5707 778.767 68.3763 775.225 Q70.205 771.661 70.205 764.554 Q70.205 757.424 68.3763 753.883 Q66.5707 750.318 62.9365 750.318 M62.9365 746.614 Q68.7467 746.614 71.8022 751.221 Q74.8809 755.804 74.8809 764.554 Q74.8809 773.281 71.8022 777.887 Q68.7467 782.471 62.9365 782.471 Q57.1264 782.471 54.0477 777.887 Q50.9921 773.281 50.9921 764.554 Q50.9921 755.804 54.0477 751.221 Q57.1264 746.614 62.9365 746.614 Z" fill="#000000" fill-rule="nonzero" fill-opacity="1" /><path clip-path="url(#clip220)" d="M83.0984 775.92 L87.9827 775.92 L87.9827 781.799 L83.0984 781.799 L83.0984 775.92 Z" fill="#000000" fill-rule="nonzero" fill-opacity="1" /><path clip-path="url(#clip220)" d="M98.2141 747.239 L116.57 747.239 L116.57 751.175 L102.496 751.175 L102.496 759.647 Q103.515 759.299 104.534 759.137 Q105.552 758.952 106.571 758.952 Q112.358 758.952 115.737 762.124 Q119.117 765.295 119.117 770.711 Q119.117 776.29 115.645 779.392 Q112.172 782.471 105.853 782.471 Q103.677 782.471 101.409 782.1 Q99.1632 781.73 96.7558 780.989 L96.7558 776.29 Q98.8391 777.424 101.061 777.98 Q103.284 778.535 105.76 778.535 Q109.765 778.535 112.103 776.429 Q114.441 774.323 114.441 770.711 Q114.441 767.1 112.103 764.994 Q109.765 762.887 105.76 762.887 Q103.885 762.887 102.01 763.304 Q100.159 763.721 98.2141 764.6 L98.2141 747.239 Z" fill="#000000" fill-rule="nonzero" fill-opacity="1" /><path clip-path="url(#clip220)" d="M138.33 750.318 Q134.719 750.318 132.89 753.883 Q131.084 757.424 131.084 764.554 Q131.084 771.661 132.89 775.225 Q134.719 778.767 138.33 778.767 Q141.964 778.767 143.769 775.225 Q145.598 771.661 145.598 764.554 Q145.598 757.424 143.769 753.883 Q141.964 750.318 138.33 750.318 M138.33 746.614 Q144.14 746.614 147.195 751.221 Q150.274 755.804 150.274 764.554 Q150.274 773.281 147.195 777.887 Q144.14 782.471 138.33 782.471 Q132.519 782.471 129.441 777.887 Q126.385 773.281 126.385 764.554 Q126.385 755.804 129.441 751.221 Q132.519 746.614 138.33 746.614 Z" fill="#000000" fill-rule="nonzero" fill-opacity="1" /><path clip-path="url(#clip220)" d="M63.9319 409.72 Q60.3208 409.72 58.4921 413.285 Q56.6865 416.826 56.6865 423.956 Q56.6865 431.062 58.4921 434.627 Q60.3208 438.169 63.9319 438.169 Q67.5661 438.169 69.3717 434.627 Q71.2004 431.062 71.2004 423.956 Q71.2004 416.826 69.3717 413.285 Q67.5661 409.72 63.9319 409.72 M63.9319 406.016 Q69.742 406.016 72.7976 410.623 Q75.8763 415.206 75.8763 423.956 Q75.8763 432.683 72.7976 437.289 Q69.742 441.872 63.9319 441.872 Q58.1217 441.872 55.043 437.289 Q51.9875 432.683 51.9875 423.956 Q51.9875 415.206 55.043 410.623 Q58.1217 406.016 63.9319 406.016 Z" fill="#000000" fill-rule="nonzero" fill-opacity="1" /><path clip-path="url(#clip220)" d="M84.0938 435.322 L88.978 435.322 L88.978 441.201 L84.0938 441.201 L84.0938 435.322 Z" fill="#000000" fill-rule="nonzero" fill-opacity="1" /><path clip-path="url(#clip220)" d="M97.9826 406.641 L120.205 406.641 L120.205 408.632 L107.658 441.201 L102.774 441.201 L114.58 410.576 L97.9826 410.576 L97.9826 406.641 Z" fill="#000000" fill-rule="nonzero" fill-opacity="1" /><path clip-path="url(#clip220)" d="M129.371 406.641 L147.728 406.641 L147.728 410.576 L133.654 410.576 L133.654 419.049 Q134.672 418.701 135.691 418.539 Q136.709 418.354 137.728 418.354 Q143.515 418.354 146.894 421.525 Q150.274 424.697 150.274 430.113 Q150.274 435.692 146.802 438.794 Q143.33 441.872 137.01 441.872 Q134.834 441.872 132.566 441.502 Q130.32 441.132 127.913 440.391 L127.913 435.692 Q129.996 436.826 132.219 437.382 Q134.441 437.937 136.918 437.937 Q140.922 437.937 143.26 435.831 Q145.598 433.724 145.598 430.113 Q145.598 426.502 143.26 424.396 Q140.922 422.289 136.918 422.289 Q135.043 422.289 133.168 422.706 Q131.316 423.123 129.371 424.002 L129.371 406.641 Z" fill="#000000" fill-rule="nonzero" fill-opacity="1" /><path clip-path="url(#clip220)" d="M53.7467 96.6679 L61.3856 96.6679 L61.3856 70.3023 L53.0754 71.9689 L53.0754 67.7097 L61.3393 66.043 L66.0152 66.043 L66.0152 96.6679 L73.654 96.6679 L73.654 100.603 L53.7467 100.603 L53.7467 96.6679 Z" fill="#000000" fill-rule="nonzero" fill-opacity="1" /><path clip-path="url(#clip220)" d="M83.0984 94.7234 L87.9827 94.7234 L87.9827 100.603 L83.0984 100.603 L83.0984 94.7234 Z" fill="#000000" fill-rule="nonzero" fill-opacity="1" /><path clip-path="url(#clip220)" d="M108.168 69.1217 Q104.557 69.1217 102.728 72.6865 Q100.922 76.2281 100.922 83.3577 Q100.922 90.4642 102.728 94.029 Q104.557 97.5706 108.168 97.5706 Q111.802 97.5706 113.608 94.029 Q115.436 90.4642 115.436 83.3577 Q115.436 76.2281 113.608 72.6865 Q111.802 69.1217 108.168 69.1217 M108.168 65.418 Q113.978 65.418 117.033 70.0245 Q120.112 74.6078 120.112 83.3577 Q120.112 92.0845 117.033 96.691 Q113.978 101.274 108.168 101.274 Q102.358 101.274 99.2789 96.691 Q96.2234 92.0845 96.2234 83.3577 Q96.2234 74.6078 99.2789 70.0245 Q102.358 65.418 108.168 65.418 Z" fill="#000000" fill-rule="nonzero" fill-opacity="1" /><path clip-path="url(#clip220)" d="M138.33 69.1217 Q134.719 69.1217 132.89 72.6865 Q131.084 76.2281 131.084 83.3577 Q131.084 90.4642 132.89 94.029 Q134.719 97.5706 138.33 97.5706 Q141.964 97.5706 143.769 94.029 Q145.598 90.4642 145.598 83.3577 Q145.598 76.2281 143.769 72.6865 Q141.964 69.1217 138.33 69.1217 M138.33 65.418 Q144.14 65.418 147.195 70.0245 Q150.274 74.6078 150.274 83.3577 Q150.274 92.0845 147.195 96.691 Q144.14 101.274 138.33 101.274 Q132.519 101.274 129.441 96.691 Q126.385 92.0845 126.385 83.3577 Q126.385 74.6078 129.441 70.0245 Q132.519 65.418 138.33 65.418 Z" fill="#000000" fill-rule="nonzero" fill-opacity="1" /><path clip-path="url(#clip222)" d="M1861.16 1445.72 L1861.16 198.073 L1968.73 198.073 L1968.73 1445.72 L1968.73 1445.72 L1968.73 1445.72 L1861.16 1445.72 L1861.16 1445.72  Z" fill="#062a47" fill-rule="evenodd" fill-opacity="1"/>
<polyline clip-path="url(#clip222)" style="stroke:#000000; stroke-linecap:round; stroke-linejoin:round; stroke-width:4; stroke-opacity:1; fill:none" points="1861.16,1445.72 1861.16,198.073 1968.73,198.073 1968.73,1445.72 "/>
<path clip-path="url(#clip222)" d="M462.732 1445.72 L462.732 443.371 L570.303 443.371 L570.303 1445.72 L570.303 1445.72 L570.303 1445.72 L462.732 1445.72 L462.732 1445.72  Z" fill="#f9c240" fill-rule="evenodd" fill-opacity="1"/>
<polyline clip-path="url(#clip222)" style="stroke:#000000; stroke-linecap:round; stroke-linejoin:round; stroke-width:4; stroke-opacity:1; fill:none" points="462.732,1445.72 462.732,443.371 570.303,443.371 570.303,1445.72 "/>
<path clip-path="url(#clip222)" d="M247.59 1445.72 L247.59 1221.47 L355.161 1221.47 L355.161 1445.72 L355.161 1445.72 L355.161 1445.72 L247.59 1445.72 L247.59 1445.72  Z" fill="#cf6970" fill-rule="evenodd" fill-opacity="1"/>
<polyline clip-path="url(#clip222)" style="stroke:#000000; stroke-linecap:round; stroke-linejoin:round; stroke-width:4; stroke-opacity:1; fill:none" points="247.59,1445.72 247.59,1221.47 355.161,1221.47 355.161,1445.72 "/>
<path clip-path="url(#clip222)" d="M1538.44 1445.72 L1538.44 305.166 L1646.01 305.166 L1646.01 1445.72 L1646.01 1445.72 L1646.01 1445.72 L1538.44 1445.72 L1538.44 1445.72  Z" fill="#0b2f5e" fill-rule="evenodd" fill-opacity="1"/>
<polyline clip-path="url(#clip222)" style="stroke:#000000; stroke-linecap:round; stroke-linejoin:round; stroke-width:4; stroke-opacity:1; fill:none" points="1538.44,1445.72 1538.44,305.166 1646.01,305.166 1646.01,1445.72 "/>
<path clip-path="url(#clip222)" d="M2076.3 1445.72 L2076.3 797.288 L2183.87 797.288 L2183.87 1445.72 L2183.87 1445.72 L2183.87 1445.72 L2076.3 1445.72 L2076.3 1445.72  Z" fill="#5a3d9a" fill-rule="evenodd" fill-opacity="1"/>
<polyline clip-path="url(#clip222)" style="stroke:#000000; stroke-linecap:round; stroke-linejoin:round; stroke-width:4; stroke-opacity:1; fill:none" points="2076.3,1445.72 2076.3,797.288 2183.87,797.288 2183.87,1445.72 "/>
<path clip-path="url(#clip222)" d="M785.445 1445.72 L785.445 125.012 L893.016 125.012 L893.016 1445.72 L893.016 1445.72 L893.016 1445.72 L785.445 1445.72 L785.445 1445.72  Z" fill="#eaf457" fill-rule="evenodd" fill-opacity="1"/>
<polyline clip-path="url(#clip222)" style="stroke:#000000; stroke-linecap:round; stroke-linejoin:round; stroke-width:4; stroke-opacity:1; fill:none" points="785.445,1445.72 785.445,125.012 893.016,125.012 893.016,1445.72 "/>
<path clip-path="url(#clip222)" d="M893.016 1445.72 L893.016 305.166 L1000.59 305.166 L1000.59 1445.72 L1000.59 1445.72 L1000.59 1445.72 L893.016 1445.72 L893.016 1445.72  Z" fill="#f5d748" fill-rule="evenodd" fill-opacity="1"/>
<polyline clip-path="url(#clip222)" style="stroke:#000000; stroke-linecap:round; stroke-linejoin:round; stroke-width:4; stroke-opacity:1; fill:none" points="893.016,1445.72 893.016,305.166 1000.59,305.166 1000.59,1445.72 "/>
<path clip-path="url(#clip222)" d="M1000.59 1445.72 L1000.59 608.917 L1108.16 608.917 L1108.16 1445.72 L1108.16 1445.72 L1108.16 1445.72 L1000.59 1445.72 L1000.59 1445.72  Z" fill="#fba83c" fill-rule="evenodd" fill-opacity="1"/>
<polyline clip-path="url(#clip222)" style="stroke:#000000; stroke-linecap:round; stroke-linejoin:round; stroke-width:4; stroke-opacity:1; fill:none" points="1000.59,1445.72 1000.59,608.917 1108.16,608.917 1108.16,1445.72 "/>
<path clip-path="url(#clip222)" d="M1108.16 1445.72 L1108.16 1003.35 L1215.73 1003.35 L1215.73 1445.72 L1215.73 1445.72 L1215.73 1445.72 L1108.16 1445.72 L1108.16 1445.72  Z" fill="#e97758" fill-rule="evenodd" fill-opacity="1"/>
<polyline clip-path="url(#clip222)" style="stroke:#000000; stroke-linecap:round; stroke-linejoin:round; stroke-width:4; stroke-opacity:1; fill:none" points="1108.16,1445.72 1108.16,1003.35 1215.73,1003.35 1215.73,1445.72 "/>
<path clip-path="url(#clip222)" d="M1215.73 1445.72 L1215.73 1445.72 L1323.3 1445.72 L1323.3 1445.72 L1323.3 1445.72 L1323.3 1445.72 L1215.73 1445.72 L1215.73 1445.72  Z" fill="#af5f81" fill-rule="evenodd" fill-opacity="1"/>
<polyline clip-path="url(#clip222)" style="stroke:#000000; stroke-linecap:round; stroke-linejoin:round; stroke-width:4; stroke-opacity:1; fill:none" points="1215.73,1445.72 1215.73,1445.72 1323.3,1445.72 "/>
<path clip-path="url(#clip222)" d="M1323.3 1445.72 L1323.3 1003.35 L1430.87 1003.35 L1430.87 1445.72 L1430.87 1445.72 L1430.87 1445.72 L1323.3 1445.72 L1323.3 1445.72  Z" fill="#744992" fill-rule="evenodd" fill-opacity="1"/>
<polyline clip-path="url(#clip222)" style="stroke:#000000; stroke-linecap:round; stroke-linejoin:round; stroke-width:4; stroke-opacity:1; fill:none" points="1323.3,1445.72 1323.3,1003.35 1430.87,1003.35 1430.87,1445.72 "/>
<path clip-path="url(#clip222)" d="M1430.87 1445.72 L1430.87 608.917 L1538.44 608.917 L1538.44 1445.72 L1538.44 1445.72 L1538.44 1445.72 L1430.87 1445.72 L1430.87 1445.72  Z" fill="#3b339e" fill-rule="evenodd" fill-opacity="1"/>
<polyline clip-path="url(#clip222)" style="stroke:#000000; stroke-linecap:round; stroke-linejoin:round; stroke-width:4; stroke-opacity:1; fill:none" points="1430.87,1445.72 1430.87,608.917 1538.44,608.917 1538.44,1445.72 "/>
<path clip-path="url(#clip222)" d="M1753.58 1445.72 L1753.58 87.9763 L1861.16 87.9763 L1861.16 1445.72 L1861.16 1445.72 L1861.16 1445.72 L1753.58 1445.72 L1753.58 1445.72  Z" fill="#032333" fill-rule="evenodd" fill-opacity="1"/>
<polyline clip-path="url(#clip222)" style="stroke:#000000; stroke-linecap:round; stroke-linejoin:round; stroke-width:4; stroke-opacity:1; fill:none" points="1753.58,1445.72 1753.58,87.9763 1861.16,87.9763 1861.16,1445.72 "/>
<path clip-path="url(#clip222)" d="M2183.87 1445.72 L2183.87 1221.47 L2291.44 1221.47 L2291.44 1445.72 L2291.44 1445.72 L2291.44 1445.72 L2183.87 1445.72 L2183.87 1445.72  Z" fill="#90558b" fill-rule="evenodd" fill-opacity="1"/>
<polyline clip-path="url(#clip222)" style="stroke:#000000; stroke-linecap:round; stroke-linejoin:round; stroke-width:4; stroke-opacity:1; fill:none" points="2183.87,1445.72 2183.87,1221.47 2291.44,1221.47 2291.44,1445.72 "/>
<path clip-path="url(#clip222)" d="M355.161 1445.72 L355.161 797.288 L462.732 797.288 L462.732 1445.72 L462.732 1445.72 L462.732 1445.72 L355.161 1445.72 L355.161 1445.72  Z" fill="#f88e43" fill-rule="evenodd" fill-opacity="1"/>
<polyline clip-path="url(#clip222)" style="stroke:#000000; stroke-linecap:round; stroke-linejoin:round; stroke-width:4; stroke-opacity:1; fill:none" points="355.161,1445.72 355.161,797.288 462.732,797.288 462.732,1445.72 "/>
<path clip-path="url(#clip222)" d="M677.874 1445.72 L677.874 87.9763 L785.445 87.9763 L785.445 1445.72 L785.445 1445.72 L785.445 1445.72 L677.874 1445.72 L677.874 1445.72  Z" fill="#e7fa5a" fill-rule="evenodd" fill-opacity="1"/>
<polyline clip-path="url(#clip222)" style="stroke:#000000; stroke-linecap:round; stroke-linejoin:round; stroke-width:4; stroke-opacity:1; fill:none" points="677.874,1445.72 677.874,87.9763 785.445,87.9763 785.445,1445.72 "/>
<path clip-path="url(#clip222)" d="M570.303 1445.72 L570.303 198.073 L677.874 198.073 L677.874 1445.72 L677.874 1445.72 L677.874 1445.72 L570.303 1445.72 L570.303 1445.72  Z" fill="#efe851" fill-rule="evenodd" fill-opacity="1"/>
<polyline clip-path="url(#clip222)" style="stroke:#000000; stroke-linecap:round; stroke-linejoin:round; stroke-width:4; stroke-opacity:1; fill:none" points="570.303,1445.72 570.303,198.073 677.874,198.073 677.874,1445.72 "/>
<path clip-path="url(#clip222)" d="M1646.01 1445.72 L1646.01 125.012 L1753.58 125.012 L1753.58 1445.72 L1753.58 1445.72 L1753.58 1445.72 L1646.01 1445.72 L1646.01 1445.72  Z" fill="#042539" fill-rule="evenodd" fill-opacity="1"/>
<polyline clip-path="url(#clip222)" style="stroke:#000000; stroke-linecap:round; stroke-linejoin:round; stroke-width:4; stroke-opacity:1; fill:none" points="1646.01,1445.72 1646.01,125.012 1753.58,125.012 1753.58,1445.72 "/>
<path clip-path="url(#clip222)" d="M1968.73 1445.72 L1968.73 443.371 L2076.3 443.371 L2076.3 1445.72 L2076.3 1445.72 L2076.3 1445.72 L1968.73 1445.72 L1968.73 1445.72  Z" fill="#1a337f" fill-rule="evenodd" fill-opacity="1"/>
<polyline clip-path="url(#clip222)" style="stroke:#000000; stroke-linecap:round; stroke-linejoin:round; stroke-width:4; stroke-opacity:1; fill:none" points="1968.73,1445.72 1968.73,443.371 2076.3,443.371 2076.3,1445.72 "/>
</svg>
